STARTFONT 2.1
COMMENT
COMMENT Converted from OpenType font "Patriot-Regular.otf" by "otf2bdf 3.0".
COMMENT
FONT -FreeType-Patriot-Medium-R-Normal--77-560-100-100-P-367-ISO10646-1
SIZE 56 100 100
FONTBOUNDINGBOX 124 102 -28 -21
STARTPROPERTIES 19
FOUNDRY "FreeType"
FAMILY_NAME "Patriot"
WEIGHT_NAME "Medium"
SLANT "R"
SETWIDTH_NAME "Normal"
ADD_STYLE_NAME ""
PIXEL_SIZE 77
POINT_SIZE 560
RESOLUTION_X 100
RESOLUTION_Y 100
SPACING "P"
AVERAGE_WIDTH 367
CHARSET_REGISTRY "ISO10646"
CHARSET_ENCODING "1"
FONT_ASCENT 78
FONT_DESCENT 15
COPYRIGHT "Copyright © 2020 by Behalf Studio. All rights reserved."
_OTF_FONTFILE "Patriot-Regular.otf"
_OTF_PSNAME "Patriot-Regular"
ENDPROPERTIES
CHARS 426
STARTCHAR 0020
ENCODING 32
SWIDTH 360 0
DWIDTH 28 0
BBX 0 0 0 0
BITMAP
ENDCHAR
STARTCHAR 0021
ENCODING 33
SWIDTH 244 0
DWIDTH 19 0
BBX 12 55 4 -1
BITMAP
3F80
3F80
3F80
3F80
3F80
3F80
3F80
3F80
3F80
3F80
3F80
3F80
3F80
3F80
3F80
3F80
3F80
3F80
3F80
3F80
3F80
3F80
3F80
3F80
3F80
3F80
3F80
3F80
3F80
3F80
3F80
3F80
3F80
3F80
3F80
0000
0000
0000
0000
0000
0000
0000
0000
0000
1F80
3FC0
7FE0
FFE0
FFF0
FFF0
FFF0
7FE0
7FE0
3FC0
0F00
ENDCHAR
STARTCHAR 0022
ENCODING 34
SWIDTH 295 0
DWIDTH 23 0
BBX 16 17 4 37
BITMAP
FC1F
FC1F
FC1F
FC1F
FC1F
FC1F
FC1F
FC1F
FC1F
FC1F
FC1F
FC1F
FC1F
FC1F
FC1F
FC1F
FC1F
ENDCHAR
STARTCHAR 0023
ENCODING 35
SWIDTH 630 0
DWIDTH 49 0
BBX 41 54 4 0
BITMAP
0007E003F000
0007E003F000
000FC003F000
000FC003F000
000FC003F000
000FC003F000
000FC007F000
000FC007E000
000FC007E000
001F8007E000
001F8007E000
001F8007E000
001F8007E000
001F8007E000
001F800FC000
001F800FC000
3FFFFFFFFF80
3FFFFFFFFF80
3FFFFFFFFF80
3FFFFFFFFF80
3FFFFFFFFF80
003F001F8000
003F001F8000
007E001F8000
007E001F8000
007E001F8000
007E001F8000
007E001F8000
007E003F0000
007E003F0000
00FE003F0000
00FC003F0000
00FC003F0000
FFFFFFFFFE00
FFFFFFFFFE00
FFFFFFFFFE00
FFFFFFFFFE00
FFFFFFFFFE00
FFFFFFFFFE00
01F8007E0000
01F8007E0000
01F8007E0000
01F800FC0000
01F800FC0000
03F000FC0000
03F000FC0000
03F000FC0000
03F000FC0000
03F000FC0000
03F001F80000
03F001F80000
07F001F80000
07E001F80000
07E001F80000
ENDCHAR
STARTCHAR 0024
ENCODING 36
SWIDTH 540 0
DWIDTH 42 0
BBX 34 69 4 -7
BITMAP
0001F80000
0001F80000
0001F80000
0001F80000
0001F80000
0001F80000
0003F80000
001FFF0000
007FFFC000
01FFFFE000
03FFFFF000
07FFFFF800
07FFFFFC00
0FFFFFFE00
0FF9F3FE00
1FF1F1FF00
1FE1F0FF00
1FC1F07F00
1FC1F07F80
1FC1F07F80
1FC1F03E00
1FC1F02000
1FE1F00000
1FE1F00000
1FF1F00000
0FF9F00000
0FFDF00000
07FFF00000
03FFF00000
01FFF00000
00FFF00000
007FFC0000
003FFF0000
000FFF8000
0007FFE000
0001FFF000
0001FFF800
0001FFFC00
0001FFFE00
0001F7FF00
0001F1FF00
0001F0FF80
0001F07F80
0001F07FC0
0001F03FC0
0001F03FC0
0001F01FC0
0E01F01FC0
FF01F01FC0
FF01F01FC0
7F81F03FC0
7F81F03FC0
7FC1F07F80
3FE1F07F80
3FF1F1FF80
1FFDF3FF00
0FFFFFFF00
0FFFFFFE00
07FFFFFC00
03FFFFF800
00FFFFF000
003FFFC000
0007FE0000
0001F80000
0001F80000
0001F80000
0001F80000
0001F80000
0001F80000
ENDCHAR
STARTCHAR 0025
ENCODING 37
SWIDTH 874 0
DWIDTH 68 0
BBX 60 57 4 -1
BITMAP
001F000000000000
00FFE0000003F000
03FFF8000007F000
07FFFE000007E000
0FFFFF00000FC000
1FFFFF00001F8000
3FC07F80001F8000
7F803FC0003F0000
7F001FC0007E0000
7E000FE000FE0000
FE000FE000FC0000
FE0007E001F80000
FC0007E003F80000
FC0007E003F00000
FC0007E007E00000
FE0007E00FC00000
FE000FE00FC00000
7E000FC01F800000
7F001FC03F000000
3F803FC07F000000
3FE0FF807E000000
1FFFFF00FC000000
0FFFFE01FC000000
07FFFC01F8000000
03FFF803F0000000
00FFE007E0000000
00000007E0000000
0000000FC0000000
0000001F80000000
0000003F80000000
0000003F00000000
0000007E003FE000
000000FE00FFF800
000000FC03FFFE00
000001F807FFFF00
000003F00FFFFF80
000003F01FF8FFC0
000007E01FE03FC0
00000FC03F800FE0
00001FC03F800FE0
00001F807F0007F0
00003F007F0007F0
00007F007E0003F0
00007E007E0003F0
0000FC007E0003F0
0001F8007E0003F0
0001F8007F0007F0
0003F0007F0007F0
0007E0003F800FE0
000FE0003F800FE0
000FC0001FE03FC0
001F80001FF8FFC0
003F80000FFFFF80
003F000007FFFF00
007E000003FFFE00
00FC000000FFF800
00000000003FE000
ENDCHAR
STARTCHAR 0026
ENCODING 38
SWIDTH 655 0
DWIDTH 51 0
BBX 43 56 4 -1
BITMAP
0007FE000000
003FFFC00000
00FFFFF00000
01FFFFF80000
03FFFFFC0000
07FFFFFE0000
0FFF9FFF0000
0FFC03FF8000
1FF000FF8000
1FE0007F8000
1FE0003F0000
3FC0001E0000
3FC0000C0000
3FC000080000
3F8000000000
3F8000000000
3FC000000000
3FC000000000
1FC000000000
1FE000000000
1FF000000000
0FF800000000
07FE00000000
07FFFFFFFFE0
03FFFFFFFFE0
01FFFFFFFFE0
01FFFFFFFFE0
07FFFFFFFFE0
0FFFFFFFFFE0
1FFFFFFFFFE0
1FF80001FE00
3FF00001FE00
3FC00001FE00
7F800001FE00
7F800001FE00
7F000001FC00
FF000001FC00
FF000001FC00
FF000003FC00
FF000003FC00
FF000003F800
FF000007F800
FF000007F800
7F80000FF000
7F80000FF000
7FC0001FF000
3FE0003FE000
3FF800FFC000
1FFE03FFC000
0FFFFFFF8000
07FFFFFF0000
03FFFFFE0000
01FFFFFC0000
007FFFF00000
001FFFC00000
0003FE000000
ENDCHAR
STARTCHAR 0027
ENCODING 39
SWIDTH 167 0
DWIDTH 13 0
BBX 5 17 4 37
BITMAP
F8
F8
F8
F8
F8
F8
F8
F8
F8
F8
F8
F8
F8
F8
F8
F8
F8
ENDCHAR
STARTCHAR 0028
ENCODING 40
SWIDTH 321 0
DWIDTH 25 0
BBX 17 72 4 -11
BITMAP
000C00
000E00
001F80
003F80
003F00
007F00
00FE00
00FC00
01FC00
01F800
03F800
03F000
07F000
07E000
07E000
0FC000
0FC000
1F8000
1F8000
1F8000
3F0000
3F0000
3F0000
3E0000
7E0000
7E0000
7E0000
7E0000
7C0000
FC0000
FC0000
FC0000
FC0000
FC0000
FC0000
FC0000
FC0000
FC0000
FC0000
FC0000
FC0000
FC0000
FC0000
7C0000
7C0000
7E0000
7E0000
7E0000
7E0000
3E0000
3F0000
3F0000
3F0000
1F8000
1F8000
1F8000
0FC000
0FC000
07E000
07E000
03F000
03F000
01F800
01F800
00FC00
00FE00
007E00
007F00
003F80
001F80
001F00
000E00
ENDCHAR
STARTCHAR 0029
ENCODING 41
SWIDTH 321 0
DWIDTH 25 0
BBX 17 73 4 -11
BITMAP
080000
3C0000
7E0000
FE0000
7F0000
3F0000
3F8000
1FC000
0FC000
0FE000
07E000
07F000
03F000
03F800
01F800
01F800
00FC00
00FC00
007C00
007E00
007E00
003E00
003F00
003F00
003F00
001F00
001F80
001F80
001F80
001F80
001F80
000F80
000F80
000F80
000F80
000F80
000F80
000F80
000F80
000F80
000F80
000F80
001F80
001F80
001F80
001F80
001F00
001F00
003F00
003F00
003F00
007E00
007E00
007E00
00FC00
00FC00
00FC00
01F800
01F800
03F000
03F000
07E000
07E000
0FC000
1FC000
1F8000
3F8000
7F0000
7F0000
FE0000
3C0000
1C0000
080000
ENDCHAR
STARTCHAR 002A
ENCODING 42
SWIDTH 450 0
DWIDTH 35 0
BBX 27 26 4 29
BITMAP
00060000
001F0000
001F8000
003F8000
003F8000
003F8000
003F8000
003F8000
7C1F87C0
7F1F1FE0
FFCF3FE0
FFEE7FE0
FFFFFFE0
7FFFFFC0
1FFFFF80
001F8000
007FC000
00FFE000
01FBF800
03FBFC00
07F9FC00
07F1FE00
0FF1FE00
0FE0FE00
0FE07E00
07C03C00
ENDCHAR
STARTCHAR 002B
ENCODING 43
SWIDTH 552 0
DWIDTH 43 0
BBX 35 35 4 8
BITMAP
0001F80000
0001F80000
0001F80000
0001F80000
0001F80000
0001F80000
0001F80000
0001F80000
0001F80000
0001F80000
0001F80000
0001F80000
0001F80000
0001F80000
FFFFFFFFE0
FFFFFFFFE0
FFFFFFFFE0
FFFFFFFFE0
FFFFFFFFE0
FFFFFFFFE0
0001F80000
0001F80000
0001F80000
0001F80000
0001F80000
0001F80000
0001F80000
0001F80000
0001F80000
0001F80000
0001F80000
0001F80000
0001F80000
0001F80000
0001F80000
ENDCHAR
STARTCHAR 002C
ENCODING 44
SWIDTH 257 0
DWIDTH 20 0
BBX 12 15 4 -9
BITMAP
07F0
07F0
07E0
0FE0
0FC0
0FC0
1F80
1F80
1F00
3F00
3E00
7E00
7C00
7800
F800
ENDCHAR
STARTCHAR 002D
ENCODING 45
SWIDTH 437 0
DWIDTH 34 0
BBX 26 6 4 15
BITMAP
FFFFFFC0
FFFFFFC0
FFFFFFC0
FFFFFFC0
FFFFFFC0
FFFFFFC0
ENDCHAR
STARTCHAR 002E
ENCODING 46
SWIDTH 244 0
DWIDTH 19 0
BBX 12 11 4 -1
BITMAP
1F80
3FC0
7FE0
FFE0
FFF0
FFF0
FFF0
7FE0
7FE0
3FC0
0F00
ENDCHAR
STARTCHAR 002F
ENCODING 47
SWIDTH 385 0
DWIDTH 30 0
BBX 22 57 4 -1
BITMAP
0000FC
0000FC
0000FC
0000FC
0001F8
0001F8
0001F8
0003F0
0003F0
0003F0
0003F0
0007E0
0007E0
0007E0
000FC0
000FC0
000FC0
001FC0
001F80
001F80
001F80
003F00
003F00
003F00
007F00
007E00
007E00
007E00
00FC00
00FC00
00FC00
01FC00
01F800
01F800
01F800
03F000
03F000
03F000
07F000
07E000
07E000
07E000
0FC000
0FC000
0FC000
1FC000
1F8000
1F8000
1F8000
3F0000
3F0000
3F0000
7F0000
7E0000
7E0000
7E0000
FC0000
ENDCHAR
STARTCHAR 0030
ENCODING 48
SWIDTH 707 0
DWIDTH 55 0
BBX 50 57 3 -1
BITMAP
000001C0000000
00007FFF000000
0003FFFFE00000
000FFFFFF80000
001FFFFFFC0000
007FFFFFFF0000
00FFFFFFFF8000
01FFF807FFC000
03FFC000FFE000
07FF00007FF000
07FC00001FF800
0FF800000FF800
1FF0000007FC00
1FE0000003FC00
3FC0000001FE00
3FC0000001FE00
7F80000000FF00
7F80000000FF00
7F000000007F00
7F000000007F80
FF000000003F80
FE000000003F80
FE000000003F80
FE000000003F80
FE000000003F80
FE000000003FC0
FE000000001FC0
FE000000001FC0
FE000000001FC0
FE000000001FC0
FE000000001FC0
FE000000001FC0
FE000000003F80
FE000000003F80
FE000000003F80
FE000000003F80
FE000000003F80
FF000000007F80
7F000000007F00
7F000000007F00
7F80000000FF00
3F80000000FE00
3FC0000001FE00
1FE0000003FE00
1FF0000003FC00
0FF0000007FC00
0FFC00000FF800
07FE00003FF000
03FF8000FFE000
01FFE003FFE000
00FFFFFFFFC000
007FFFFFFF0000
003FFFFFFE0000
000FFFFFFC0000
0007FFFFF00000
0000FFFFC00000
00001FFC000000
ENDCHAR
STARTCHAR 0031
ENCODING 49
SWIDTH 295 0
DWIDTH 23 0
BBX 16 54 3 0
BITMAP
007F
007F
007F
007F
FFFF
FFFF
FFFF
FFFF
FFFF
FFFF
FFFF
007F
007F
007F
007F
007F
007F
007F
007F
007F
007F
007F
007F
007F
007F
007F
007F
007F
007F
007F
007F
007F
007F
007F
007F
007F
007F
007F
007F
007F
007F
007F
007F
007F
007F
007F
007F
007F
007F
007F
007F
007F
007F
007F
ENDCHAR
STARTCHAR 0032
ENCODING 50
SWIDTH 540 0
DWIDTH 42 0
BBX 36 56 3 0
BITMAP
0000700000
000FFF8000
007FFFE000
00FFFFF800
03FFFFFC00
07FFFFFE00
0FFFFFFF00
1FFE07FF80
1FF800FF80
3FE0007FC0
3FC0003FC0
7FC0001FE0
7F80001FE0
7F00000FE0
FF00000FE0
FF00000FE0
FE00000FF0
FE00000FE0
1E00000FE0
0000000FE0
0000000FE0
0000001FE0
0000001FE0
0000001FC0
0000003FC0
0000003F80
0000007F80
000000FF00
000000FF00
000001FE00
000003FC00
000007FC00
00000FF800
00001FF000
00003FE000
00007FC000
0000FF8000
0001FF0000
0003FE0000
0007FC0000
000FF80000
001FF80000
003FF00000
007FE00000
00FFC00000
01FF800000
03FF000000
03FE000000
07FC000000
0FF8000000
1FFFFFFFF0
3FFFFFFFF0
7FFFFFFFF0
FFFFFFFFF0
FFFFFFFFF0
FFFFFFFFF0
ENDCHAR
STARTCHAR 0033
ENCODING 51
SWIDTH 514 0
DWIDTH 40 0
BBX 36 55 3 -1
BITMAP
7FFFFFFF80
7FFFFFFF80
7FFFFFFF80
7FFFFFFF00
7FFFFFFE00
7FFFFFFC00
000007F800
00000FF000
00001FE000
00003FC000
0000FF8000
0001FE0000
0003FC0000
0007F80000
000FF00000
001FE00000
003FC00000
007FFE0000
00FFFF8000
01FFFFE000
07FFFFF000
0FFFFFFC00
1FFFFFFE00
1FF80FFE00
0FE003FF00
078000FF80
0300007FC0
0000003FC0
0000001FC0
0000001FE0
0000000FE0
0000000FE0
0000000FE0
0000000FF0
0000000FF0
0000000FF0
0000000FE0
0000000FE0
0000000FE0
0000000FE0
0000000FE0
0000001FE0
0000001FC0
0C00003FC0
3E00007F80
7F0000FF80
FF8001FF00
FFE007FF00
7FFFFFFE00
3FFFFFFC00
1FFFFFF800
0FFFFFF000
03FFFFC000
00FFFF0000
001FFC0000
ENDCHAR
STARTCHAR 0034
ENCODING 52
SWIDTH 527 0
DWIDTH 41 0
BBX 39 54 1 0
BITMAP
000003FF80
00001FFF80
00007FFF80
0001FFFF80
0007FFFF80
000FFFFF80
001FFFFF80
007FFC3F80
007FF03F80
00FFC03F80
01FF803F80
03FE003F80
07FC003F80
07F8003F80
0FF8003F80
0FF0003F80
1FE0003F80
1FE0003F80
3FC0003F80
3FC0003F80
3F80003F80
3F80003F80
7F80003F80
7F00003F80
7F00003F80
7F00003F80
FF00003F80
FF00003F80
FE00003F80
FE00003F80
FE00003F80
FFFFFFFFFE
FFFFFFFFFE
FFFFFFFFFE
FFFFFFFFFE
FFFFFFFFFE
FFFFFFFFFE
FFFFFFFFFE
0000003F80
0000003F80
0000003F80
0000003F80
0000003F80
0000003F80
0000003F80
0000003F80
0000003F80
0000003F80
0000003F80
0000003F80
0000003F80
0000003F80
0000003F80
0000003F80
ENDCHAR
STARTCHAR 0035
ENCODING 53
SWIDTH 540 0
DWIDTH 42 0
BBX 36 55 4 -1
BITMAP
3FFFFFFF80
3FFFFFFF80
3FFFFFFF80
3FFFFFFF80
3FFFFFFF80
3FFFFFFF80
3F00000000
3F00000000
7F00000000
7F00000000
7F00000000
7F00000000
7F00000000
7F00000000
7F00000000
7E00000000
7E00E00000
7E1FFF0000
7E7FFFC000
FFFFFFF000
FFFFFFF800
FFFFFFFC00
FFFFFFFE00
FFF80FFF00
FFE003FF80
FF8000FF80
7F00007FC0
1C00003FC0
0000001FE0
0000001FE0
0000000FE0
0000000FE0
0000000FF0
0000000FF0
00000007F0
00000007F0
00000007F0
0000000FF0
0000000FE0
0000000FE0
0000000FE0
0000001FE0
0000001FC0
0C00003FC0
3E00007FC0
7F0000FF80
FF8001FF00
FFE007FF00
7FFFFFFE00
3FFFFFFC00
1FFFFFF800
0FFFFFF000
03FFFFC000
00FFFF0000
001FF80000
ENDCHAR
STARTCHAR 0036
ENCODING 54
SWIDTH 604 0
DWIDTH 47 0
BBX 42 55 3 -1
BITMAP
00001FF00000
00001FE00000
00003FC00000
00007FC00000
00007F800000
0000FF000000
0001FF000000
0001FE000000
0003FC000000
0007F8000000
000FF8000000
000FF0000000
001FE0000000
003FE0000000
003FC0000000
007FBFF00000
00FFFFFE0000
00FFFFFF8000
01FFFFFFC000
03FFFFFFE000
07FFFFFFF000
07FF807FF800
0FFE000FFC00
0FF80007FE00
1FF00001FE00
1FE00001FF00
3FC00000FF00
3F8000007F80
7F8000007F80
7F0000003F80
7F0000003F80
7F0000003FC0
FF0000001FC0
FE0000001FC0
FE0000001FC0
FE0000001FC0
FF0000001FC0
FF0000001FC0
7F0000003FC0
7F0000003F80
7F8000003F80
7F8000007F80
3FC000007F00
3FC00000FF00
1FE00001FE00
1FF00003FE00
0FFC000FFC00
07FF003FF800
07FFFFFFF800
03FFFFFFF000
00FFFFFFE000
007FFFFF8000
001FFFFF0000
0007FFFC0000
0001FFE00000
ENDCHAR
STARTCHAR 0037
ENCODING 55
SWIDTH 450 0
DWIDTH 35 0
BBX 33 54 3 0
BITMAP
FFFFFFFF80
FFFFFFFF80
FFFFFFFF00
FFFFFFFF00
FFFFFFFF00
FFFFFFFE00
000001FE00
000001FC00
000001FC00
000003FC00
000003F800
000007F800
000007F000
000007F000
00000FF000
00000FE000
00001FE000
00001FC000
00001FC000
00003F8000
00003F8000
3FFFFFF800
3FFFFFF800
3FFFFFF800
3FFFFFF800
3FFFFFF800
3FFFFFF800
0001FC0000
0001FC0000
0003FC0000
0003F80000
0007F80000
0007F00000
0007F00000
000FF00000
000FE00000
001FE00000
001FC00000
001FC00000
003F800000
003F800000
007F800000
007F000000
007F000000
00FE000000
00FE000000
01FE000000
01FC000000
01FC000000
03F8000000
03F8000000
07F8000000
07F0000000
07F0000000
ENDCHAR
STARTCHAR 0038
ENCODING 56
SWIDTH 565 0
DWIDTH 44 0
BBX 40 57 2 -1
BITMAP
0000180000
0003FFC000
000FFFF000
001FFFF800
003FFFFC00
007FFFFE00
00FFF7FF00
00FF00FF00
01FE007F80
01FC003F80
01FC003F80
01FC001F80
01F8001F80
01F8001F80
01FC003F80
01FC003F80
01FE003F80
00FE007F00
00FF81FF00
007FFFFE00
007FFFFE00
003FFFFC00
007FFFFE00
01FFFFFF80
03FFFFFFC0
07FF81FFE0
0FFC003FF0
1FF8001FF8
1FE00007F8
3FC00003FC
3F800003FC
7F800001FE
7F000000FE
7F000000FE
FF000000FF
FE0000007F
FE0000007F
FE0000007F
FE0000007F
FE0000007F
FE000000FF
FF000000FE
7F000000FE
7F800001FE
7F800001FE
3FC00003FC
3FE00007FC
1FF0000FF8
1FF8001FF8
0FFE007FF0
07FFE7FFE0
03FFFFFFC0
01FFFFFF80
00FFFFFF00
003FFFFC00
000FFFF000
0001FF8000
ENDCHAR
STARTCHAR 0039
ENCODING 57
SWIDTH 578 0
DWIDTH 45 0
BBX 41 56 3 0
BITMAP
000018000000
0007FFE00000
001FFFFC0000
007FFFFF0000
00FFFFFF8000
03FFFFFFC000
07FFFFFFE000
0FFF80FFF000
0FFC001FF800
1FF0000FFC00
3FE00003FC00
3FC00001FE00
7F800001FE00
7F800000FF00
7F0000007F00
FF0000007F00
FE0000007F80
FE0000003F80
FE0000003F80
FE0000003F80
FE0000003F80
FE0000003F80
FE0000003F80
FE0000003F80
FE0000003F80
FE0000007F80
FF0000007F00
7F000000FF00
7F800000FF00
7F800001FE00
3FC00003FE00
3FE00007FC00
1FF8000FFC00
0FFE003FF800
07FFC3FFF000
03FFFFFFF000
01FFFFFFE000
00FFFFFFC000
003FFFFFC000
000FFFFF8000
0000FCFF0000
000001FF0000
000001FE0000
000003FC0000
000007F80000
00000FF80000
00000FF00000
00001FE00000
00003FE00000
00003FC00000
00007F800000
0000FF800000
0000FF000000
0001FE000000
0003FC000000
0007FC000000
ENDCHAR
STARTCHAR 003A
ENCODING 58
SWIDTH 244 0
DWIDTH 19 0
BBX 12 38 4 0
BITMAP
3F80
7FC0
7FE0
FFE0
FFF0
FFF0
FFF0
7FE0
7FE0
3FC0
0600
0000
0000
0000
0000
0000
0000
0000
0000
0000
0000
0000
0000
0000
0000
0000
0000
1F80
3FC0
7FE0
FFE0
FFF0
FFF0
FFF0
7FE0
7FE0
3FC0
0F00
ENDCHAR
STARTCHAR 003B
ENCODING 59
SWIDTH 282 0
DWIDTH 22 0
BBX 14 47 4 -9
BITMAP
0080
07F0
0FF8
1FF8
1FFC
1FFC
1FFC
1FFC
1FFC
0FF8
07F0
0180
0000
0000
0000
0000
0000
0000
0000
0000
0000
0000
0000
0000
0000
0000
0000
0000
0000
0000
0000
0000
07F0
07F0
07E0
0FE0
0FC0
0FC0
1F80
1F80
1F00
3F00
3E00
7E00
7C00
7800
F800
ENDCHAR
STARTCHAR 003C
ENCODING 60
SWIDTH 552 0
DWIDTH 43 0
BBX 35 32 4 9
BITMAP
0000000060
00000003E0
0000001FE0
0000007FE0
000003FFE0
00001FFFE0
00007FFF00
0003FFF800
001FFFC000
00FFFE0000
03FFF80000
1FFFC00000
FFFE000000
FFF0000000
FF80000000
FE00000000
FF80000000
FFF0000000
FFFC000000
3FFF800000
07FFF00000
01FFFE0000
003FFF8000
0007FFF000
0001FFFE00
00003FFFC0
000007FFE0
000000FFE0
0000003FE0
00000007E0
00000000E0
0000000020
ENDCHAR
STARTCHAR 003D
ENCODING 61
SWIDTH 552 0
DWIDTH 43 0
BBX 35 21 4 15
BITMAP
FFFFFFFFE0
FFFFFFFFE0
FFFFFFFFE0
FFFFFFFFE0
FFFFFFFFE0
FFFFFFFFE0
0000000000
0000000000
0000000000
0000000000
0000000000
0000000000
0000000000
0000000000
0000000000
0000000000
FFFFFFFFE0
FFFFFFFFE0
FFFFFFFFE0
FFFFFFFFE0
FFFFFFFFE0
ENDCHAR
STARTCHAR 003E
ENCODING 62
SWIDTH 552 0
DWIDTH 43 0
BBX 35 32 4 9
BITMAP
E000000000
FC00000000
FF00000000
FFE0000000
FFFC000000
7FFF000000
0FFFE00000
03FFFC0000
007FFF0000
000FFFE000
0001FFFC00
00007FFF00
00000FFFE0
000001FFE0
0000007FE0
0000000FE0
0000001FE0
000000FFE0
000003FFE0
00001FFF80
0000FFFE00
0007FFF000
003FFF8000
00FFFE0000
07FFF00000
3FFF800000
FFFE000000
FFF0000000
FF80000000
FE00000000
F000000000
8000000000
ENDCHAR
STARTCHAR 003F
ENCODING 63
SWIDTH 424 0
DWIDTH 33 0
BBX 25 56 4 -1
BITMAP
00FFC000
03FFF000
07FFF800
0FFFFC00
1FFFFE00
3FFFFF00
7FC1FF00
7F007F80
7F007F80
FE003F80
7C003F80
1C003F80
00003F80
00003F80
00003F80
00007F00
00007F00
0000FE00
0001FE00
0003FC00
0003F800
0007F800
000FF000
000FE000
001FC000
003FC000
003F8000
003F0000
007F0000
007F0000
00FE0000
00FE0000
00FE0000
00FE0000
00FC0000
00FC0000
00FC0000
00FC0000
00000000
00000000
00000000
00000000
00000000
00000000
00000000
007E0000
01FF0000
01FF8000
03FF8000
03FF8000
03FF8000
03FF8000
03FF8000
01FF0000
00FF0000
007C0000
ENDCHAR
STARTCHAR 0040
ENCODING 64
SWIDTH 797 0
DWIDTH 62 0
BBX 54 57 4 -1
BITMAP
00000004000000
000007FFF80000
00003FFFFF0000
0000FFFFFFC000
0003FFFFFFF000
000FFF003FF800
001FF00003FE00
003FC00000FF00
007F0000003F80
00FE0000001F80
01F80000000FC0
03F000000007E0
07E000000003E0
0FC000000003F0
0FC000000001F0
1F8001FF0001F8
1F0007FF9F00F8
3F000FFFDF00F8
3E001FFFFE00FC
3E003FFFFE007C
7E003FC1FE007C
7C007F80FE007C
7C007F007E007C
7C00FE007E007C
FC00FC007E007C
F800FC007E007C
F801FC007C007C
F801FC007C00FC
F801FC007C00F8
F801FC007C00F8
F801FC007C00F8
F801FC00FC01F0
FC01FC00FC01F0
FC00FC01FC03F0
7C00FE03FC07E0
7C00FF87FE0FC0
7C007FFFFFBFC0
7E003FFFBFFF80
3E003FFF3FFF00
3F000FFE1FFC00
1F0007F807F000
1F800000000000
0F800000000000
0FC00000000000
07E00000000000
07F00000000200
03F80000000700
01FC0000000F80
00FE0000003FC0
007F8000007F80
003FE00001FF00
000FFC000FFC00
0007FFFFFFF800
0001FFFFFFE000
00007FFFFF8000
00001FFFFE0000
000000FFE00000
ENDCHAR
STARTCHAR 0041
ENCODING 65
SWIDTH 552 0
DWIDTH 43 0
BBX 38 56 4 0
BITMAP
0003C00000
003FFC0000
00FFFF8000
03FFFFC000
07FFFFE000
0FFFFFF000
0FFFFFF800
1FFC1FFC00
3FF007FC00
3FC003FE00
7FC001FE00
7F8000FF00
7F0000FF00
FF00007F00
FF00007F00
FF00007F80
FE00007F80
FE00007F80
FE00007F80
FE00007F80
FE00007F80
FE00007F80
FE00007F80
FE00007F80
FE00007F80
FE00007F80
FE00007F80
FE00007F80
FE00007F80
FE00007F80
FE00007F80
FE00007F80
FE00007F80
FE00007F80
FE00007F80
FE00007F80
FE00007F80
FE00007F80
FE00007F80
FE00007F80
FE00007F80
FE00007F80
FE00007F80
FE00007F80
FE00007F80
FE00007F80
FE00007F80
FE00007F80
FE00007F80
FFFFFFFFFC
FFFFFFFFFC
FFFFFFFFFC
FFFFFFFFFC
FFFFFFFFFC
FFFFFFFFFC
FFFFFFFFFC
ENDCHAR
STARTCHAR 0042
ENCODING 66
SWIDTH 604 0
DWIDTH 47 0
BBX 42 54 3 0
BITMAP
07FFFFFC0000
07FFFFFF0000
07FFFFFFC000
07FFFFFFF000
07FFFFFFF800
07FFFFFFFC00
07F000FFFC00
07F00007FE00
07F00003FE00
07F00001FF00
07F00000FF00
07F00000FF00
07F000007F00
07F000007F00
07F000007F00
07F000007F00
07F000007F00
07F000007F00
07F00000FF00
07F00000FF00
07F00001FE00
07F00007FE00
07F0001FFC00
FFFFFFFFF800
FFFFFFFFF800
FFFFFFFFE000
FFFFFFFFF000
FFFFFFFFF800
FFFFFFFFFC00
FFFFFFFFFE00
07F00007FF00
07F00001FF00
07F00000FF80
07F000007F80
07F000003F80
07F000003FC0
07F000003FC0
07F000003FC0
07F000003FC0
07F000003FC0
07F000003FC0
07F000003FC0
07F000007F80
07F000007F80
07F00000FF80
07F00001FF00
07F0000FFF00
07FFFFFFFE00
07FFFFFFFC00
07FFFFFFF800
07FFFFFFF000
07FFFFFFE000
07FFFFFF8000
07FFFFF80000
ENDCHAR
STARTCHAR 0043
ENCODING 67
SWIDTH 681 0
DWIDTH 53 0
BBX 49 57 3 -1
BITMAP
0000003C000000
00000FFFF00000
00007FFFFE0000
0001FFFFFF8000
0007FFFFFFE000
001FFFFFFFF800
003FFFFFFFFC00
007FFFC1FFFE00
00FFF8001FFF00
01FFE00003FF80
03FF800001FF80
07FE0000007F00
0FFC0000003E00
0FF80000001C00
1FF00000000000
1FE00000000000
3FE00000000000
3FC00000000000
7F800000000000
7F800000000000
7F000000000000
FF000000000000
FF000000000000
FF000000000000
FE000000000000
FE000000000000
FE000000000000
FE000000000000
FE000000000000
FE000000000000
FE000000000000
FE000000000000
FE000000000000
FE000000000000
FF000000000000
FF000000000000
7F000000000000
7F800000000000
7F800000000000
3FC00000000000
3FC00000000000
3FE00000000000
1FF00000000000
1FF00000001800
0FF80000003C00
07FE0000007E00
03FF000000FF00
03FF800003FF80
01FFE00007FF00
00FFFC003FFE00
003FFFFFFFFC00
001FFFFFFFF800
000FFFFFFFF000
0003FFFFFFC000
0000FFFFFF0000
00003FFFFC0000
000003FFE00000
ENDCHAR
STARTCHAR 0044
ENCODING 68
SWIDTH 642 0
DWIDTH 50 0
BBX 44 54 4 0
BITMAP
FFFFFE000000
FFFFFFE00000
FFFFFFF80000
FFFFFFFE0000
FFFFFFFF8000
FFFFFFFFC000
FF01FFFFF000
FF0001FFF800
FF00003FFC00
FF00000FFC00
FF000007FE00
FF000003FF00
FF000001FF00
FF000000FF80
FF0000007F80
FF0000003FC0
FF0000003FC0
FF0000001FE0
FF0000001FE0
FF0000000FE0
FF0000000FE0
FF0000000FF0
FF0000000FF0
FF0000000FF0
FF0000000FF0
FF00000007F0
FF00000007F0
FF00000007F0
FF00000007F0
FF0000000FF0
FF0000000FF0
FF0000000FF0
FF0000000FE0
FF0000000FE0
FF0000001FE0
FF0000001FE0
FF0000001FE0
FF0000003FC0
FF0000007FC0
FF0000007F80
FF000000FF80
FF000001FF00
FF000003FF00
FF00000FFE00
FF00001FFC00
FF0000FFF800
FF0007FFF000
FFFFFFFFE000
FFFFFFFFC000
FFFFFFFF0000
FFFFFFFE0000
FFFFFFF00000
FFFFFFC00000
FFFFF8000000
ENDCHAR
STARTCHAR 0045
ENCODING 69
SWIDTH 488 0
DWIDTH 38 0
BBX 36 54 2 0
BITMAP
07FFFFE000
07FFFFE000
07FFFFE000
07FFFFE000
07FFFFE000
07FFFFE000
07F8000000
07F8000000
07F8000000
07F8000000
07F8000000
07F8000000
07F8000000
07F8000000
07F8000000
07F8000000
07F8000000
07F8000000
07F8000000
07F8000000
07F8000000
07F8000000
07F8000000
FFFFFFFE00
FFFFFFFE00
FFFFFFFE00
FFFFFFFE00
FFFFFFFE00
FFFFFFFE00
FFFFFFFE00
07F8000000
07F8000000
07F8000000
07F8000000
07F8000000
07F8000000
07F8000000
07F8000000
07F8000000
07F8000000
07F8000000
07F8000000
07F8000000
07F8000000
07F8000000
07F8000000
07F8000000
07FFFFFFF0
07FFFFFFF0
07FFFFFFF0
07FFFFFFF0
07FFFFFFF0
07FFFFFFF0
07FFFFFFF0
ENDCHAR
STARTCHAR 0046
ENCODING 70
SWIDTH 450 0
DWIDTH 35 0
BBX 34 54 2 0
BITMAP
03FFFFFFC0
03FFFFFFC0
03FFFFFFC0
03FFFFFFC0
03FFFFFFC0
03FFFFFFC0
03FC000000
03FC000000
03FC000000
03FC000000
03FC000000
03FC000000
03FC000000
03FC000000
03FC000000
03FC000000
03FC000000
03FC000000
03FC000000
03FC000000
03FC000000
03FC000000
03FC000000
03FC000000
03FC000000
FFFFFFFF00
FFFFFFFF00
FFFFFFFF00
FFFFFFFF00
FFFFFFFF00
FFFFFFFF00
03FC000000
03FC000000
03FC000000
03FC000000
03FC000000
03FC000000
03FC000000
03FC000000
03FC000000
03FC000000
03FC000000
03FC000000
03FC000000
03FC000000
03FC000000
03FC000000
03FC000000
03FC000000
03FC000000
03FC000000
03FC000000
03FC000000
03FC000000
ENDCHAR
STARTCHAR 0047
ENCODING 71
SWIDTH 822 0
DWIDTH 64 0
BBX 61 57 3 -1
BITMAP
0000003E00000000
00000FFFF8000000
00007FFFFF000000
0001FFFFFFC00000
0007FFFFFFE00000
000FFFFFFFF80000
003FFFFFFFFC0000
007FFFC0FFFE0000
00FFF8000FFF0000
01FFE00003FF8000
03FF800000FF8000
07FE0000007F0000
07FC0000003E0000
0FF80000001C0000
1FF0000000080000
1FE0000000000000
3FE0000000000000
3FC0000000000000
7F80000000000000
7F80000000000000
7F00000000000000
FF00000000000000
FF00000000000000
FF00000000000000
FE00000000000000
FE00001FFFFFFFF8
FE00001FFFFFFFF8
FE00001FFFFFFFF8
FE00001FFFFFFFF8
FE00001FFFFFFFF8
FE00001FFFFFFFF8
FE00001FFFFFFFF8
FE00000000007F00
FE0000000000FF00
FF0000000000FF00
FF0000000000FF00
7F0000000000FF00
7F8000000001FE00
7F8000000001FE00
3FC000000001FE00
3FC000000003FC00
3FE000000007FC00
1FF000000007F800
0FF00000000FF800
0FFC0000001FF000
07FE0000003FF000
03FF0000007FE000
01FFC00001FFC000
01FFF00007FF8000
00FFFC003FFF0000
003FFFFFFFFE0000
001FFFFFFFFC0000
000FFFFFFFF00000
0003FFFFFFE00000
0000FFFFFF800000
00003FFFFE000000
000003FFE0000000
ENDCHAR
STARTCHAR 0048
ENCODING 72
SWIDTH 552 0
DWIDTH 43 0
BBX 37 54 2 0
BITMAP
07F80003F8
07F80003F8
07F80003F8
07F80003F8
07F80003F8
07F80003F8
07F80003F8
07F80003F8
07F80003F8
07F80003F8
07F80003F8
07F80003F8
07F80003F8
07F80003F8
07F80003F8
07F80003F8
07F80003F8
07F80003F8
07F80003F8
07F80003F8
07F80003F8
07F80003F8
FFFFFFFFF8
FFFFFFFFF8
FFFFFFFFF8
FFFFFFFFF8
FFFFFFFFF8
FFFFFFFFF8
FFFFFFFFF8
07F80003F8
07F80003F8
07F80003F8
07F80003F8
07F80003F8
07F80003F8
07F80003F8
07F80003F8
07F80003F8
07F80003F8
07F80003F8
07F80003F8
07F80003F8
07F80003F8
07F80003F8
07F80003F8
07F80003F8
07F80003F8
07F80003F8
07F80003F8
07F80003F8
07F80003F8
07F80003F8
07F80003F8
07F80003F8
ENDCHAR
STARTCHAR 0049
ENCODING 73
SWIDTH 180 0
DWIDTH 14 0
BBX 21 62 -3 0
BITMAP
002000
002000
002000
007000
007000
007000
00F800
FFFFF8
7FFFE0
1FFFC0
0FFF80
07FE00
03FE00
03FE00
03FE00
07DE00
078F00
060300
0C0100
000080
000000
000000
000000
000000
000000
000000
000000
000000
000000
01FC00
01FC00
01FC00
01FC00
01FC00
01FC00
01FC00
01FC00
01FC00
01FC00
01FC00
01FC00
01FC00
01FC00
01FC00
01FC00
01FC00
01FC00
01FC00
01FC00
01FC00
01FC00
01FC00
01FC00
01FC00
01FC00
01FC00
01FC00
01FC00
01FC00
01FC00
01FC00
01FC00
ENDCHAR
STARTCHAR 004A
ENCODING 74
SWIDTH 462 0
DWIDTH 36 0
BBX 31 55 1 -1
BITMAP
00003FFE
00003FFE
00003FFE
00003FFE
00003FFE
00003FFE
000000FE
000000FE
000000FE
000000FE
000000FE
000000FE
000000FE
000000FE
000000FE
000000FE
000000FE
000000FE
000000FE
000000FE
000000FE
000000FE
000000FE
000000FE
000000FE
000000FE
000000FE
000000FE
000000FE
000000FE
000000FE
000000FE
000000FE
000000FE
000000FE
000000FE
000000FE
000000FE
000000FE
000000FE
000001FE
020001FE
0E0001FC
1E0003FC
7F0003FC
FF8007FC
7FC00FF8
7FE01FF8
3FFFFFF0
3FFFFFE0
1FFFFFE0
0FFFFFC0
03FFFF00
01FFFE00
003FF000
ENDCHAR
STARTCHAR 004B
ENCODING 75
SWIDTH 527 0
DWIDTH 41 0
BBX 36 54 2 0
BITMAP
07F8003F80
07F8003F80
07F8003F80
07F8003F80
07F8003F80
07F8003F80
07F8003F80
07F8003F80
07F8003F80
07F8003F80
07F8003F80
07F8003F80
07F8007F80
07F8007F80
07F8007F80
07F8007F80
07F8007F00
07F800FF00
07F800FF00
07F801FF00
07F803FE00
07F807FE00
07F81FFC00
FFFFFFF800
FFFFFFF800
FFFFFFF800
FFFFFFFE00
FFFFFFFF00
FFFFFFFF80
FFFFFFFF80
07F800FFC0
07F8007FC0
07F8003FE0
07F8001FE0
07F8000FE0
07F8000FF0
07F8000FF0
07F80007F0
07F80007F0
07F80007F0
07F80007F0
07F80007F0
07F80007F0
07F80007F0
07F80007F0
07F80007F0
07F80007F0
07F80007F0
07F80007F0
07F80007F0
07F80007F0
07F80007F0
07F80007F0
07F80007F0
ENDCHAR
STARTCHAR 004C
ENCODING 76
SWIDTH 437 0
DWIDTH 34 0
BBX 28 54 4 0
BITMAP
FF000000
FF000000
FF000000
FF000000
FF000000
FF000000
FF000000
FF000000
FF000000
FF000000
FF000000
FF000000
FF000000
FF000000
FF000000
FF000000
FF000000
FF000000
FF000000
FF000000
FF000000
FF000000
FF000000
FF000000
FF000000
FF000000
FF000000
FF000000
FF000000
FF000000
FF000000
FF000000
FF000000
FF000000
FF000000
FF000000
FF000000
FF000000
FF000000
FF000000
FF000000
FF000000
FF000000
FF000000
FF000000
FF000000
FF000000
FFFFFFF0
FFFFFFF0
FFFFFFF0
FFFFFFF0
FFFFFFF0
FFFFFFF0
FFFFFFF0
ENDCHAR
STARTCHAR 004D
ENCODING 77
SWIDTH 861 0
DWIDTH 67 0
BBX 62 56 1 0
BITMAP
0800000000000000
1C00000300000000
1F000003C00001FC
3F800003E00001FC
7FC00003F00001FC
FFE00003F80001FC
7FF80003FE0001FC
3FFC0003FF0001FC
0FFE0003FF8001FC
07FF8003FFE001FC
07FFC003FFF001FC
07FFE003FFF801FC
07FFF003FFFC01FC
07FFFC03FFFF01FC
07FFFE03FBFF81FC
07F7FF03F9FFC1FC
07F1FFC3F87FF1FC
07F0FFE3F83FF9FC
07F07FF3F81FFDFC
07F03FFBF80FFFFC
07F00FFFF803FFFC
07F007FFF801FFFC
07F003FFF800FFFC
07F000FFF8007FFC
07F0007FF8001FFC
07F0003FF8000FFC
07F0001FF80007FC
07F00007F80003FC
07F00003F80001FC
07F00003F80001FC
07F00003F80001FC
07F00003F80001FC
07F00003F80001FC
07F00003F80001FC
07F00003F80001FC
07F00003F80001FC
07F00003F80001FC
07F00003F80001FC
07F00003F80001FC
07F00003F80001FC
07F00003F80001FC
07F00003F80001FC
07F00003F80001FC
07F00003F80001FC
07F00003F80001FC
07F00003F80001FC
07F00003F80001FC
07F00003F80001FC
07F00003F80001FC
07F00003F80001FC
07F00003F80001FC
07F00003F80001FC
07F00003F80001FC
07F00003F80001FC
07F00003F80001FC
07F00003F80001FC
ENDCHAR
STARTCHAR 004E
ENCODING 78
SWIDTH 514 0
DWIDTH 40 0
BBX 36 56 1 0
BITMAP
0800000000
1C00000000
1F00000FF0
3F80000FF0
7FC0000FF0
FFF0000FF0
7FF8000FF0
3FFC000FF0
1FFE000FF0
1FFF800FF0
1FFFC00FF0
1FFFE00FF0
1FFFF80FF0
1FFFFC0FF0
1FFFFE0FF0
1FE7FF0FF0
1FE3FFCFF0
1FE1FFEFF0
1FE07FFFF0
1FE03FFFF0
1FE01FFFF0
1FE00FFFF0
1FE003FFF0
1FE001FFF0
1FE000FFF0
1FE0003FF0
1FE0001FF0
1FE0000FF0
1FE0000FF0
1FE0000FF0
1FE0000FF0
1FE0000FF0
1FE0000FF0
1FE0000FF0
1FE0000FF0
1FE0000FF0
1FE0000FF0
1FE0000FF0
1FE0000FF0
1FE0000FF0
1FE0000FF0
1FE0000FF0
1FE0000FF0
1FE0000FF0
1FE0000FF0
1FE0000FF0
1FE0000FF0
1FE0000FF0
1FE0000FF0
1FE0000FF0
1FE0000FF0
1FE0000FF0
1FE0000FF0
1FE0000FF0
1FE0000FF0
1FE0000FF0
ENDCHAR
STARTCHAR 004F
ENCODING 79
SWIDTH 810 0
DWIDTH 63 0
BBX 58 57 3 -1
BITMAP
0000003E00000000
00000FFFF8000000
00007FFFFF000000
0001FFFFFFC00000
0007FFFFFFF00000
000FFFFFFFFC0000
003FFFFFFFFE0000
007FFFC0FFFF0000
00FFF8000FFF8000
01FFE00001FFC000
03FF8000007FE000
07FE0000003FF000
07FC0000001FF800
0FF80000000FFC00
1FF000000007FC00
1FE000000003FE00
3FE000000001FE00
3FC000000001FF00
7F8000000000FF00
7F80000000007F00
7F00000000007F80
FF00000000007F80
FF00000000003F80
FF00000000003F80
FE00000000003FC0
FE00000000003FC0
FE00000000003FC0
FE00000000003FC0
FE00000000003FC0
FE00000000003FC0
FE00000000003FC0
FE00000000003FC0
FE00000000003FC0
FE00000000003FC0
FF00000000003F80
FF00000000007F80
7F00000000007F80
7F80000000007F80
7F8000000000FF00
3FC000000000FF00
3FC000000001FE00
3FE000000001FE00
1FF000000003FC00
0FF000000007FC00
0FFC0000000FF800
07FE0000001FF800
03FF0000007FF000
01FFC00000FFE000
01FFF00003FFC000
00FFFC001FFF8000
003FFFFFFFFF0000
001FFFFFFFFE0000
000FFFFFFFF80000
0003FFFFFFE00000
0000FFFFFF800000
00003FFFFE000000
000003FFE0000000
ENDCHAR
STARTCHAR 0050
ENCODING 80
SWIDTH 552 0
DWIDTH 43 0
BBX 40 54 2 0
BITMAP
0FFFFFF000
0FFFFFFE00
0FFFFFFF80
0FFFFFFFC0
0FFFFFFFE0
0FFFFFFFF0
0FE001FFF8
0FE0001FFC
0FE00007FC
0FE00003FE
0FE00001FE
0FE00000FF
0FE00000FF
0FE000007F
0FE000007F
0FE000007F
0FE000007F
0FE000007F
0FE000007F
0FE00000FF
0FE00000FF
0FE00001FE
0FE00001FE
0FE00003FE
0FE0000FFC
0FE0003FF8
FFFFFFFFF8
FFFFFFFFF0
FFFFFFFFE0
FFFFFFFF80
FFFFFFFF00
FFFFFFFC00
FFFFFFC000
0FE0000000
0FE0000000
0FE0000000
0FE0000000
0FE0000000
0FE0000000
0FE0000000
0FE0000000
0FE0000000
0FE0000000
0FE0000000
0FE0000000
0FE0000000
0FE0000000
0FE0000000
0FE0000000
0FE0000000
0FE0000000
0FE0000000
0FE0000000
0FE0000000
ENDCHAR
STARTCHAR 0051
ENCODING 81
SWIDTH 810 0
DWIDTH 63 0
BBX 58 58 3 -2
BITMAP
0000003E00000000
00000FFFF8000000
00007FFFFF000000
0001FFFFFFC00000
0007FFFFFFF00000
000FFFFFFFFC0000
003FFFFFFFFE0000
007FFFC0FFFF0000
00FFF8000FFF8000
01FFE00001FFC000
03FF8000007FE000
07FE0000003FF000
07FC0000001FF800
0FF80000000FFC00
1FF000000007FC00
1FE000000003FE00
3FE000000001FE00
3FC000000001FF00
7F8000000000FF00
7F80000000007F00
7F00000000007F80
FF00000000007F80
FF00000000003F80
FF00000000003F80
FE00000000003FC0
FE00000000003FC0
FE00000000003FC0
FE00000000003FC0
FE00000000003FC0
FE00000000003FC0
FE00000000003FC0
FE00000000003FC0
FE00000000003FC0
FE00000000003FC0
FF00000000003F80
FF00000000007F80
7F00000000007F80
7F80000000007F80
7F8000000180FF00
3FC0000003C0FF00
3FC0000007E1FE00
3FE000000FF1FE00
1FF000001FFBFC00
0FF000000FFFFC00
0FFC000007FFF800
07FE000003FFF800
03FF000001FFF000
01FFC00000FFE000
01FFF00003FFE000
00FFFC001FFFF000
003FFFFFFFFFF800
001FFFFFFFFFFC00
000FFFFFFFFFFE00
0003FFFFFFE7FC00
0000FFFFFF83F800
00003FFFFE01F000
000003FFE000E000
0000000000004000
ENDCHAR
STARTCHAR 0052
ENCODING 82
SWIDTH 578 0
DWIDTH 45 0
BBX 41 54 2 0
BITMAP
07FFFFF80000
07FFFFFF0000
07FFFFFFC000
07FFFFFFE000
07FFFFFFF000
07FFFFFFF800
07F801FFFC00
07F8000FFE00
07F80003FE00
07F80001FF00
07F80000FF00
07F800007F80
07F800007F80
07F800007F80
07F800003F80
07F800003F80
07F800003F80
07F800003F80
07F800007F80
07F800007F80
07F800007F00
07F80000FF00
07F80001FF00
07F80003FE00
07F8000FFE00
07F800FFFC00
FFFFFFFFF800
FFFFFFFFF000
FFFFFFFFE000
FFFFFFFF8000
FFFFFFFF8000
FFFFFFFFC000
07F807FFE000
07F8007FE000
07F8001FF000
07F8000FF000
07F80007F800
07F80007F800
07F80003FC00
07F80003FC00
07F80001FC00
07F80001FC00
07F80001FC00
07F80001FE00
07F80001FE00
07F80001FE00
07F80001FE00
07F80001FE00
07F80001FE00
07F80001FE00
07F80001FE00
07F80001FE00
07F80001FE00
07F80001FE00
ENDCHAR
STARTCHAR 0053
ENCODING 83
SWIDTH 488 0
DWIDTH 38 0
BBX 34 57 2 -1
BITMAP
0003E00000
001FFF0000
007FFFC000
01FFFFE000
03FFFFF000
07FFFFF800
07FFFFFC00
0FFF1FFE00
0FF803FE00
1FF001FF00
1FE000FF00
1FE0007F00
1FC0007F80
1FC0007F80
1FC0003E00
1FC0002000
1FE0000000
1FE0000000
1FF0000000
0FF8000000
0FFC000000
07FE000000
03FF800000
01FFE00000
00FFF00000
007FFC0000
003FFF0000
000FFF8000
0007FFE000
0001FFF000
00007FF800
00003FFC00
00000FFE00
000007FF00
000001FF00
000000FF80
0000007F80
0000007FC0
0000003FC0
0000003FC0
0000001FC0
0E00001FC0
FF00001FC0
FF00001FC0
7F80003FC0
7F80003FC0
7FC0007FC0
3FE0007F80
3FF001FF80
1FFC03FF00
0FFFFFFF00
0FFFFFFE00
07FFFFFC00
01FFFFF800
00FFFFF000
003FFFC000
000FFE0000
ENDCHAR
STARTCHAR 0054
ENCODING 84
SWIDTH 501 0
DWIDTH 39 0
BBX 35 54 2 0
BITMAP
FFFFFFFFE0
FFFFFFFFE0
FFFFFFFFE0
FFFFFFFFE0
FFFFFFFFE0
FFFFFFFFE0
0003F80000
0003F80000
0003F80000
0003F80000
0003F80000
0003F80000
0003F80000
0003F80000
0003F80000
0003F80000
0003F80000
0003F80000
0003F80000
0003F80000
0003F80000
0003F80000
0003F80000
0003F80000
0003F80000
0003F80000
0003F80000
0003F80000
0003F80000
0003F80000
0003F80000
0003F80000
0003F80000
0003F80000
0003F80000
0003F80000
0003F80000
0003F80000
0003F80000
0003F80000
0003F80000
0003F80000
0003F80000
0003F80000
0003F80000
0003F80000
0003F80000
0003F80000
0003F80000
0003F80000
0003F80000
0003F80000
0003F80000
0003F80000
ENDCHAR
STARTCHAR 0055
ENCODING 85
SWIDTH 501 0
DWIDTH 39 0
BBX 33 55 3 -1
BITMAP
FF00003F80
FF00003F80
FF00003F80
FF00003F80
FF00003F80
FF00003F80
FF00003F80
FF00003F80
FF00003F80
FF00003F80
FF00003F80
FF00003F80
FF00003F80
FF00003F80
FF00003F80
FF00003F80
FF00003F80
FF00003F80
FF00003F80
FF00003F80
FF00003F80
FF00003F80
FF00003F80
FF00003F80
FF00003F80
FF00003F80
FF00003F80
FF00003F80
FF00003F80
FF00003F80
FF00003F80
FF00003F80
FF00003F80
FF00003F80
FF00003F80
FF00003F80
FF00003F80
FF00003F80
FF00003F80
FF00003F80
7F00007F80
7F00007F80
7F80007F80
7F8000FF00
3FC000FF00
3FC001FF00
3FE003FE00
1FF807FE00
0FFFFFFC00
0FFFFFF800
07FFFFF000
03FFFFE000
00FFFFC000
007FFF0000
000FFC0000
ENDCHAR
STARTCHAR 0056
ENCODING 86
SWIDTH 462 0
DWIDTH 36 0
BBX 32 54 1 0
BITMAP
FE0000FF
FE0000FF
FE0000FF
FE0000FF
FE0000FF
FE0000FF
FE0000FF
FE0000FF
FE0000FF
FE0000FF
FE0000FF
FE0000FF
FE0000FF
FE0000FF
FE0000FF
FE0000FF
FE0000FF
FE0000FF
FE0000FF
FE0000FF
FE0000FF
FE0000FF
FE0000FF
FE0000FF
FE0000FF
FE0000FE
FE0000FE
FE0000FE
FE0000FE
FF0000FE
FF0000FE
FF0000FE
FF0001FE
7F0001FE
7F0001FE
7F0001FC
7F8001FC
7F8003FC
3F8003FC
3FC003F8
3FC007F8
1FC007F8
1FE00FF0
1FE00FF0
0FF01FE0
0FF81FE0
07F83FC0
03FC7FC0
03FE7F80
01FFFF00
00FFFE00
007FFC00
003FF800
001FF000
ENDCHAR
STARTCHAR 0057
ENCODING 87
SWIDTH 771 0
DWIDTH 60 0
BBX 56 54 1 0
BITMAP
FE0000FF00007F
FE0000FF00007F
FE0000FF00007F
FE0000FF00007F
FE0000FF00007F
FE0000FF00007F
FE0000FF00007F
FE0000FF00007F
FE0000FF00007F
FE0000FF00007F
FE0000FF00007F
FE0000FF00007F
FE0000FF00007F
FE0000FF00007F
FE0000FF00007F
FE0000FF00007F
FE0000FF00007F
FE0000FF00007F
FE0000FF00007F
FE0000FF00007F
FE0000FF00007F
FE0000FF00007F
FE0000FF00007F
FE0000FF00007F
FE0000FF00007F
FE0000FF00007F
FE0000FF0000FF
FE0000FF0000FF
FE0000FF0000FF
FF0000FF0000FF
FF0000FF0000FF
FF0000FF0000FE
FF0001FF0000FE
7F0001FF0000FE
7F0001FF8001FE
7F0001FF8001FE
7F8001FF8001FE
7F8003FF8001FC
3F8003FFC003FC
3FC003FFC003FC
3FC007FFC003F8
1FC007FFE007F8
1FE00FFFE007F8
1FE00FFFF00FF0
0FF01FEFF00FF0
0FF81FE7F81FE0
07F83FC3FC3FE0
03FC7FC3FC3FC0
03FE7F81FE7F80
01FFFF00FFFF80
00FFFE00FFFF00
007FFC007FFE00
003FF8003FFC00
001FF0001FF800
ENDCHAR
STARTCHAR 0058
ENCODING 88
SWIDTH 514 0
DWIDTH 40 0
BBX 33 54 4 0
BITMAP
FE00007F80
FE00007F80
FE00007F80
FE00007F80
FE00007F80
FE00007F80
FE00007F80
FE00007F80
FE00007F80
FE00007F80
FE00007F80
FE00007F00
FF00007F00
FF00007F00
FF0000FF00
7F8000FF00
7F8001FE00
7FC003FE00
3FE007FC00
1FF81FFC00
1FFFFFF800
0FFFFFF000
07FFFFE000
03FFFFE000
07FFFFF000
0FFFFFF800
1FFFFFF800
3FF80FFC00
3FE003FE00
7FC001FE00
7F8001FE00
7F0000FF00
FF0000FF00
FF00007F00
FE00007F00
FE00007F00
FE00007F80
FE00007F80
FE00007F80
FE00007F80
FE00007F80
FE00007F80
FE00007F80
FE00007F80
FE00007F80
FE00007F80
FE00007F80
FE00007F80
FE00007F80
FE00007F80
FE00007F80
FE00007F80
FE00007F80
FE00007F80
ENDCHAR
STARTCHAR 0059
ENCODING 89
SWIDTH 488 0
DWIDTH 38 0
BBX 33 54 3 0
BITMAP
FE00007F80
FE00007F80
FE00007F80
FE00007F80
FE00007F80
FE00007F80
FE00007F80
FE00007F80
FE00007F80
FE00007F80
FE00007F80
FE00007F80
FE00007F80
FE00007F80
FE00007F80
FE00007F80
FE00007F80
FE00007F80
FE00007F80
FE00007F80
FE00007F80
FE00007F80
FE00007F80
FE00007F80
FE00007F80
FF00007F80
FF00007F80
FF00007F00
7F00007F00
7F8000FF00
7F8000FF00
3FC001FE00
3FE003FE00
3FF00FFC00
1FFFFFFC00
0FFFFFF800
07FFFFF000
03FFFFE000
01FFFFC000
007FFF0000
001FFC0000
0007F00000
0007F00000
0007F00000
0007F00000
0007F00000
0007F00000
0007F00000
0007F00000
0007F00000
0007F00000
0007F00000
0007F00000
0007F00000
ENDCHAR
STARTCHAR 005A
ENCODING 90
SWIDTH 501 0
DWIDTH 39 0
BBX 36 54 2 0
BITMAP
FFFFFFFFF0
FFFFFFFFF0
FFFFFFFFF0
FFFFFFFFE0
FFFFFFFFE0
FFFFFFFFC0
0000003FC0
0000007F80
000000FF00
000000FF00
000001FE00
000001FE00
000003FC00
000007F800
000007F800
00000FF000
00000FF000
00001FE000
00003FC000
00003FC000
00007F8000
00007F8000
0000FF0000
0001FE0000
0001FE0000
0003FC0000
0003FC0000
0007F80000
000FF80000
000FF00000
001FE00000
001FE00000
003FC00000
007FC00000
007F800000
00FF000000
00FF000000
01FE000000
03FE000000
03FC000000
07F8000000
07F8000000
0FF0000000
1FF0000000
1FE0000000
3FC0000000
3FC0000000
7FFFFFFFC0
FFFFFFFFC0
FFFFFFFFC0
FFFFFFFFC0
FFFFFFFFC0
FFFFFFFFC0
FFFFFFFFC0
ENDCHAR
STARTCHAR 005B
ENCODING 91
SWIDTH 231 0
DWIDTH 18 0
BBX 10 74 4 -11
BITMAP
FFC0
FFC0
FFC0
FFC0
F800
F800
F800
F800
F800
F800
F800
F800
F800
F800
F800
F800
F800
F800
F800
F800
F800
F800
F800
F800
F800
F800
F800
F800
F800
F800
F800
F800
F800
F800
F800
F800
F800
F800
F800
F800
F800
F800
F800
F800
F800
F800
F800
F800
F800
F800
F800
F800
F800
F800
F800
F800
F800
F800
F800
F800
F800
F800
F800
F800
F800
F800
F800
F800
F800
FFC0
FFC0
FFC0
FFC0
FFC0
ENDCHAR
STARTCHAR 005C
ENCODING 92
SWIDTH 385 0
DWIDTH 30 0
BBX 22 57 4 -1
BITMAP
FC0000
FE0000
7E0000
7E0000
7E0000
3F0000
3F0000
3F0000
3F8000
1F8000
1F8000
1F8000
0FC000
0FC000
0FC000
0FE000
07E000
07E000
07E000
03F000
03F000
03F000
03F800
01F800
01F800
01F800
00FC00
00FC00
00FC00
007E00
007E00
007E00
007E00
003F00
003F00
003F00
001F80
001F80
001F80
001F80
000FC0
000FC0
000FC0
0007E0
0007E0
0007E0
0007E0
0003F0
0003F0
0003F0
0001F8
0001F8
0001F8
0001F8
0000FC
0000FC
0000FC
ENDCHAR
STARTCHAR 005D
ENCODING 93
SWIDTH 231 0
DWIDTH 18 0
BBX 10 74 4 -11
BITMAP
FFC0
FFC0
FFC0
FFC0
07C0
07C0
07C0
07C0
07C0
07C0
07C0
07C0
07C0
07C0
07C0
07C0
07C0
07C0
07C0
07C0
07C0
07C0
07C0
07C0
07C0
07C0
07C0
07C0
07C0
07C0
07C0
07C0
07C0
07C0
07C0
07C0
07C0
07C0
07C0
07C0
07C0
07C0
07C0
07C0
07C0
07C0
07C0
07C0
07C0
07C0
07C0
07C0
07C0
07C0
07C0
07C0
07C0
07C0
07C0
07C0
07C0
07C0
07C0
07C0
07C0
07C0
07C0
07C0
07C0
FFC0
FFC0
FFC0
FFC0
FFC0
ENDCHAR
STARTCHAR 005E
ENCODING 94
SWIDTH 475 0
DWIDTH 37 0
BBX 29 20 4 27
BITMAP
001FE000
003FE000
003FF000
007FF000
007FF800
00FDF800
00F8FC00
01F8FE00
03F07E00
03F07F00
07E03F00
07E01F80
0FC01F80
0FC00FC0
1F800FC0
3F8007E0
3F0003F0
7E0003F0
7E0001F8
FC0001F8
ENDCHAR
STARTCHAR 005F
ENCODING 95
SWIDTH 527 0
DWIDTH 41 0
BBX 33 5 4 -8
BITMAP
FFFFFFFF80
FFFFFFFF80
FFFFFFFF80
FFFFFFFF80
FFFFFFFF80
ENDCHAR
STARTCHAR 0060
ENCODING 96
SWIDTH 154 0
DWIDTH 12 0
BBX 12 10 0 59
BITMAP
FE00
7E00
3F00
1F00
1F80
0FC0
07C0
03E0
03E0
01F0
ENDCHAR
STARTCHAR 0061
ENCODING 97
SWIDTH 552 0
DWIDTH 43 0
BBX 38 56 4 0
BITMAP
0003C00000
003FFC0000
00FFFF8000
03FFFFC000
07FFFFE000
0FFFFFF000
0FFFFFF800
1FFC1FFC00
3FF007FC00
3FC003FE00
7FC001FE00
7F8000FF00
7F0000FF00
FF00007F00
FF00007F00
FF00007F80
FE00007F80
FE00007F80
FE00007F80
FE00007F80
FE00007F80
FE00007F80
FE00007F80
FE00007F80
FE00007F80
FE00007F80
FE00007F80
FE00007F80
FE00007F80
FE00007F80
FE00007F80
FE00007F80
FE00007F80
FE00007F80
FE00007F80
FE00007F80
FE00007F80
FE00007F80
FE00007F80
FE00007F80
FE00007F80
FE00007F80
FE00007F80
FE00007F80
FE00007F80
FE00007F80
FE00007F80
FE00007F80
FE00007F80
FFFFFFFFFC
FFFFFFFFFC
FFFFFFFFFC
FFFFFFFFFC
FFFFFFFFFC
FFFFFFFFFC
FFFFFFFFFC
ENDCHAR
STARTCHAR 0062
ENCODING 98
SWIDTH 604 0
DWIDTH 47 0
BBX 42 54 3 0
BITMAP
07FFFFFC0000
07FFFFFF0000
07FFFFFFC000
07FFFFFFF000
07FFFFFFF800
07FFFFFFFC00
07F000FFFC00
07F00007FE00
07F00003FE00
07F00001FF00
07F00000FF00
07F00000FF00
07F000007F00
07F000007F00
07F000007F00
07F000007F00
07F000007F00
07F000007F00
07F00000FF00
07F00000FF00
07F00001FE00
07F00007FE00
07F0001FFC00
FFFFFFFFF800
FFFFFFFFF800
FFFFFFFFE000
FFFFFFFFF000
FFFFFFFFF800
FFFFFFFFFC00
FFFFFFFFFE00
07F00007FF00
07F00001FF00
07F00000FF80
07F000007F80
07F000003F80
07F000003FC0
07F000003FC0
07F000003FC0
07F000003FC0
07F000003FC0
07F000003FC0
07F000003FC0
07F000007F80
07F000007F80
07F00000FF80
07F00001FF00
07F0000FFF00
07FFFFFFFE00
07FFFFFFFC00
07FFFFFFF800
07FFFFFFF000
07FFFFFFE000
07FFFFFF8000
07FFFFF80000
ENDCHAR
STARTCHAR 0063
ENCODING 99
SWIDTH 681 0
DWIDTH 53 0
BBX 49 57 3 -1
BITMAP
0000003C000000
00000FFFF00000
00007FFFFE0000
0001FFFFFF8000
0007FFFFFFE000
001FFFFFFFF800
003FFFFFFFFC00
007FFFC1FFFE00
00FFF8001FFF00
01FFE00003FF80
03FF800001FF80
07FE0000007F00
0FFC0000003E00
0FF80000001C00
1FF00000000000
1FE00000000000
3FE00000000000
3FC00000000000
7F800000000000
7F800000000000
7F000000000000
FF000000000000
FF000000000000
FF000000000000
FE000000000000
FE000000000000
FE000000000000
FE000000000000
FE000000000000
FE000000000000
FE000000000000
FE000000000000
FE000000000000
FE000000000000
FF000000000000
FF000000000000
7F000000000000
7F800000000000
7F800000000000
3FC00000000000
3FC00000000000
3FE00000000000
1FF00000000000
1FF00000001800
0FF80000003C00
07FE0000007E00
03FF000000FF00
03FF800003FF80
01FFE00007FF00
00FFFC003FFE00
003FFFFFFFFC00
001FFFFFFFF800
000FFFFFFFF000
0003FFFFFFC000
0000FFFFFF0000
00003FFFFC0000
000003FFE00000
ENDCHAR
STARTCHAR 0064
ENCODING 100
SWIDTH 642 0
DWIDTH 50 0
BBX 44 54 4 0
BITMAP
FFFFFE000000
FFFFFFE00000
FFFFFFF80000
FFFFFFFE0000
FFFFFFFF8000
FFFFFFFFC000
FF01FFFFF000
FF0001FFF800
FF00003FFC00
FF00000FFC00
FF000007FE00
FF000003FF00
FF000001FF00
FF000000FF80
FF0000007F80
FF0000003FC0
FF0000003FC0
FF0000001FE0
FF0000001FE0
FF0000000FE0
FF0000000FE0
FF0000000FF0
FF0000000FF0
FF0000000FF0
FF0000000FF0
FF00000007F0
FF00000007F0
FF00000007F0
FF00000007F0
FF0000000FF0
FF0000000FF0
FF0000000FF0
FF0000000FE0
FF0000000FE0
FF0000001FE0
FF0000001FE0
FF0000001FE0
FF0000003FC0
FF0000007FC0
FF0000007F80
FF000000FF80
FF000001FF00
FF000003FF00
FF00000FFE00
FF00001FFC00
FF0000FFF800
FF0007FFF000
FFFFFFFFE000
FFFFFFFFC000
FFFFFFFF0000
FFFFFFFE0000
FFFFFFF00000
FFFFFFC00000
FFFFF8000000
ENDCHAR
STARTCHAR 0065
ENCODING 101
SWIDTH 488 0
DWIDTH 38 0
BBX 36 54 2 0
BITMAP
07FFFFE000
07FFFFE000
07FFFFE000
07FFFFE000
07FFFFE000
07FFFFE000
07F8000000
07F8000000
07F8000000
07F8000000
07F8000000
07F8000000
07F8000000
07F8000000
07F8000000
07F8000000
07F8000000
07F8000000
07F8000000
07F8000000
07F8000000
07F8000000
07F8000000
FFFFFFFE00
FFFFFFFE00
FFFFFFFE00
FFFFFFFE00
FFFFFFFE00
FFFFFFFE00
FFFFFFFE00
07F8000000
07F8000000
07F8000000
07F8000000
07F8000000
07F8000000
07F8000000
07F8000000
07F8000000
07F8000000
07F8000000
07F8000000
07F8000000
07F8000000
07F8000000
07F8000000
07F8000000
07FFFFFFF0
07FFFFFFF0
07FFFFFFF0
07FFFFFFF0
07FFFFFFF0
07FFFFFFF0
07FFFFFFF0
ENDCHAR
STARTCHAR 0066
ENCODING 102
SWIDTH 450 0
DWIDTH 35 0
BBX 34 54 2 0
BITMAP
03FFFFFFC0
03FFFFFFC0
03FFFFFFC0
03FFFFFFC0
03FFFFFFC0
03FFFFFFC0
03FC000000
03FC000000
03FC000000
03FC000000
03FC000000
03FC000000
03FC000000
03FC000000
03FC000000
03FC000000
03FC000000
03FC000000
03FC000000
03FC000000
03FC000000
03FC000000
03FC000000
03FC000000
03FC000000
FFFFFFFF00
FFFFFFFF00
FFFFFFFF00
FFFFFFFF00
FFFFFFFF00
FFFFFFFF00
03FC000000
03FC000000
03FC000000
03FC000000
03FC000000
03FC000000
03FC000000
03FC000000
03FC000000
03FC000000
03FC000000
03FC000000
03FC000000
03FC000000
03FC000000
03FC000000
03FC000000
03FC000000
03FC000000
03FC000000
03FC000000
03FC000000
03FC000000
ENDCHAR
STARTCHAR 0067
ENCODING 103
SWIDTH 822 0
DWIDTH 64 0
BBX 61 57 3 -1
BITMAP
0000003E00000000
00000FFFF8000000
00007FFFFF000000
0001FFFFFFC00000
0007FFFFFFE00000
000FFFFFFFF80000
003FFFFFFFFC0000
007FFFC0FFFE0000
00FFF8000FFF0000
01FFE00003FF8000
03FF800000FF8000
07FE0000007F0000
07FC0000003E0000
0FF80000001C0000
1FF0000000080000
1FE0000000000000
3FE0000000000000
3FC0000000000000
7F80000000000000
7F80000000000000
7F00000000000000
FF00000000000000
FF00000000000000
FF00000000000000
FE00000000000000
FE00001FFFFFFFF8
FE00001FFFFFFFF8
FE00001FFFFFFFF8
FE00001FFFFFFFF8
FE00001FFFFFFFF8
FE00001FFFFFFFF8
FE00001FFFFFFFF8
FE00000000007F00
FE0000000000FF00
FF0000000000FF00
FF0000000000FF00
7F0000000000FF00
7F8000000001FE00
7F8000000001FE00
3FC000000001FE00
3FC000000003FC00
3FE000000007FC00
1FF000000007F800
0FF00000000FF800
0FFC0000001FF000
07FE0000003FF000
03FF0000007FE000
01FFC00001FFC000
01FFF00007FF8000
00FFFC003FFF0000
003FFFFFFFFE0000
001FFFFFFFFC0000
000FFFFFFFF00000
0003FFFFFFE00000
0000FFFFFF800000
00003FFFFE000000
000003FFE0000000
ENDCHAR
STARTCHAR 0068
ENCODING 104
SWIDTH 552 0
DWIDTH 43 0
BBX 37 54 2 0
BITMAP
07F80003F8
07F80003F8
07F80003F8
07F80003F8
07F80003F8
07F80003F8
07F80003F8
07F80003F8
07F80003F8
07F80003F8
07F80003F8
07F80003F8
07F80003F8
07F80003F8
07F80003F8
07F80003F8
07F80003F8
07F80003F8
07F80003F8
07F80003F8
07F80003F8
07F80003F8
FFFFFFFFF8
FFFFFFFFF8
FFFFFFFFF8
FFFFFFFFF8
FFFFFFFFF8
FFFFFFFFF8
FFFFFFFFF8
07F80003F8
07F80003F8
07F80003F8
07F80003F8
07F80003F8
07F80003F8
07F80003F8
07F80003F8
07F80003F8
07F80003F8
07F80003F8
07F80003F8
07F80003F8
07F80003F8
07F80003F8
07F80003F8
07F80003F8
07F80003F8
07F80003F8
07F80003F8
07F80003F8
07F80003F8
07F80003F8
07F80003F8
07F80003F8
ENDCHAR
STARTCHAR 0069
ENCODING 105
SWIDTH 180 0
DWIDTH 14 0
BBX 21 62 -3 0
BITMAP
002000
002000
002000
007000
007000
007000
00F800
FFFFF8
7FFFE0
1FFFC0
0FFF80
07FE00
03FE00
03FE00
03FE00
07DE00
078F00
060300
0C0100
000080
000000
000000
000000
000000
000000
000000
000000
000000
000000
01FC00
01FC00
01FC00
01FC00
01FC00
01FC00
01FC00
01FC00
01FC00
01FC00
01FC00
01FC00
01FC00
01FC00
01FC00
01FC00
01FC00
01FC00
01FC00
01FC00
01FC00
01FC00
01FC00
01FC00
01FC00
01FC00
01FC00
01FC00
01FC00
01FC00
01FC00
01FC00
01FC00
ENDCHAR
STARTCHAR 006A
ENCODING 106
SWIDTH 462 0
DWIDTH 36 0
BBX 31 55 1 -1
BITMAP
00003FFE
00003FFE
00003FFE
00003FFE
00003FFE
00003FFE
000000FE
000000FE
000000FE
000000FE
000000FE
000000FE
000000FE
000000FE
000000FE
000000FE
000000FE
000000FE
000000FE
000000FE
000000FE
000000FE
000000FE
000000FE
000000FE
000000FE
000000FE
000000FE
000000FE
000000FE
000000FE
000000FE
000000FE
000000FE
000000FE
000000FE
000000FE
000000FE
000000FE
000000FE
000001FE
020001FE
0E0001FC
1E0003FC
7F0003FC
FF8007FC
7FC00FF8
7FE01FF8
3FFFFFF0
3FFFFFE0
1FFFFFE0
0FFFFFC0
03FFFF00
01FFFE00
003FF000
ENDCHAR
STARTCHAR 006B
ENCODING 107
SWIDTH 527 0
DWIDTH 41 0
BBX 36 54 2 0
BITMAP
07F8003F80
07F8003F80
07F8003F80
07F8003F80
07F8003F80
07F8003F80
07F8003F80
07F8003F80
07F8003F80
07F8003F80
07F8003F80
07F8003F80
07F8007F80
07F8007F80
07F8007F80
07F8007F80
07F8007F00
07F800FF00
07F800FF00
07F801FF00
07F803FE00
07F807FE00
07F81FFC00
FFFFFFF800
FFFFFFF800
FFFFFFF800
FFFFFFFE00
FFFFFFFF00
FFFFFFFF80
FFFFFFFF80
07F800FFC0
07F8007FC0
07F8003FE0
07F8001FE0
07F8000FE0
07F8000FF0
07F8000FF0
07F80007F0
07F80007F0
07F80007F0
07F80007F0
07F80007F0
07F80007F0
07F80007F0
07F80007F0
07F80007F0
07F80007F0
07F80007F0
07F80007F0
07F80007F0
07F80007F0
07F80007F0
07F80007F0
07F80007F0
ENDCHAR
STARTCHAR 006C
ENCODING 108
SWIDTH 437 0
DWIDTH 34 0
BBX 28 54 4 0
BITMAP
FF000000
FF000000
FF000000
FF000000
FF000000
FF000000
FF000000
FF000000
FF000000
FF000000
FF000000
FF000000
FF000000
FF000000
FF000000
FF000000
FF000000
FF000000
FF000000
FF000000
FF000000
FF000000
FF000000
FF000000
FF000000
FF000000
FF000000
FF000000
FF000000
FF000000
FF000000
FF000000
FF000000
FF000000
FF000000
FF000000
FF000000
FF000000
FF000000
FF000000
FF000000
FF000000
FF000000
FF000000
FF000000
FF000000
FF000000
FFFFFFF0
FFFFFFF0
FFFFFFF0
FFFFFFF0
FFFFFFF0
FFFFFFF0
FFFFFFF0
ENDCHAR
STARTCHAR 006D
ENCODING 109
SWIDTH 861 0
DWIDTH 67 0
BBX 62 56 1 0
BITMAP
0800000000000000
1C00000300000000
1F000003C00001FC
3F800003E00001FC
7FC00003F00001FC
FFE00003F80001FC
7FF80003FE0001FC
3FFC0003FF0001FC
0FFE0003FF8001FC
07FF8003FFE001FC
07FFC003FFF001FC
07FFE003FFF801FC
07FFF003FFFC01FC
07FFFC03FFFF01FC
07FFFE03FBFF81FC
07F7FF03F9FFC1FC
07F1FFC3F87FF1FC
07F0FFE3F83FF9FC
07F07FF3F81FFDFC
07F03FFBF80FFFFC
07F00FFFF803FFFC
07F007FFF801FFFC
07F003FFF800FFFC
07F000FFF8007FFC
07F0007FF8001FFC
07F0003FF8000FFC
07F0001FF80007FC
07F00007F80003FC
07F00003F80001FC
07F00003F80001FC
07F00003F80001FC
07F00003F80001FC
07F00003F80001FC
07F00003F80001FC
07F00003F80001FC
07F00003F80001FC
07F00003F80001FC
07F00003F80001FC
07F00003F80001FC
07F00003F80001FC
07F00003F80001FC
07F00003F80001FC
07F00003F80001FC
07F00003F80001FC
07F00003F80001FC
07F00003F80001FC
07F00003F80001FC
07F00003F80001FC
07F00003F80001FC
07F00003F80001FC
07F00003F80001FC
07F00003F80001FC
07F00003F80001FC
07F00003F80001FC
07F00003F80001FC
07F00003F80001FC
ENDCHAR
STARTCHAR 006E
ENCODING 110
SWIDTH 514 0
DWIDTH 40 0
BBX 36 56 1 0
BITMAP
0800000000
1C00000000
1F00000FF0
3F80000FF0
7FC0000FF0
FFF0000FF0
7FF8000FF0
3FFC000FF0
1FFE000FF0
1FFF800FF0
1FFFC00FF0
1FFFE00FF0
1FFFF80FF0
1FFFFC0FF0
1FFFFE0FF0
1FE7FF0FF0
1FE3FFCFF0
1FE1FFEFF0
1FE07FFFF0
1FE03FFFF0
1FE01FFFF0
1FE00FFFF0
1FE003FFF0
1FE001FFF0
1FE000FFF0
1FE0003FF0
1FE0001FF0
1FE0000FF0
1FE0000FF0
1FE0000FF0
1FE0000FF0
1FE0000FF0
1FE0000FF0
1FE0000FF0
1FE0000FF0
1FE0000FF0
1FE0000FF0
1FE0000FF0
1FE0000FF0
1FE0000FF0
1FE0000FF0
1FE0000FF0
1FE0000FF0
1FE0000FF0
1FE0000FF0
1FE0000FF0
1FE0000FF0
1FE0000FF0
1FE0000FF0
1FE0000FF0
1FE0000FF0
1FE0000FF0
1FE0000FF0
1FE0000FF0
1FE0000FF0
1FE0000FF0
ENDCHAR
STARTCHAR 006F
ENCODING 111
SWIDTH 810 0
DWIDTH 63 0
BBX 58 57 3 -1
BITMAP
0000003E00000000
00000FFFF8000000
00007FFFFF000000
0001FFFFFFC00000
0007FFFFFFF00000
000FFFFFFFFC0000
003FFFFFFFFE0000
007FFFC0FFFF0000
00FFF8000FFF8000
01FFE00001FFC000
03FF8000007FE000
07FE0000003FF000
07FC0000001FF800
0FF80000000FFC00
1FF000000007FC00
1FE000000003FE00
3FE000000001FE00
3FC000000001FF00
7F8000000000FF00
7F80000000007F00
7F00000000007F80
FF00000000007F80
FF00000000003F80
FF00000000003F80
FE00000000003FC0
FE00000000003FC0
FE00000000003FC0
FE00000000003FC0
FE00000000003FC0
FE00000000003FC0
FE00000000003FC0
FE00000000003FC0
FE00000000003FC0
FE00000000003FC0
FF00000000003F80
FF00000000007F80
7F00000000007F80
7F80000000007F80
7F8000000000FF00
3FC000000000FF00
3FC000000001FE00
3FE000000001FE00
1FF000000003FC00
0FF000000007FC00
0FFC0000000FF800
07FE0000001FF800
03FF0000007FF000
01FFC00000FFE000
01FFF00003FFC000
00FFFC001FFF8000
003FFFFFFFFF0000
001FFFFFFFFE0000
000FFFFFFFF80000
0003FFFFFFE00000
0000FFFFFF800000
00003FFFFE000000
000003FFE0000000
ENDCHAR
STARTCHAR 0070
ENCODING 112
SWIDTH 552 0
DWIDTH 43 0
BBX 40 54 2 0
BITMAP
0FFFFFF000
0FFFFFFE00
0FFFFFFF80
0FFFFFFFC0
0FFFFFFFE0
0FFFFFFFF0
0FE001FFF8
0FE0001FFC
0FE00007FC
0FE00003FE
0FE00001FE
0FE00000FF
0FE00000FF
0FE000007F
0FE000007F
0FE000007F
0FE000007F
0FE000007F
0FE000007F
0FE00000FF
0FE00000FF
0FE00001FE
0FE00001FE
0FE00003FE
0FE0000FFC
0FE0003FF8
FFFFFFFFF8
FFFFFFFFF0
FFFFFFFFE0
FFFFFFFF80
FFFFFFFF00
FFFFFFFC00
FFFFFFC000
0FE0000000
0FE0000000
0FE0000000
0FE0000000
0FE0000000
0FE0000000
0FE0000000
0FE0000000
0FE0000000
0FE0000000
0FE0000000
0FE0000000
0FE0000000
0FE0000000
0FE0000000
0FE0000000
0FE0000000
0FE0000000
0FE0000000
0FE0000000
0FE0000000
ENDCHAR
STARTCHAR 0071
ENCODING 113
SWIDTH 810 0
DWIDTH 63 0
BBX 58 58 3 -2
BITMAP
0000003E00000000
00000FFFF8000000
00007FFFFF000000
0001FFFFFFC00000
0007FFFFFFF00000
000FFFFFFFFC0000
003FFFFFFFFE0000
007FFFC0FFFF0000
00FFF8000FFF8000
01FFE00001FFC000
03FF8000007FE000
07FE0000003FF000
07FC0000001FF800
0FF80000000FFC00
1FF000000007FC00
1FE000000003FE00
3FE000000001FE00
3FC000000001FF00
7F8000000000FF00
7F80000000007F00
7F00000000007F80
FF00000000007F80
FF00000000003F80
FF00000000003F80
FE00000000003FC0
FE00000000003FC0
FE00000000003FC0
FE00000000003FC0
FE00000000003FC0
FE00000000003FC0
FE00000000003FC0
FE00000000003FC0
FE00000000003FC0
FE00000000003FC0
FF00000000003F80
FF00000000007F80
7F00000000007F80
7F80000000007F80
7F8000000180FF00
3FC0000003C0FF00
3FC0000007E1FE00
3FE000000FF1FE00
1FF000001FFBFC00
0FF000000FFFFC00
0FFC000007FFF800
07FE000003FFF800
03FF000001FFF000
01FFC00000FFE000
01FFF00003FFE000
00FFFC001FFFF000
003FFFFFFFFFF800
001FFFFFFFFFFC00
000FFFFFFFFFFE00
0003FFFFFFE7FC00
0000FFFFFF83F800
00003FFFFE01F000
000003FFE000E000
0000000000004000
ENDCHAR
STARTCHAR 0072
ENCODING 114
SWIDTH 578 0
DWIDTH 45 0
BBX 41 54 2 0
BITMAP
07FFFFF80000
07FFFFFF0000
07FFFFFFC000
07FFFFFFE000
07FFFFFFF000
07FFFFFFF800
07F801FFFC00
07F8000FFE00
07F80003FE00
07F80001FF00
07F80000FF00
07F800007F80
07F800007F80
07F800007F80
07F800003F80
07F800003F80
07F800003F80
07F800003F80
07F800007F80
07F800007F80
07F800007F00
07F80000FF00
07F80001FF00
07F80003FE00
07F8000FFE00
07F800FFFC00
FFFFFFFFF800
FFFFFFFFF000
FFFFFFFFE000
FFFFFFFF8000
FFFFFFFF8000
FFFFFFFFC000
07F807FFE000
07F8007FE000
07F8001FF000
07F8000FF000
07F80007F800
07F80007F800
07F80003FC00
07F80003FC00
07F80001FC00
07F80001FC00
07F80001FC00
07F80001FE00
07F80001FE00
07F80001FE00
07F80001FE00
07F80001FE00
07F80001FE00
07F80001FE00
07F80001FE00
07F80001FE00
07F80001FE00
07F80001FE00
ENDCHAR
STARTCHAR 0073
ENCODING 115
SWIDTH 488 0
DWIDTH 38 0
BBX 34 57 2 -1
BITMAP
0003E00000
001FFF0000
007FFFC000
01FFFFE000
03FFFFF000
07FFFFF800
07FFFFFC00
0FFF1FFE00
0FF803FE00
1FF001FF00
1FE000FF00
1FE0007F00
1FC0007F80
1FC0007F80
1FC0003E00
1FC0002000
1FE0000000
1FE0000000
1FF0000000
0FF8000000
0FFC000000
07FE000000
03FF800000
01FFE00000
00FFF00000
007FFC0000
003FFF0000
000FFF8000
0007FFE000
0001FFF000
00007FF800
00003FFC00
00000FFE00
000007FF00
000001FF00
000000FF80
0000007F80
0000007FC0
0000003FC0
0000003FC0
0000001FC0
0E00001FC0
FF00001FC0
FF00001FC0
7F80003FC0
7F80003FC0
7FC0007FC0
3FE0007F80
3FF001FF80
1FFC03FF00
0FFFFFFF00
0FFFFFFE00
07FFFFFC00
01FFFFF800
00FFFFF000
003FFFC000
000FFE0000
ENDCHAR
STARTCHAR 0074
ENCODING 116
SWIDTH 501 0
DWIDTH 39 0
BBX 35 54 2 0
BITMAP
FFFFFFFFE0
FFFFFFFFE0
FFFFFFFFE0
FFFFFFFFE0
FFFFFFFFE0
FFFFFFFFE0
0003F80000
0003F80000
0003F80000
0003F80000
0003F80000
0003F80000
0003F80000
0003F80000
0003F80000
0003F80000
0003F80000
0003F80000
0003F80000
0003F80000
0003F80000
0003F80000
0003F80000
0003F80000
0003F80000
0003F80000
0003F80000
0003F80000
0003F80000
0003F80000
0003F80000
0003F80000
0003F80000
0003F80000
0003F80000
0003F80000
0003F80000
0003F80000
0003F80000
0003F80000
0003F80000
0003F80000
0003F80000
0003F80000
0003F80000
0003F80000
0003F80000
0003F80000
0003F80000
0003F80000
0003F80000
0003F80000
0003F80000
0003F80000
ENDCHAR
STARTCHAR 0075
ENCODING 117
SWIDTH 501 0
DWIDTH 39 0
BBX 33 55 3 -1
BITMAP
FF00003F80
FF00003F80
FF00003F80
FF00003F80
FF00003F80
FF00003F80
FF00003F80
FF00003F80
FF00003F80
FF00003F80
FF00003F80
FF00003F80
FF00003F80
FF00003F80
FF00003F80
FF00003F80
FF00003F80
FF00003F80
FF00003F80
FF00003F80
FF00003F80
FF00003F80
FF00003F80
FF00003F80
FF00003F80
FF00003F80
FF00003F80
FF00003F80
FF00003F80
FF00003F80
FF00003F80
FF00003F80
FF00003F80
FF00003F80
FF00003F80
FF00003F80
FF00003F80
FF00003F80
FF00003F80
FF00003F80
7F00007F80
7F00007F80
7F80007F80
7F8000FF00
3FC000FF00
3FC001FF00
3FE003FE00
1FF807FE00
0FFFFFFC00
0FFFFFF800
07FFFFF000
03FFFFE000
00FFFFC000
007FFF0000
000FFC0000
ENDCHAR
STARTCHAR 0076
ENCODING 118
SWIDTH 462 0
DWIDTH 36 0
BBX 32 54 1 0
BITMAP
FE0000FF
FE0000FF
FE0000FF
FE0000FF
FE0000FF
FE0000FF
FE0000FF
FE0000FF
FE0000FF
FE0000FF
FE0000FF
FE0000FF
FE0000FF
FE0000FF
FE0000FF
FE0000FF
FE0000FF
FE0000FF
FE0000FF
FE0000FF
FE0000FF
FE0000FF
FE0000FF
FE0000FF
FE0000FF
FE0000FE
FE0000FE
FE0000FE
FE0000FE
FF0000FE
FF0000FE
FF0000FE
FF0001FE
7F0001FE
7F0001FE
7F0001FC
7F8001FC
7F8003FC
3F8003FC
3FC003F8
3FC007F8
1FC007F8
1FE00FF0
1FE00FF0
0FF01FE0
0FF81FE0
07F83FC0
03FC7FC0
03FE7F80
01FFFF00
00FFFE00
007FFC00
003FF800
001FF000
ENDCHAR
STARTCHAR 0077
ENCODING 119
SWIDTH 771 0
DWIDTH 60 0
BBX 56 54 1 0
BITMAP
FE0000FF00007F
FE0000FF00007F
FE0000FF00007F
FE0000FF00007F
FE0000FF00007F
FE0000FF00007F
FE0000FF00007F
FE0000FF00007F
FE0000FF00007F
FE0000FF00007F
FE0000FF00007F
FE0000FF00007F
FE0000FF00007F
FE0000FF00007F
FE0000FF00007F
FE0000FF00007F
FE0000FF00007F
FE0000FF00007F
FE0000FF00007F
FE0000FF00007F
FE0000FF00007F
FE0000FF00007F
FE0000FF00007F
FE0000FF00007F
FE0000FF00007F
FE0000FF00007F
FE0000FF0000FF
FE0000FF0000FF
FE0000FF0000FF
FF0000FF0000FF
FF0000FF0000FF
FF0000FF0000FE
FF0001FF0000FE
7F0001FF0000FE
7F0001FF8001FE
7F0001FF8001FE
7F8001FF8001FE
7F8003FF8001FC
3F8003FFC003FC
3FC003FFC003FC
3FC007FFC003F8
1FC007FFE007F8
1FE00FFFE007F8
1FE00FFFF00FF0
0FF01FEFF00FF0
0FF81FE7F81FE0
07F83FC3FC3FE0
03FC7FC3FC3FC0
03FE7F81FE7F80
01FFFF00FFFF80
00FFFE00FFFF00
007FFC007FFE00
003FF8003FFC00
001FF0001FF800
ENDCHAR
STARTCHAR 0078
ENCODING 120
SWIDTH 514 0
DWIDTH 40 0
BBX 33 54 4 0
BITMAP
FE00007F80
FE00007F80
FE00007F80
FE00007F80
FE00007F80
FE00007F80
FE00007F80
FE00007F80
FE00007F80
FE00007F80
FE00007F80
FE00007F00
FF00007F00
FF00007F00
FF0000FF00
7F8000FF00
7F8001FE00
7FC003FE00
3FE007FC00
1FF81FFC00
1FFFFFF800
0FFFFFF000
07FFFFE000
03FFFFE000
07FFFFF000
0FFFFFF800
1FFFFFF800
3FF80FFC00
3FE003FE00
7FC001FE00
7F8001FE00
7F0000FF00
FF0000FF00
FF00007F00
FE00007F00
FE00007F00
FE00007F80
FE00007F80
FE00007F80
FE00007F80
FE00007F80
FE00007F80
FE00007F80
FE00007F80
FE00007F80
FE00007F80
FE00007F80
FE00007F80
FE00007F80
FE00007F80
FE00007F80
FE00007F80
FE00007F80
FE00007F80
ENDCHAR
STARTCHAR 0079
ENCODING 121
SWIDTH 488 0
DWIDTH 38 0
BBX 33 54 3 0
BITMAP
FE00007F80
FE00007F80
FE00007F80
FE00007F80
FE00007F80
FE00007F80
FE00007F80
FE00007F80
FE00007F80
FE00007F80
FE00007F80
FE00007F80
FE00007F80
FE00007F80
FE00007F80
FE00007F80
FE00007F80
FE00007F80
FE00007F80
FE00007F80
FE00007F80
FE00007F80
FE00007F80
FE00007F80
FE00007F80
FF00007F80
FF00007F80
FF00007F00
7F00007F00
7F8000FF00
7F8000FF00
3FC001FE00
3FE003FE00
3FF00FFC00
1FFFFFFC00
0FFFFFF800
07FFFFF000
03FFFFE000
01FFFFC000
007FFF0000
001FFC0000
0007F00000
0007F00000
0007F00000
0007F00000
0007F00000
0007F00000
0007F00000
0007F00000
0007F00000
0007F00000
0007F00000
0007F00000
0007F00000
ENDCHAR
STARTCHAR 007A
ENCODING 122
SWIDTH 501 0
DWIDTH 39 0
BBX 36 54 2 0
BITMAP
FFFFFFFFF0
FFFFFFFFF0
FFFFFFFFF0
FFFFFFFFE0
FFFFFFFFE0
FFFFFFFFC0
0000003FC0
0000007F80
000000FF00
000000FF00
000001FE00
000001FE00
000003FC00
000007F800
000007F800
00000FF000
00000FF000
00001FE000
00003FC000
00003FC000
00007F8000
00007F8000
0000FF0000
0001FE0000
0001FE0000
0003FC0000
0003FC0000
0007F80000
000FF80000
000FF00000
001FE00000
001FE00000
003FC00000
007FC00000
007F800000
00FF000000
00FF000000
01FE000000
03FE000000
03FC000000
07F8000000
07F8000000
0FF0000000
1FF0000000
1FE0000000
3FC0000000
3FC0000000
7FFFFFFFC0
FFFFFFFFC0
FFFFFFFFC0
FFFFFFFFC0
FFFFFFFFC0
FFFFFFFFC0
FFFFFFFFC0
ENDCHAR
STARTCHAR 007B
ENCODING 123
SWIDTH 334 0
DWIDTH 26 0
BBX 18 74 4 -11
BITMAP
003FC0
007FC0
00FFC0
01FFC0
01FFC0
01F800
03F000
03F000
03F000
03F000
03F000
03F000
03F000
03F000
03F000
03F000
03F000
03F000
03F000
03F000
03F000
03F000
03F000
03F000
03F000
03F000
03F000
03F000
03F000
03E000
07E000
0FE000
1FC000
7FC000
FF8000
FF0000
FE0000
FF0000
FF8000
FF8000
1FC000
0FE000
07E000
07E000
03E000
03F000
03F000
03F000
03F000
03F000
03F000
03F000
03F000
03F000
03F000
03F000
03F000
03F000
03F000
03F000
03F000
03F000
03F000
03F000
03F000
03F000
03F000
03F000
01FC00
01FFC0
00FFC0
00FFC0
007FC0
001FC0
ENDCHAR
STARTCHAR 007C
ENCODING 124
SWIDTH 154 0
DWIDTH 12 0
BBX 5 63 4 -8
BITMAP
F8
F8
F8
F8
F8
F8
F8
F8
F8
F8
F8
F8
F8
F8
F8
F8
F8
F8
F8
F8
F8
F8
F8
F8
F8
F8
F8
F8
F8
F8
F8
F8
F8
F8
F8
F8
F8
F8
F8
F8
F8
F8
F8
F8
F8
F8
F8
F8
F8
F8
F8
F8
F8
F8
F8
F8
F8
F8
F8
F8
F8
F8
F8
ENDCHAR
STARTCHAR 007D
ENCODING 125
SWIDTH 334 0
DWIDTH 26 0
BBX 18 74 4 -11
BITMAP
FF0000
FFC000
FFE000
FFE000
FFF000
03F000
03F000
01F000
01F000
01F000
01F000
01F000
01F000
01F000
01F000
01F000
01F000
01F000
01F000
01F000
01F000
01F000
01F000
01F000
01F000
01F000
01F000
01F000
01F800
01F800
01F800
00FC00
00FE00
007F80
007FC0
003FC0
001FC0
001FC0
003FC0
007FC0
00FF00
00FE00
00FC00
01F800
01F800
01F800
01F000
01F000
01F000
01F000
01F000
01F000
01F000
01F000
01F000
01F000
01F000
01F000
01F000
01F000
01F000
01F000
01F000
01F000
01F000
01F000
01F000
03F000
0FF000
FFE000
FFE000
FFC000
FF8000
FE0000
ENDCHAR
STARTCHAR 007E
ENCODING 126
SWIDTH 540 0
DWIDTH 42 0
BBX 34 9 4 21
BITMAP
0100000000
7FFE000000
FFFFF00040
FFFFFFFFC0
FFFFFFFFC0
FFFFFFFFC0
FCFFFFFFC0
8001FFFFC0
00001FFF00
ENDCHAR
STARTCHAR 00A1
ENCODING 161
SWIDTH 244 0
DWIDTH 19 0
BBX 12 56 4 -9
BITMAP
0F00
3FC0
7FE0
7FE0
FFE0
FFF0
FFF0
FFE0
7FE0
7FC0
1F80
0000
0000
0000
0000
0000
0000
0000
0000
0000
3F80
3F80
3F80
3F80
3F80
3F80
3F80
3F80
3F80
3F80
3F80
3F80
3F80
3F80
3F80
3F80
3F80
3F80
3F80
3F80
3F80
3F80
3F80
3F80
3F80
3F80
3F80
3F80
3F80
3F80
3F80
3F80
3F80
3F80
3F80
3F80
ENDCHAR
STARTCHAR 00A2
ENCODING 162
SWIDTH 514 0
DWIDTH 40 0
BBX 32 48 4 3
BITMAP
0001F800
0001F800
0001F800
0001F800
0001F800
0001FC00
001FFFC0
007FFFF0
00FFFFF8
01FFFFFE
07FFFFFE
07FDF3FF
0FF1F0FE
1FE1F03C
3FC1F018
3F81F000
7F01F000
7F01F000
7E01F000
7E01F000
FE01F000
FC01F000
FC01F000
FC01F000
FC01F000
FC01F000
FC01F000
FE01F000
7E01F000
7E01F000
7F01F000
3F81F000
3F81F008
1FC1F01C
1FE1F07E
0FF9F1FF
07FFFFFF
03FFFFFE
01FFFFFC
007FFFF8
003FFFE0
0007FF00
0001F800
0001F800
0001F800
0001F800
0001F800
0001F800
ENDCHAR
STARTCHAR 00A3
ENCODING 163
SWIDTH 540 0
DWIDTH 42 0
BBX 34 55 4 0
BITMAP
00003FFE00
0001FFFFC0
0007FFFFC0
001FFFFFC0
003FFFFFC0
007FFFFFC0
00FFFFFFC0
01FFF003C0
01FF800040
03FF000000
03FE000000
07FC000000
07F8000000
07F8000000
07F8000000
07F0000000
07F0000000
07F0000000
07F0000000
07F0000000
07F8000000
07F8000000
03F8000000
03F8000000
03FC000000
FFFFFFFC00
FFFFFFFC00
FFFFFFFC00
FFFFFFFC00
FFFFFFFC00
FFFFFFFC00
007F800000
007F800000
003F800000
003FC00000
003FC00000
003FC00000
001FC00000
001FC00000
001FC00000
001FC00000
003FC00000
003FC00000
003FC00000
007F800000
00FF800000
03FF000000
1FFE000000
FFFC000000
FFFFFFFFC0
FFFFFFFFC0
FFFFFFFFC0
FFFFFFFFC0
FFFFFFFFC0
FFFFFFFFC0
ENDCHAR
STARTCHAR 00A4
ENCODING 164
SWIDTH 565 0
DWIDTH 44 0
BBX 37 36 4 7
BITMAP
18000000C0
3C000001E0
7E006003F0
FF07FF07F8
7FBFFFCFF0
3FFFFFFFE0
1FFFFFFFC0
0FFFDFFF80
07FC01FF00
07F0007F00
0FE0003F00
0FC0001F80
1F80000F80
1F80000FC0
1F00000FC0
1F000007C0
1F000007C0
3F000007C0
3F000007C0
3F000007C0
1F000007C0
1F00000FC0
1F80000FC0
1F80000F80
0FC0001F80
0FE0003F00
07F0007F00
07F801FF00
0FFF0FFF80
1FFFFFFFC0
3FFFFFFFE0
7FBFFFEFF0
FF0FFF87F0
7E00F803E0
3C000001C0
1800000080
ENDCHAR
STARTCHAR 00A5
ENCODING 165
SWIDTH 630 0
DWIDTH 49 0
BBX 41 55 5 0
BITMAP
000000000F80
FF000000FF00
FF800001FF00
7F800001FE00
7FC00003FE00
3FC00003FC00
3FE00007FC00
1FE00007F800
1FF00007F800
0FF0000FF000
0FF8000FF000
07F8001FE000
07FC001FE000
03FC003FC000
03FE003F8000
01FE007F8000
01FF007F0000
00FF00FF0000
00FF80FE0000
007F81FE0000
007FC1FC0000
003FC3FC0000
003FE3F80000
001FE7F80000
001FF7F00000
000FFFF00000
0007FFE00000
0007FFE00000
0003FFC00000
0FFFFFFFE000
0FFFFFFFE000
0FFFFFFFE000
0FFFFFFFE000
0FFFFFFFE000
0000FF000000
0000FF000000
0000FF000000
0000FF000000
0000FF000000
0FFFFFFFE000
0FFFFFFFE000
0FFFFFFFE000
0FFFFFFFE000
0FFFFFFFE000
0000FF000000
0000FF000000
0000FF000000
0000FF000000
0000FF000000
0000FF000000
0000FF000000
0000FF000000
0000FF000000
0000FF000000
0000FF000000
ENDCHAR
STARTCHAR 00A6
ENCODING 166
SWIDTH 154 0
DWIDTH 12 0
BBX 5 63 4 -8
BITMAP
F8
F8
F8
F8
F8
F8
F8
F8
F8
F8
F8
F8
F8
F8
F8
F8
F8
F8
F8
F8
F8
F8
F8
F8
00
00
00
00
00
00
00
00
00
00
00
00
00
00
00
F8
F8
F8
F8
F8
F8
F8
F8
F8
F8
F8
F8
F8
F8
F8
F8
F8
F8
F8
F8
F8
F8
F8
F8
ENDCHAR
STARTCHAR 00A7
ENCODING 167
SWIDTH 475 0
DWIDTH 37 0
BBX 29 64 4 -9
BITMAP
003FF000
00FFFC00
03FFFE00
07FFFF00
0FFFFF80
0FFFFFC0
1FFCFFE0
1FE01FE0
1FC00FF0
3FC00FF0
3FC007F0
1FC007E0
1FC00700
1FC00000
1FE00000
0FF00000
07FC0000
07FE0000
03FF8000
01FFE000
007FF800
003FFC00
01FFFE00
07FFFF80
0FFFFFC0
1FFFFFE0
3FC03FE0
7F800FF0
7F0007F0
7E0007F8
7E0003F8
FE0003F8
FE0003F8
7E0003F8
7F0007F0
7F8007F0
3FC00FE0
3FFC7FE0
1FFFFFC0
0FFFFF80
07FFFE00
01FFF800
00FFE000
003FF800
000FFC00
0003FE00
0001FF00
00007F80
00003F80
00001FC0
01001FC0
0F000FE0
7F000FE0
7F800FE0
7F801FE0
3FC03FC0
3FE07FC0
1FFFFFC0
0FFFFF80
0FFFFF80
07FFFF00
01FFFC00
00FFF800
000FC000
ENDCHAR
STARTCHAR 00A8
ENCODING 168
SWIDTH 360 0
DWIDTH 28 0
BBX 29 11 0 58
BITMAP
1F800FE0
3FE01FF0
7FE03FF0
7FF03FF8
FFF03FF8
FFF03FF8
7FF03FF8
7FE03FF8
7FE01FF0
3FC00FE0
07000380
ENDCHAR
STARTCHAR 00A9
ENCODING 169
SWIDTH 835 0
DWIDTH 65 0
BBX 58 57 4 -1
BITMAP
0000003F00000000
00000FFFFC000000
00003FFFFF800000
0001FFFFFFE00000
0003FFE1FFF80000
000FF80007FC0000
001FC00000FE0000
007F0000003F8000
00FE0000001FC000
01F80000000FE000
01F000000003E000
03E000000001F000
07C000000000F800
0F8000000000FC00
0F8000FFC0007C00
1F0003FFF8003E00
1F000FFFFC003E00
3E001FFFFE001F00
3E003FFFFF001F00
3C007F807F000F00
7C00FE001E000F80
7C00FC0008000F80
7801F80000000780
7801F80000000780
F801F000000007C0
F803F000000007C0
F803F000000007C0
F803E000000007C0
F803E000000007C0
F803E000000007C0
F803E000000007C0
F803F000000007C0
F801F000000007C0
F801F00000000780
7801F80000000780
7800FC0008000780
7C00FE001C000F80
7C007F003E000F80
3C007FC0FF000F00
3E003FFFFF001F00
3E001FFFFE001E00
1F0007FFF8003E00
1F0001FFF0007E00
0F80003F80007C00
07C000000000F800
07E000000001F800
03F000000003F000
01F800000007E000
00FC0000000FC000
007F0000003F8000
003F8000007F0000
001FF00003FE0000
0007FE001FFC0000
0003FFFFFFF00000
0000FFFFFFC00000
00001FFFFF000000
000003FFF0000000
ENDCHAR
STARTCHAR 00AB
ENCODING 171
SWIDTH 540 0
DWIDTH 42 0
BBX 34 34 5 7
BITMAP
000FE01FC0
001FC03F80
001FC07F00
003F80FE00
007F00FE00
00FE01FC00
00FE03F800
01FC07F000
03F807F000
07F00FE000
07F01FC000
0FE03F8000
1FC03F0000
3F807F0000
3F80FE0000
7F01FC0000
FE01F80000
FE03F80000
FF01FC0000
7F00FE0000
3F80FF0000
1FC07F0000
1FE03F8000
0FE01FC000
07F01FE000
03F80FE000
03FC07F000
01FC03F800
00FE03FC00
007F01FC00
003F80FE00
003F807F00
001FC03F80
000FE03F80
ENDCHAR
STARTCHAR 00AC
ENCODING 172
SWIDTH 552 0
DWIDTH 43 0
BBX 35 21 4 8
BITMAP
FFFFFFFFE0
FFFFFFFFE0
FFFFFFFFE0
FFFFFFFFE0
FFFFFFFFE0
FFFFFFFFE0
00000007E0
00000007E0
00000007E0
00000007E0
00000007E0
00000007E0
00000007E0
00000007E0
00000007E0
00000007E0
00000007E0
00000007E0
00000007E0
00000007E0
00000007E0
ENDCHAR
STARTCHAR 00AE
ENCODING 174
SWIDTH 488 0
DWIDTH 38 0
BBX 31 30 4 26
BITMAP
001FF000
00FFFC00
01FFFF00
07E00FC0
0F8003E0
1F0001E0
1C0000F0
3C1FE078
381FF838
701FF81C
701C3C1C
701C1C1C
E01C1C0E
E01C3C0E
E0FFF80E
E0FFF00E
E0FFF00E
E01C780E
F01C381C
701C381C
701C381C
381C3838
3C000078
1C000070
1E0001F0
0F8003E0
07E00FC0
01FFFF00
00FFFE00
001FF000
ENDCHAR
STARTCHAR 00AF
ENCODING 175
SWIDTH 270 0
DWIDTH 21 0
BBX 22 5 0 62
BITMAP
FFFFFC
FFFFFC
FFFFFC
FFFFFC
FFFFFC
ENDCHAR
STARTCHAR 00B0
ENCODING 176
SWIDTH 334 0
DWIDTH 26 0
BBX 18 17 4 38
BITMAP
07F800
0FFC00
3FFF00
3F3F00
7C0F80
780780
F003C0
F003C0
F003C0
F003C0
F003C0
7807C0
7C0F80
3F3F80
3FFF00
0FFE00
07F800
ENDCHAR
STARTCHAR 00B1
ENCODING 177
SWIDTH 552 0
DWIDTH 43 0
BBX 35 32 4 8
BITMAP
0001F80000
0001F80000
0001F80000
0001F80000
0001F80000
0001F80000
0001F80000
0001F80000
FFFFFFFFE0
FFFFFFFFE0
FFFFFFFFE0
FFFFFFFFE0
FFFFFFFFE0
FFFFFFFFE0
0001F80000
0001F80000
0001F80000
0001F80000
0001F80000
0001F80000
0001F80000
0001F80000
0001F80000
0000000000
0000000000
0000000000
0000000000
FFFFFFFFE0
FFFFFFFFE0
FFFFFFFFE0
FFFFFFFFE0
FFFFFFFFE0
ENDCHAR
STARTCHAR 00B4
ENCODING 180
SWIDTH 154 0
DWIDTH 12 0
BBX 12 10 0 59
BITMAP
07F0
07E0
0FC0
0F80
1F80
1F00
3E00
7C00
7C00
F800
ENDCHAR
STARTCHAR 00B6
ENCODING 182
SWIDTH 475 0
DWIDTH 37 0
BBX 29 63 4 -8
BITMAP
000FF078
007FF078
01FFF078
03FFF078
07FFF078
0FFFF078
1FFFF078
3FFFF078
3FFFF078
7FFFF078
7FFFF078
7FFFF078
FFFFF078
FFFFF078
FFFFF078
FFFFF078
FFFFF078
FFFFF078
FFFFF078
7FFFF078
7FFFF078
7FFFF078
3FFFF078
1FFFF078
1FFFF078
0FFFF078
07FFF078
03FFF078
00FFF078
003FF078
0001F078
0001F078
0001F078
0001F078
0001F078
0001F078
0001F078
0001F078
0001F078
0001F078
0001F078
0001F078
0001F078
0001F078
0001F078
0001F078
0001F078
0001F078
0001F078
0001F078
0001F078
0001F078
0001F078
0001F078
0001F078
0001F078
0001F078
0001F078
0001F078
0001F078
0001F078
0001F078
0001F078
ENDCHAR
STARTCHAR 00B7
ENCODING 183
SWIDTH 244 0
DWIDTH 19 0
BBX 12 11 4 15
BITMAP
0F00
3FC0
7FE0
7FE0
FFE0
FFF0
FFF0
FFE0
7FE0
3FC0
1F80
ENDCHAR
STARTCHAR 00B8
ENCODING 184
SWIDTH 205 0
DWIDTH 16 0
BBX 17 17 0 -17
BITMAP
00F000
00F000
01F000
01F800
01FE00
003F00
000F00
000780
000780
300780
700780
F80F80
7F3F00
7FFF00
1FFE00
0FFC00
01C000
ENDCHAR
STARTCHAR 00BB
ENCODING 187
SWIDTH 540 0
DWIDTH 42 0
BBX 35 34 4 7
BITMAP
FF01FC0000
7F00FE0000
3F80FF0000
1FC07F0000
1FE03F8000
0FE01FC000
07F01FE000
03F80FE000
03FC07F000
01FC03F800
00FE03FC00
007F01FC00
007F80FE00
003F807F00
001FC07F80
000FE03F80
0007F01FC0
0007F00FE0
000FE01FC0
000FE03F80
001FC07F00
003F80FF00
007F00FE00
00FF01FC00
00FE03F800
01FC07F000
03F807F000
07F00FE000
07F01FC000
0FE03F8000
1FC03F8000
3F807F0000
3F80FE0000
7F01FC0000
ENDCHAR
STARTCHAR 00BF
ENCODING 191
SWIDTH 424 0
DWIDTH 33 0
BBX 25 57 4 -9
BITMAP
00020000
001F8000
003FE000
007FE000
007FF000
00FFF000
00FFF000
00FFF000
007FE000
007FE000
003FC000
000F0000
00000000
00000000
00000000
00000000
00000000
00000000
00000000
001F8000
001F8000
001F8000
001F8000
001F8000
003F8000
003F8000
003F8000
007F0000
007F0000
00FF0000
00FE0000
01FE0000
01FC0000
03F80000
07F80000
0FF00000
0FE00000
1FC00000
3FC00000
3F800000
7F000000
7F000000
FE000000
FE000000
FE001800
FE001F00
FE003F80
FF003F80
FF007F00
7F80FF00
7FFFFF00
3FFFFE00
3FFFFC00
1FFFF800
07FFF000
03FFC000
003E0000
ENDCHAR
STARTCHAR 00C0
ENCODING 192
SWIDTH 552 0
DWIDTH 43 0
BBX 38 69 4 0
BITMAP
00FE000000
007E000000
003F000000
001F000000
001F800000
000F800000
0007C00000
0003E00000
0003E00000
0001F00000
0000000000
0000000000
0000000000
0003C00000
003FFC0000
00FFFF8000
03FFFFC000
07FFFFE000
0FFFFFF000
0FFFFFF800
1FFC1FFC00
3FF007FC00
3FC003FE00
7FC001FE00
7F8000FF00
7F0000FF00
FF00007F00
FF00007F00
FF00007F80
FE00007F80
FE00007F80
FE00007F80
FE00007F80
FE00007F80
FE00007F80
FE00007F80
FE00007F80
FE00007F80
FE00007F80
FE00007F80
FE00007F80
FE00007F80
FE00007F80
FE00007F80
FE00007F80
FE00007F80
FE00007F80
FE00007F80
FE00007F80
FE00007F80
FE00007F80
FE00007F80
FE00007F80
FE00007F80
FE00007F80
FE00007F80
FE00007F80
FE00007F80
FE00007F80
FE00007F80
FE00007F80
FE00007F80
FFFFFFFFFC
FFFFFFFFFC
FFFFFFFFFC
FFFFFFFFFC
FFFFFFFFFC
FFFFFFFFFC
FFFFFFFFFC
ENDCHAR
STARTCHAR 00C1
ENCODING 193
SWIDTH 552 0
DWIDTH 43 0
BBX 38 69 4 0
BITMAP
00003F0000
00007E0000
00007E0000
0000FC0000
0000F80000
0001F00000
0001F00000
0003E00000
0007C00000
0007800000
0000000000
0000000000
0000000000
0003C00000
003FFC0000
00FFFF8000
03FFFFC000
07FFFFE000
0FFFFFF000
0FFFFFF800
1FFC1FFC00
3FF007FC00
3FC003FE00
7FC001FE00
7F8000FF00
7F0000FF00
FF00007F00
FF00007F00
FF00007F80
FE00007F80
FE00007F80
FE00007F80
FE00007F80
FE00007F80
FE00007F80
FE00007F80
FE00007F80
FE00007F80
FE00007F80
FE00007F80
FE00007F80
FE00007F80
FE00007F80
FE00007F80
FE00007F80
FE00007F80
FE00007F80
FE00007F80
FE00007F80
FE00007F80
FE00007F80
FE00007F80
FE00007F80
FE00007F80
FE00007F80
FE00007F80
FE00007F80
FE00007F80
FE00007F80
FE00007F80
FE00007F80
FE00007F80
FFFFFFFFFC
FFFFFFFFFC
FFFFFFFFFC
FFFFFFFFFC
FFFFFFFFFC
FFFFFFFFFC
FFFFFFFFFC
ENDCHAR
STARTCHAR 00C2
ENCODING 194
SWIDTH 552 0
DWIDTH 43 0
BBX 38 69 4 0
BITMAP
000FF80000
001FFC0000
003FFE0000
007F7E0000
007E3F0000
00FC3F8000
01F81FC000
03F80FC000
03F007E000
07E003F000
0000000000
0000000000
0000000000
0003C00000
003FFC0000
00FFFF8000
03FFFFC000
07FFFFE000
0FFFFFF000
0FFFFFF800
1FFC1FFC00
3FF007FC00
3FC003FE00
7FC001FE00
7F8000FF00
7F0000FF00
FF00007F00
FF00007F00
FF00007F80
FE00007F80
FE00007F80
FE00007F80
FE00007F80
FE00007F80
FE00007F80
FE00007F80
FE00007F80
FE00007F80
FE00007F80
FE00007F80
FE00007F80
FE00007F80
FE00007F80
FE00007F80
FE00007F80
FE00007F80
FE00007F80
FE00007F80
FE00007F80
FE00007F80
FE00007F80
FE00007F80
FE00007F80
FE00007F80
FE00007F80
FE00007F80
FE00007F80
FE00007F80
FE00007F80
FE00007F80
FE00007F80
FE00007F80
FFFFFFFFFC
FFFFFFFFFC
FFFFFFFFFC
FFFFFFFFFC
FFFFFFFFFC
FFFFFFFFFC
FFFFFFFFFC
ENDCHAR
STARTCHAR 00C3
ENCODING 195
SWIDTH 552 0
DWIDTH 43 0
BBX 38 69 4 0
BITMAP
0078000000
03FF018000
03FFFF8000
03FFFF8000
03FFFF8000
0303FF8000
00007C0000
0000000000
0000000000
0000000000
0000000000
0000000000
0000000000
0003C00000
003FFC0000
00FFFF8000
03FFFFC000
07FFFFE000
0FFFFFF000
0FFFFFF800
1FFC1FFC00
3FF007FC00
3FC003FE00
7FC001FE00
7F8000FF00
7F0000FF00
FF00007F00
FF00007F00
FF00007F80
FE00007F80
FE00007F80
FE00007F80
FE00007F80
FE00007F80
FE00007F80
FE00007F80
FE00007F80
FE00007F80
FE00007F80
FE00007F80
FE00007F80
FE00007F80
FE00007F80
FE00007F80
FE00007F80
FE00007F80
FE00007F80
FE00007F80
FE00007F80
FE00007F80
FE00007F80
FE00007F80
FE00007F80
FE00007F80
FE00007F80
FE00007F80
FE00007F80
FE00007F80
FE00007F80
FE00007F80
FE00007F80
FE00007F80
FFFFFFFFFC
FFFFFFFFFC
FFFFFFFFFC
FFFFFFFFFC
FFFFFFFFFC
FFFFFFFFFC
FFFFFFFFFC
ENDCHAR
STARTCHAR 00C4
ENCODING 196
SWIDTH 552 0
DWIDTH 43 0
BBX 38 69 4 0
BITMAP
07E003F800
0FF807FC00
1FF80FFC00
1FFC0FFE00
3FFC0FFE00
3FFC0FFE00
3FFC0FFE00
1FF80FFE00
1FF807FC00
0FF003F800
01C000E000
0000000000
0000000000
0003C00000
003FFC0000
00FFFF8000
03FFFFC000
07FFFFE000
0FFFFFF000
0FFFFFF800
1FFC1FFC00
3FF007FC00
3FC003FE00
7FC001FE00
7F8000FF00
7F0000FF00
FF00007F00
FF00007F00
FF00007F80
FE00007F80
FE00007F80
FE00007F80
FE00007F80
FE00007F80
FE00007F80
FE00007F80
FE00007F80
FE00007F80
FE00007F80
FE00007F80
FE00007F80
FE00007F80
FE00007F80
FE00007F80
FE00007F80
FE00007F80
FE00007F80
FE00007F80
FE00007F80
FE00007F80
FE00007F80
FE00007F80
FE00007F80
FE00007F80
FE00007F80
FE00007F80
FE00007F80
FE00007F80
FE00007F80
FE00007F80
FE00007F80
FE00007F80
FFFFFFFFFC
FFFFFFFFFC
FFFFFFFFFC
FFFFFFFFFC
FFFFFFFFFC
FFFFFFFFFC
FFFFFFFFFC
ENDCHAR
STARTCHAR 00C5
ENCODING 197
SWIDTH 552 0
DWIDTH 43 0
BBX 38 75 4 0
BITMAP
0001C00000
000FF00000
001FFC0000
003FFE0000
007E3E0000
00781F0000
00780F0000
00F00F0000
00F00F0000
00700F0000
00780F0000
007C1E0000
003FFE0000
003FFC0000
000FF80000
0007E00000
0000000000
0000000000
0000000000
0003C00000
003FFC0000
00FFFF8000
03FFFFC000
07FFFFE000
0FFFFFF000
0FFFFFF800
1FFC1FFC00
3FF007FC00
3FC003FE00
7FC001FE00
7F8000FF00
7F0000FF00
FF00007F00
FF00007F00
FF00007F80
FE00007F80
FE00007F80
FE00007F80
FE00007F80
FE00007F80
FE00007F80
FE00007F80
FE00007F80
FE00007F80
FE00007F80
FE00007F80
FE00007F80
FE00007F80
FE00007F80
FE00007F80
FE00007F80
FE00007F80
FE00007F80
FE00007F80
FE00007F80
FE00007F80
FE00007F80
FE00007F80
FE00007F80
FE00007F80
FE00007F80
FE00007F80
FE00007F80
FE00007F80
FE00007F80
FE00007F80
FE00007F80
FE00007F80
FFFFFFFFFC
FFFFFFFFFC
FFFFFFFFFC
FFFFFFFFFC
FFFFFFFFFC
FFFFFFFFFC
FFFFFFFFFC
ENDCHAR
STARTCHAR 00C7
ENCODING 199
SWIDTH 681 0
DWIDTH 53 0
BBX 49 73 3 -17
BITMAP
0000003C000000
00000FFFF00000
00007FFFFE0000
0001FFFFFF8000
0007FFFFFFE000
001FFFFFFFF800
003FFFFFFFFC00
007FFFC1FFFE00
00FFF8001FFF00
01FFE00003FF80
03FF800001FF80
07FE0000007F00
0FFC0000003E00
0FF80000001C00
1FF00000000000
1FE00000000000
3FE00000000000
3FC00000000000
7F800000000000
7F800000000000
7F000000000000
FF000000000000
FF000000000000
FF000000000000
FE000000000000
FE000000000000
FE000000000000
FE000000000000
FE000000000000
FE000000000000
FE000000000000
FE000000000000
FE000000000000
FE000000000000
FF000000000000
FF000000000000
7F000000000000
7F800000000000
7F800000000000
3FC00000000000
3FC00000000000
3FE00000000000
1FF00000000000
0FF00000001800
0FF80000003C00
07FE0000007E00
03FF000000FF00
03FF800003FF80
01FFE00007FF00
00FFFC003FFE00
003FFFFFFFFC00
001FFFFFFFF800
000FFFFFFFF000
0003FFFFFFC000
0000FFFFFF0000
00003FFFFC0000
000003FFE00000
000000F0000000
000000F0000000
000000FC000000
000000FE000000
0000001F000000
0000000F800000
00000007800000
00000007800000
00001007800000
00003807800000
00007C0F800000
00007F1F800000
00003FFF000000
00001FFE000000
000007FC000000
000000E0000000
ENDCHAR
STARTCHAR 00C8
ENCODING 200
SWIDTH 488 0
DWIDTH 38 0
BBX 36 69 2 0
BITMAP
00FC000000
007E000000
003F000000
003F000000
001F800000
000F800000
0007C00000
0007C00000
0003E00000
0001F00000
0000000000
0000000000
0000000000
0000000000
0000000000
07FFFFE000
07FFFFE000
07FFFFE000
07FFFFE000
07FFFFE000
07FFFFE000
07F8000000
07F8000000
07F8000000
07F8000000
07F8000000
07F8000000
07F8000000
07F8000000
07F8000000
07F8000000
07F8000000
07F8000000
07F8000000
07F8000000
07F8000000
07F8000000
07F8000000
FFFFFFFE00
FFFFFFFE00
FFFFFFFE00
FFFFFFFE00
FFFFFFFE00
FFFFFFFE00
FFFFFFFE00
07F8000000
07F8000000
07F8000000
07F8000000
07F8000000
07F8000000
07F8000000
07F8000000
07F8000000
07F8000000
07F8000000
07F8000000
07F8000000
07F8000000
07F8000000
07F8000000
07F8000000
07FFFFFFF0
07FFFFFFF0
07FFFFFFF0
07FFFFFFF0
07FFFFFFF0
07FFFFFFF0
07FFFFFFF0
ENDCHAR
STARTCHAR 00C9
ENCODING 201
SWIDTH 488 0
DWIDTH 38 0
BBX 36 69 2 0
BITMAP
00003F0000
00007E0000
00007E0000
0000FC0000
0000F80000
0001F00000
0003F00000
0003E00000
0007C00000
0007800000
0000000000
0000000000
0000000000
0000000000
0000000000
07FFFFE000
07FFFFE000
07FFFFE000
07FFFFE000
07FFFFE000
07FFFFE000
07F8000000
07F8000000
07F8000000
07F8000000
07F8000000
07F8000000
07F8000000
07F8000000
07F8000000
07F8000000
07F8000000
07F8000000
07F8000000
07F8000000
07F8000000
07F8000000
07F8000000
FFFFFFFE00
FFFFFFFE00
FFFFFFFE00
FFFFFFFE00
FFFFFFFE00
FFFFFFFE00
FFFFFFFE00
07F8000000
07F8000000
07F8000000
07F8000000
07F8000000
07F8000000
07F8000000
07F8000000
07F8000000
07F8000000
07F8000000
07F8000000
07F8000000
07F8000000
07F8000000
07F8000000
07F8000000
07FFFFFFF0
07FFFFFFF0
07FFFFFFF0
07FFFFFFF0
07FFFFFFF0
07FFFFFFF0
07FFFFFFF0
ENDCHAR
STARTCHAR 00CA
ENCODING 202
SWIDTH 488 0
DWIDTH 38 0
BBX 36 69 2 0
BITMAP
000FF80000
001FFC0000
003FFC0000
007FFE0000
007E7F0000
00FC3F8000
01F81F8000
03F00FC000
07F007E000
07E003F000
0000000000
0000000000
0000000000
0000000000
0000000000
07FFFFE000
07FFFFE000
07FFFFE000
07FFFFE000
07FFFFE000
07FFFFE000
07F8000000
07F8000000
07F8000000
07F8000000
07F8000000
07F8000000
07F8000000
07F8000000
07F8000000
07F8000000
07F8000000
07F8000000
07F8000000
07F8000000
07F8000000
07F8000000
07F8000000
FFFFFFFE00
FFFFFFFE00
FFFFFFFE00
FFFFFFFE00
FFFFFFFE00
FFFFFFFE00
FFFFFFFE00
07F8000000
07F8000000
07F8000000
07F8000000
07F8000000
07F8000000
07F8000000
07F8000000
07F8000000
07F8000000
07F8000000
07F8000000
07F8000000
07F8000000
07F8000000
07F8000000
07F8000000
07FFFFFFF0
07FFFFFFF0
07FFFFFFF0
07FFFFFFF0
07FFFFFFF0
07FFFFFFF0
07FFFFFFF0
ENDCHAR
STARTCHAR 00CB
ENCODING 203
SWIDTH 488 0
DWIDTH 38 0
BBX 36 69 2 0
BITMAP
07E003F000
0FF007FC00
1FF80FFC00
3FF80FFE00
3FFC1FFE00
3FFC1FFE00
3FFC0FFE00
1FF80FFC00
1FF80FFC00
0FF007F800
03C000E000
0000000000
0000000000
0000000000
0000000000
07FFFFE000
07FFFFE000
07FFFFE000
07FFFFE000
07FFFFE000
07FFFFE000
07F8000000
07F8000000
07F8000000
07F8000000
07F8000000
07F8000000
07F8000000
07F8000000
07F8000000
07F8000000
07F8000000
07F8000000
07F8000000
07F8000000
07F8000000
07F8000000
07F8000000
FFFFFFFE00
FFFFFFFE00
FFFFFFFE00
FFFFFFFE00
FFFFFFFE00
FFFFFFFE00
FFFFFFFE00
07F8000000
07F8000000
07F8000000
07F8000000
07F8000000
07F8000000
07F8000000
07F8000000
07F8000000
07F8000000
07F8000000
07F8000000
07F8000000
07F8000000
07F8000000
07F8000000
07F8000000
07FFFFFFF0
07FFFFFFF0
07FFFFFFF0
07FFFFFFF0
07FFFFFFF0
07FFFFFFF0
07FFFFFFF0
ENDCHAR
STARTCHAR 00CC
ENCODING 204
SWIDTH 192 0
DWIDTH 15 0
BBX 12 48 0 0
BITMAP
FC00
7E00
7E00
3F00
1F00
0F80
0F80
07C0
03E0
01E0
0000
0000
0000
0000
0000
0FF0
0FF0
0FF0
0FF0
0FF0
0FF0
0FF0
0FF0
0FF0
0FF0
0FF0
0FF0
0FF0
0FF0
0FF0
0FF0
0FF0
0FF0
0FF0
0FF0
0FF0
0FF0
0FF0
0FF0
0FF0
0FF0
0FF0
0FF0
0FF0
0FF0
0FF0
0FF0
0FF0
ENDCHAR
STARTCHAR 00CD
ENCODING 205
SWIDTH 192 0
DWIDTH 15 0
BBX 12 48 4 0
BITMAP
03F0
07E0
0FC0
0F80
1F80
1F00
3E00
7C00
7C00
F800
0000
0000
0000
0000
0000
FF00
FF00
FF00
FF00
FF00
FF00
FF00
FF00
FF00
FF00
FF00
FF00
FF00
FF00
FF00
FF00
FF00
FF00
FF00
FF00
FF00
FF00
FF00
FF00
FF00
FF00
FF00
FF00
FF00
FF00
FF00
FF00
FF00
ENDCHAR
STARTCHAR 00CE
ENCODING 206
SWIDTH 192 0
DWIDTH 15 0
BBX 23 48 -4 0
BITMAP
01FF00
01FF80
03FFC0
07EFE0
0FE7F0
1FC3F0
1F81F8
3F00FC
7E00FE
FC007E
000000
000000
000000
000000
000000
00FF00
00FF00
00FF00
00FF00
00FF00
00FF00
00FF00
00FF00
00FF00
00FF00
00FF00
00FF00
00FF00
00FF00
00FF00
00FF00
00FF00
00FF00
00FF00
00FF00
00FF00
00FF00
00FF00
00FF00
00FF00
00FF00
00FF00
00FF00
00FF00
00FF00
00FF00
00FF00
00FF00
ENDCHAR
STARTCHAR 00CF
ENCODING 207
SWIDTH 192 0
DWIDTH 15 0
BBX 29 48 -6 0
BITMAP
3F800FC0
7FC03FE0
FFE03FF0
FFE07FF0
FFE07FF8
FFE07FF8
FFE07FF0
FFE03FF0
7FC03FF0
3F801FE0
0E000700
00000000
00000000
00000000
00000000
003FC000
003FC000
003FC000
003FC000
003FC000
003FC000
003FC000
003FC000
003FC000
003FC000
003FC000
003FC000
003FC000
003FC000
003FC000
003FC000
003FC000
003FC000
003FC000
003FC000
003FC000
003FC000
003FC000
003FC000
003FC000
003FC000
003FC000
003FC000
003FC000
003FC000
003FC000
003FC000
003FC000
ENDCHAR
STARTCHAR 00D1
ENCODING 209
SWIDTH 514 0
DWIDTH 40 0
BBX 36 69 1 0
BITMAP
000F000000
007FE03000
007FFFF000
007FFFF000
007FFFF000
00607FF000
00000F8000
0000000000
0000000000
0000000000
0000000000
0000000000
0000000000
0800000000
1C00000000
1F00000FF0
3F80000FF0
7FC0000FF0
FFF0000FF0
7FF8000FF0
3FFC000FF0
1FFE000FF0
1FFF800FF0
1FFFC00FF0
1FFFE00FF0
1FFFF80FF0
1FFFFC0FF0
1FFFFE0FF0
1FE7FF0FF0
1FE3FFCFF0
1FE1FFEFF0
1FE07FFFF0
1FE03FFFF0
1FE01FFFF0
1FE00FFFF0
1FE003FFF0
1FE001FFF0
1FE000FFF0
1FE0003FF0
1FE0001FF0
1FE0000FF0
1FE0000FF0
1FE0000FF0
1FE0000FF0
1FE0000FF0
1FE0000FF0
1FE0000FF0
1FE0000FF0
1FE0000FF0
1FE0000FF0
1FE0000FF0
1FE0000FF0
1FE0000FF0
1FE0000FF0
1FE0000FF0
1FE0000FF0
1FE0000FF0
1FE0000FF0
1FE0000FF0
1FE0000FF0
1FE0000FF0
1FE0000FF0
1FE0000FF0
1FE0000FF0
1FE0000FF0
1FE0000FF0
1FE0000FF0
1FE0000FF0
1FE0000FF0
ENDCHAR
STARTCHAR 00D2
ENCODING 210
SWIDTH 810 0
DWIDTH 63 0
BBX 58 70 3 -1
BITMAP
000007E000000000
000003F000000000
000003F000000000
000001F800000000
000000F800000000
0000007C00000000
0000007C00000000
0000003E00000000
0000001F00000000
0000000F00000000
0000000000000000
0000000000000000
0000000000000000
0000003E00000000
00000FFFF8000000
00007FFFFF000000
0001FFFFFFC00000
0007FFFFFFF00000
000FFFFFFFFC0000
003FFFFFFFFE0000
007FFFC0FFFF0000
00FFF8000FFF8000
01FFE00001FFC000
03FF8000007FE000
07FE0000003FF000
07FC0000001FF800
0FF80000000FFC00
1FF000000007FC00
1FE000000003FE00
3FE000000001FE00
3FC000000001FF00
7F8000000000FF00
7F80000000007F00
7F00000000007F80
FF00000000007F80
FF00000000003F80
FF00000000003F80
FE00000000003FC0
FE00000000003FC0
FE00000000003FC0
FE00000000003FC0
FE00000000003FC0
FE00000000003FC0
FE00000000003FC0
FE00000000003FC0
FE00000000003FC0
FE00000000003FC0
FF00000000003F80
FF00000000007F80
7F00000000007F80
7F80000000007F80
7F8000000000FF00
3FC000000000FF00
3FC000000001FE00
3FE000000001FE00
1FF000000003FC00
0FF000000007FC00
0FFC0000000FF800
07FE0000001FF800
03FF0000007FF000
01FFC00000FFE000
01FFF00003FFC000
00FFFC001FFF8000
003FFFFFFFFF0000
001FFFFFFFFE0000
000FFFFFFFF80000
0003FFFFFFE00000
0000FFFFFF800000
00003FFFFE000000
000003FFE0000000
ENDCHAR
STARTCHAR 00D3
ENCODING 211
SWIDTH 810 0
DWIDTH 63 0
BBX 58 70 3 -1
BITMAP
00000003F8000000
00000003F0000000
00000007E0000000
00000007C0000000
0000000FC0000000
0000000F80000000
0000001F00000000
0000003E00000000
0000003E00000000
0000007C00000000
0000000000000000
0000000000000000
0000000000000000
0000003E00000000
00000FFFF8000000
00007FFFFF000000
0001FFFFFFC00000
0007FFFFFFF00000
000FFFFFFFFC0000
003FFFFFFFFE0000
007FFFC0FFFF0000
00FFF8000FFF8000
01FFE00001FFC000
03FF8000007FE000
07FE0000003FF000
07FC0000001FF800
0FF80000000FFC00
1FF000000007FC00
1FE000000003FE00
3FE000000001FE00
3FC000000001FF00
7F8000000000FF00
7F80000000007F00
7F00000000007F80
FF00000000007F80
FF00000000003F80
FF00000000003F80
FE00000000003FC0
FE00000000003FC0
FE00000000003FC0
FE00000000003FC0
FE00000000003FC0
FE00000000003FC0
FE00000000003FC0
FE00000000003FC0
FE00000000003FC0
FE00000000003FC0
FF00000000003F80
FF00000000007F80
7F00000000007F80
7F80000000007F80
7F8000000000FF00
3FC000000000FF00
3FC000000001FE00
3FE000000001FE00
1FF000000003FC00
0FF000000007FC00
0FFC0000000FF800
07FE0000001FF800
03FF0000007FF000
01FFC00000FFE000
01FFF00003FFC000
00FFFC001FFF8000
003FFFFFFFFF0000
001FFFFFFFFE0000
000FFFFFFFF80000
0003FFFFFFE00000
0000FFFFFF800000
00003FFFFE000000
000003FFE0000000
ENDCHAR
STARTCHAR 00D4
ENCODING 212
SWIDTH 810 0
DWIDTH 63 0
BBX 58 70 3 -1
BITMAP
000000FF80000000
000001FFC0000000
000001FFE0000000
000003F7F0000000
000007F3F0000000
00000FE1F8000000
00000FC0FC000000
00001F80FE000000
00003F007F000000
00007E003F000000
0000000000000000
0000000000000000
0000000000000000
0000003E00000000
00000FFFF8000000
00007FFFFF000000
0001FFFFFFC00000
0007FFFFFFF00000
000FFFFFFFFC0000
003FFFFFFFFE0000
007FFFC0FFFF0000
00FFF8000FFF8000
01FFE00001FFC000
03FF8000007FE000
07FE0000003FF000
07FC0000001FF800
0FF80000000FFC00
1FF000000007FC00
1FE000000003FE00
3FE000000001FE00
3FC000000001FF00
7F8000000000FF00
7F80000000007F00
7F00000000007F80
FF00000000007F80
FF00000000003F80
FF00000000003F80
FE00000000003FC0
FE00000000003FC0
FE00000000003FC0
FE00000000003FC0
FE00000000003FC0
FE00000000003FC0
FE00000000003FC0
FE00000000003FC0
FE00000000003FC0
FE00000000003FC0
FF00000000003F80
FF00000000007F80
7F00000000007F80
7F80000000007F80
7F8000000000FF00
3FC000000000FF00
3FC000000001FE00
3FE000000001FE00
1FF000000003FC00
0FF000000007FC00
0FFC0000000FF800
07FE0000001FF800
03FF0000007FF000
01FFC00000FFE000
01FFF00003FFC000
00FFFC001FFF8000
003FFFFFFFFF0000
001FFFFFFFFE0000
000FFFFFFFF80000
0003FFFFFFE00000
0000FFFFFF800000
00003FFFFE000000
000003FFE0000000
ENDCHAR
STARTCHAR 00D5
ENCODING 213
SWIDTH 810 0
DWIDTH 63 0
BBX 58 70 3 -1
BITMAP
0000078000000000
00003FF808000000
00003FFFF8000000
00003FFFF8000000
00003FFFF8000000
0000303FF8000000
00000007C0000000
0000000000000000
0000000000000000
0000000000000000
0000000000000000
0000000000000000
0000000000000000
0000003E00000000
00000FFFF8000000
00007FFFFF000000
0001FFFFFFC00000
0007FFFFFFF00000
000FFFFFFFFC0000
003FFFFFFFFE0000
007FFFC0FFFF0000
00FFF8000FFF8000
01FFE00001FFC000
03FF8000007FE000
07FE0000003FF000
07FC0000001FF800
0FF80000000FFC00
1FF000000007FC00
1FE000000003FE00
3FE000000001FE00
3FC000000001FF00
7F8000000000FF00
7F80000000007F00
7F00000000007F80
FF00000000007F80
FF00000000003F80
FF00000000003F80
FE00000000003FC0
FE00000000003FC0
FE00000000003FC0
FE00000000003FC0
FE00000000003FC0
FE00000000003FC0
FE00000000003FC0
FE00000000003FC0
FE00000000003FC0
FE00000000003FC0
FF00000000003F80
FF00000000007F80
7F00000000007F80
7F80000000007F80
7F8000000000FF00
3FC000000000FF00
3FC000000001FE00
3FE000000001FE00
1FF000000003FC00
0FF000000007FC00
0FFC0000000FF800
07FE0000001FF800
03FF0000007FF000
01FFC00000FFE000
01FFF00003FFC000
00FFFC001FFF8000
003FFFFFFFFF0000
001FFFFFFFFE0000
000FFFFFFFF80000
0003FFFFFFE00000
0000FFFFFF800000
00003FFFFE000000
000003FFE0000000
ENDCHAR
STARTCHAR 00D6
ENCODING 214
SWIDTH 810 0
DWIDTH 63 0
BBX 58 70 3 -1
BITMAP
00007F003F800000
0000FF807FC00000
0001FFC07FE00000
0001FFC0FFE00000
0001FFC0FFE00000
0001FFC0FFF00000
0001FFC0FFE00000
0001FFC0FFE00000
0000FF807FC00000
00007F003FC00000
00001C000E000000
0000000000000000
0000000000000000
0000003E00000000
00000FFFF8000000
00007FFFFF000000
0001FFFFFFC00000
0007FFFFFFF00000
000FFFFFFFFC0000
003FFFFFFFFE0000
007FFFC0FFFF0000
00FFF8000FFF8000
01FFE00001FFC000
03FF8000007FE000
07FE0000003FF000
07FC0000001FF800
0FF80000000FFC00
1FF000000007FC00
1FE000000003FE00
3FE000000001FE00
3FC000000001FF00
7F8000000000FF00
7F80000000007F00
7F00000000007F80
FF00000000007F80
FF00000000003F80
FF00000000003F80
FE00000000003FC0
FE00000000003FC0
FE00000000003FC0
FE00000000003FC0
FE00000000003FC0
FE00000000003FC0
FE00000000003FC0
FE00000000003FC0
FE00000000003FC0
FE00000000003FC0
FF00000000003F80
FF00000000007F80
7F00000000007F80
7F80000000007F80
7F8000000000FF00
3FC000000000FF00
3FC000000001FE00
3FE000000001FE00
1FF000000003FC00
0FF000000007FC00
0FFC0000000FF800
07FE0000001FF800
03FF0000007FF000
01FFC00000FFE000
01FFF00003FFC000
00FFFC001FFF8000
003FFFFFFFFF0000
001FFFFFFFFE0000
000FFFFFFFF80000
0003FFFFFFE00000
0000FFFFFF800000
00003FFFFE000000
000003FFE0000000
ENDCHAR
STARTCHAR 00D7
ENCODING 215
SWIDTH 514 0
DWIDTH 40 0
BBX 32 32 4 10
BITMAP
08000008
1C00001C
3E00003E
7F00007F
FF8000FF
7FC001FE
3FE003FC
1FF007F8
0FF80FF0
07FC1FE0
03FE3FC0
01FF7F80
00FFFF00
007FFE00
003FFC00
001FF800
000FF800
001FFC00
003FFE00
007FFF00
00FFFF80
01FE7FC0
03FC3FE0
07F81FF0
0FF00FF8
1FE007FC
3FC003FE
7F8001FF
7F0000FF
3E00007E
1C00003C
08000018
ENDCHAR
STARTCHAR 00D8
ENCODING 216
SWIDTH 784 0
DWIDTH 61 0
BBX 58 59 2 -3
BITMAP
0000000000003000
0000001F00003800
000007FFFC007C00
00003FFFFF00FE00
0001FFFFFFE1FC00
0007FFFFFFFBF800
000FFFFFFFFFF000
001FFFFFFFFFE000
007FFFC0FFFFE000
00FFF80007FFC000
01FFE00001FFE000
03FF8000007FF000
03FF000000FFF000
07FC000001FFF800
0FF8000003FFFC00
1FF0000007FBFC00
1FF000000FF3FE00
3FE000000FE1FE00
3FC000001FC0FF00
3FC000003F80FF00
7F8000007F007F80
7F800000FE007F80
7F000001FC003F80
FF000003FC003F80
FF000003F8003FC0
FF000007F0003FC0
FE00000FE0003FC0
FE00001FC0001FC0
FE00003F80001FC0
FE00007F00001FC0
FE0000FF00001FC0
FE0001FE00001FC0
FE0001FC00003FC0
FE0003F800003FC0
FF0007F000003FC0
FF000FE000003F80
7F001FC000003F80
7F803F8000007F80
7F807F8000007F80
7F807F000000FF00
3FC0FE000000FF00
3FE1FC000001FF00
1FE3F8000001FE00
1FF7F0000003FE00
0FFFE0000007FC00
0FFFC000000FF800
07FFC000001FF800
03FF8000007FF000
01FFC00000FFE000
00FFF00003FFC000
01FFFE001FFF8000
03FFFFFFFFFF0000
07FFFFFFFFFE0000
0FF7FFFFFFF80000
1FE3FFFFFFE00000
1FC0FFFFFF800000
1F801FFFFE000000
0F0001FFE0000000
0600000000000000
ENDCHAR
STARTCHAR 00D9
ENCODING 217
SWIDTH 501 0
DWIDTH 39 0
BBX 33 70 3 -1
BITMAP
007E000000
003F000000
003F000000
001F800000
000F800000
0007C00000
0007C00000
0003E00000
0001F00000
0000F00000
0000000000
0000000000
0000000000
0000000000
0000000000
FF00003F80
FF00003F80
FF00003F80
FF00003F80
FF00003F80
FF00003F80
FF00003F80
FF00003F80
FF00003F80
FF00003F80
FF00003F80
FF00003F80
FF00003F80
FF00003F80
FF00003F80
FF00003F80
FF00003F80
FF00003F80
FF00003F80
FF00003F80
FF00003F80
FF00003F80
FF00003F80
FF00003F80
FF00003F80
FF00003F80
FF00003F80
FF00003F80
FF00003F80
FF00003F80
FF00003F80
FF00003F80
FF00003F80
FF00003F80
FF00003F80
FF00003F80
FF00003F80
FF00003F80
FF00003F80
FF00003F80
7F00007F80
7F00007F80
7F80007F80
7F8000FF00
3FC000FF00
3FC001FF00
3FE003FE00
1FF807FE00
0FFFFFFC00
0FFFFFF800
07FFFFF000
03FFFFE000
00FFFFC000
007FFF0000
000FFC0000
ENDCHAR
STARTCHAR 00DA
ENCODING 218
SWIDTH 501 0
DWIDTH 39 0
BBX 33 70 3 -1
BITMAP
00001F8000
00003F0000
00007E0000
00007C0000
0000FC0000
0000F80000
0001F00000
0003E00000
0003E00000
0007C00000
0000000000
0000000000
0000000000
0000000000
0000000000
FF00003F80
FF00003F80
FF00003F80
FF00003F80
FF00003F80
FF00003F80
FF00003F80
FF00003F80
FF00003F80
FF00003F80
FF00003F80
FF00003F80
FF00003F80
FF00003F80
FF00003F80
FF00003F80
FF00003F80
FF00003F80
FF00003F80
FF00003F80
FF00003F80
FF00003F80
FF00003F80
FF00003F80
FF00003F80
FF00003F80
FF00003F80
FF00003F80
FF00003F80
FF00003F80
FF00003F80
FF00003F80
FF00003F80
FF00003F80
FF00003F80
FF00003F80
FF00003F80
FF00003F80
FF00003F80
FF00003F80
7F00007F80
7F00007F80
7F80007F80
7F8000FF00
3FC000FF00
3FC001FF00
3FE003FE00
1FF807FE00
0FFFFFFC00
0FFFFFF800
07FFFFF000
03FFFFE000
00FFFFC000
007FFF0000
000FFC0000
ENDCHAR
STARTCHAR 00DB
ENCODING 219
SWIDTH 501 0
DWIDTH 39 0
BBX 33 70 3 -1
BITMAP
000FF80000
001FFC0000
001FFE0000
003F7F0000
007F3F0000
00FE1F8000
00FC0FC000
01F80FE000
03F007F000
07E003F000
0000000000
0000000000
0000000000
0000000000
0000000000
FF00003F80
FF00003F80
FF00003F80
FF00003F80
FF00003F80
FF00003F80
FF00003F80
FF00003F80
FF00003F80
FF00003F80
FF00003F80
FF00003F80
FF00003F80
FF00003F80
FF00003F80
FF00003F80
FF00003F80
FF00003F80
FF00003F80
FF00003F80
FF00003F80
FF00003F80
FF00003F80
FF00003F80
FF00003F80
FF00003F80
FF00003F80
FF00003F80
FF00003F80
FF00003F80
FF00003F80
FF00003F80
FF00003F80
FF00003F80
FF00003F80
FF00003F80
FF00003F80
FF00003F80
FF00003F80
FF00003F80
7F00007F80
7F00007F80
7F80007F80
7F8000FF00
3FC000FF00
3FC001FF00
3FE003FE00
1FF807FE00
0FFFFFFC00
0FFFFFF800
07FFFFF000
03FFFFE000
00FFFFC000
007FFF0000
000FFC0000
ENDCHAR
STARTCHAR 00DC
ENCODING 220
SWIDTH 501 0
DWIDTH 39 0
BBX 33 70 3 -1
BITMAP
07F001F800
0FF807FC00
1FFC07FE00
1FFC0FFE00
1FFC0FFE00
1FFC0FFF00
1FFC0FFE00
1FFC0FFE00
0FF807FC00
07F003FC00
01C000E000
0000000000
0000000000
0000000000
0000000000
FF00003F80
FF00003F80
FF00003F80
FF00003F80
FF00003F80
FF00003F80
FF00003F80
FF00003F80
FF00003F80
FF00003F80
FF00003F80
FF00003F80
FF00003F80
FF00003F80
FF00003F80
FF00003F80
FF00003F80
FF00003F80
FF00003F80
FF00003F80
FF00003F80
FF00003F80
FF00003F80
FF00003F80
FF00003F80
FF00003F80
FF00003F80
FF00003F80
FF00003F80
FF00003F80
FF00003F80
FF00003F80
FF00003F80
FF00003F80
FF00003F80
FF00003F80
FF00003F80
FF00003F80
FF00003F80
FF00003F80
7F00007F80
7F00007F80
7F80007F80
7F8000FF00
3FC000FF00
3FC001FF00
3FE003FE00
1FF807FE00
0FFFFFFC00
0FFFFFF800
07FFFFF000
03FFFFE000
00FFFFC000
007FFF0000
000FFC0000
ENDCHAR
STARTCHAR 00DD
ENCODING 221
SWIDTH 488 0
DWIDTH 38 0
BBX 33 69 3 0
BITMAP
00003F0000
00003F0000
00007E0000
0000FC0000
0000F80000
0001F80000
0001F00000
0003E00000
0003C00000
0007C00000
0000000000
0000000000
0000000000
0000000000
0000000000
FE00007F80
FE00007F80
FE00007F80
FE00007F80
FE00007F80
FE00007F80
FE00007F80
FE00007F80
FE00007F80
FE00007F80
FE00007F80
FE00007F80
FE00007F80
FE00007F80
FE00007F80
FE00007F80
FE00007F80
FE00007F80
FE00007F80
FE00007F80
FE00007F80
FE00007F80
FE00007F80
FE00007F80
FE00007F80
FF00007F80
FF00007F80
FF00007F00
7F00007F00
7F8000FF00
7F8000FF00
3FC001FE00
3FE003FE00
3FF00FFC00
1FFFFFFC00
0FFFFFF800
07FFFFF000
03FFFFE000
01FFFFC000
007FFF0000
001FFC0000
0007F00000
0007F00000
0007F00000
0007F00000
0007F00000
0007F00000
0007F00000
0007F00000
0007F00000
0007F00000
0007F00000
0007F00000
0007F00000
ENDCHAR
STARTCHAR 00E0
ENCODING 224
SWIDTH 552 0
DWIDTH 43 0
BBX 38 69 4 0
BITMAP
00FE000000
007E000000
003F000000
001F000000
001F800000
000F800000
0007C00000
0003E00000
0003E00000
0001F00000
0000000000
0000000000
0000000000
0003C00000
003FFC0000
00FFFF8000
03FFFFC000
07FFFFE000
0FFFFFF000
0FFFFFF800
1FFC1FFC00
3FF007FC00
3FC003FE00
7FC001FE00
7F8000FF00
7F0000FF00
FF00007F00
FF00007F00
FF00007F80
FE00007F80
FE00007F80
FE00007F80
FE00007F80
FE00007F80
FE00007F80
FE00007F80
FE00007F80
FE00007F80
FE00007F80
FE00007F80
FE00007F80
FE00007F80
FE00007F80
FE00007F80
FE00007F80
FE00007F80
FE00007F80
FE00007F80
FE00007F80
FE00007F80
FE00007F80
FE00007F80
FE00007F80
FE00007F80
FE00007F80
FE00007F80
FE00007F80
FE00007F80
FE00007F80
FE00007F80
FE00007F80
FE00007F80
FFFFFFFFFC
FFFFFFFFFC
FFFFFFFFFC
FFFFFFFFFC
FFFFFFFFFC
FFFFFFFFFC
FFFFFFFFFC
ENDCHAR
STARTCHAR 00E1
ENCODING 225
SWIDTH 552 0
DWIDTH 43 0
BBX 38 69 4 0
BITMAP
00003F0000
00007E0000
00007E0000
0000FC0000
0000F80000
0001F00000
0001F00000
0003E00000
0007C00000
0007800000
0000000000
0000000000
0000000000
0003C00000
003FFC0000
00FFFF8000
03FFFFC000
07FFFFE000
0FFFFFF000
0FFFFFF800
1FFC1FFC00
3FF007FC00
3FC003FE00
7FC001FE00
7F8000FF00
7F0000FF00
FF00007F00
FF00007F00
FF00007F80
FE00007F80
FE00007F80
FE00007F80
FE00007F80
FE00007F80
FE00007F80
FE00007F80
FE00007F80
FE00007F80
FE00007F80
FE00007F80
FE00007F80
FE00007F80
FE00007F80
FE00007F80
FE00007F80
FE00007F80
FE00007F80
FE00007F80
FE00007F80
FE00007F80
FE00007F80
FE00007F80
FE00007F80
FE00007F80
FE00007F80
FE00007F80
FE00007F80
FE00007F80
FE00007F80
FE00007F80
FE00007F80
FE00007F80
FFFFFFFFFC
FFFFFFFFFC
FFFFFFFFFC
FFFFFFFFFC
FFFFFFFFFC
FFFFFFFFFC
FFFFFFFFFC
ENDCHAR
STARTCHAR 00E2
ENCODING 226
SWIDTH 552 0
DWIDTH 43 0
BBX 38 69 4 0
BITMAP
000FF80000
001FFC0000
003FFE0000
007F7E0000
007E3F0000
00FC3F8000
01F81FC000
03F80FC000
03F007E000
07E003F000
0000000000
0000000000
0000000000
0003C00000
003FFC0000
00FFFF8000
03FFFFC000
07FFFFE000
0FFFFFF000
0FFFFFF800
1FFC1FFC00
3FF007FC00
3FC003FE00
7FC001FE00
7F8000FF00
7F0000FF00
FF00007F00
FF00007F00
FF00007F80
FE00007F80
FE00007F80
FE00007F80
FE00007F80
FE00007F80
FE00007F80
FE00007F80
FE00007F80
FE00007F80
FE00007F80
FE00007F80
FE00007F80
FE00007F80
FE00007F80
FE00007F80
FE00007F80
FE00007F80
FE00007F80
FE00007F80
FE00007F80
FE00007F80
FE00007F80
FE00007F80
FE00007F80
FE00007F80
FE00007F80
FE00007F80
FE00007F80
FE00007F80
FE00007F80
FE00007F80
FE00007F80
FE00007F80
FFFFFFFFFC
FFFFFFFFFC
FFFFFFFFFC
FFFFFFFFFC
FFFFFFFFFC
FFFFFFFFFC
FFFFFFFFFC
ENDCHAR
STARTCHAR 00E3
ENCODING 227
SWIDTH 552 0
DWIDTH 43 0
BBX 38 69 4 0
BITMAP
0078000000
03FF018000
03FFFF8000
03FFFF8000
03FFFF8000
0303FF8000
00007C0000
0000000000
0000000000
0000000000
0000000000
0000000000
0000000000
0003C00000
003FFC0000
00FFFF8000
03FFFFC000
07FFFFE000
0FFFFFF000
0FFFFFF800
1FFC1FFC00
3FF007FC00
3FC003FE00
7FC001FE00
7F8000FF00
7F0000FF00
FF00007F00
FF00007F00
FF00007F80
FE00007F80
FE00007F80
FE00007F80
FE00007F80
FE00007F80
FE00007F80
FE00007F80
FE00007F80
FE00007F80
FE00007F80
FE00007F80
FE00007F80
FE00007F80
FE00007F80
FE00007F80
FE00007F80
FE00007F80
FE00007F80
FE00007F80
FE00007F80
FE00007F80
FE00007F80
FE00007F80
FE00007F80
FE00007F80
FE00007F80
FE00007F80
FE00007F80
FE00007F80
FE00007F80
FE00007F80
FE00007F80
FE00007F80
FFFFFFFFFC
FFFFFFFFFC
FFFFFFFFFC
FFFFFFFFFC
FFFFFFFFFC
FFFFFFFFFC
FFFFFFFFFC
ENDCHAR
STARTCHAR 00E4
ENCODING 228
SWIDTH 552 0
DWIDTH 43 0
BBX 38 69 4 0
BITMAP
07E003F800
0FF807FC00
1FF80FFC00
1FFC0FFE00
3FFC0FFE00
3FFC0FFE00
3FFC0FFE00
1FF80FFE00
1FF807FC00
0FF003F800
01C000E000
0000000000
0000000000
0003C00000
003FFC0000
00FFFF8000
03FFFFC000
07FFFFE000
0FFFFFF000
0FFFFFF800
1FFC1FFC00
3FF007FC00
3FC003FE00
7FC001FE00
7F8000FF00
7F0000FF00
FF00007F00
FF00007F00
FF00007F80
FE00007F80
FE00007F80
FE00007F80
FE00007F80
FE00007F80
FE00007F80
FE00007F80
FE00007F80
FE00007F80
FE00007F80
FE00007F80
FE00007F80
FE00007F80
FE00007F80
FE00007F80
FE00007F80
FE00007F80
FE00007F80
FE00007F80
FE00007F80
FE00007F80
FE00007F80
FE00007F80
FE00007F80
FE00007F80
FE00007F80
FE00007F80
FE00007F80
FE00007F80
FE00007F80
FE00007F80
FE00007F80
FE00007F80
FFFFFFFFFC
FFFFFFFFFC
FFFFFFFFFC
FFFFFFFFFC
FFFFFFFFFC
FFFFFFFFFC
FFFFFFFFFC
ENDCHAR
STARTCHAR 00E5
ENCODING 229
SWIDTH 552 0
DWIDTH 43 0
BBX 38 75 4 0
BITMAP
0001C00000
000FF00000
001FFC0000
003FFE0000
007E3E0000
00781F0000
00780F0000
00F00F0000
00F00F0000
00700F0000
00780F0000
007C1E0000
003FFE0000
003FFC0000
000FF80000
0007E00000
0000000000
0000000000
0000000000
0003C00000
003FFC0000
00FFFF8000
03FFFFC000
07FFFFE000
0FFFFFF000
0FFFFFF800
1FFC1FFC00
3FF007FC00
3FC003FE00
7FC001FE00
7F8000FF00
7F0000FF00
FF00007F00
FF00007F00
FF00007F80
FE00007F80
FE00007F80
FE00007F80
FE00007F80
FE00007F80
FE00007F80
FE00007F80
FE00007F80
FE00007F80
FE00007F80
FE00007F80
FE00007F80
FE00007F80
FE00007F80
FE00007F80
FE00007F80
FE00007F80
FE00007F80
FE00007F80
FE00007F80
FE00007F80
FE00007F80
FE00007F80
FE00007F80
FE00007F80
FE00007F80
FE00007F80
FE00007F80
FE00007F80
FE00007F80
FE00007F80
FE00007F80
FE00007F80
FFFFFFFFFC
FFFFFFFFFC
FFFFFFFFFC
FFFFFFFFFC
FFFFFFFFFC
FFFFFFFFFC
FFFFFFFFFC
ENDCHAR
STARTCHAR 00E7
ENCODING 231
SWIDTH 681 0
DWIDTH 53 0
BBX 49 73 3 -17
BITMAP
0000003C000000
00000FFFF00000
00007FFFFE0000
0001FFFFFF8000
0007FFFFFFE000
001FFFFFFFF800
003FFFFFFFFC00
007FFFC1FFFE00
00FFF8001FFF00
01FFE00003FF80
03FF800001FF80
07FE0000007F00
0FFC0000003E00
0FF80000001C00
1FF00000000000
1FE00000000000
3FE00000000000
3FC00000000000
7F800000000000
7F800000000000
7F000000000000
FF000000000000
FF000000000000
FF000000000000
FE000000000000
FE000000000000
FE000000000000
FE000000000000
FE000000000000
FE000000000000
FE000000000000
FE000000000000
FE000000000000
FE000000000000
FF000000000000
FF000000000000
7F000000000000
7F800000000000
7F800000000000
3FC00000000000
3FC00000000000
3FE00000000000
1FF00000000000
0FF00000001800
0FF80000003C00
07FE0000007E00
03FF000000FF00
03FF800003FF80
01FFE00007FF00
00FFFC003FFE00
003FFFFFFFFC00
001FFFFFFFF800
000FFFFFFFF000
0003FFFFFFC000
0000FFFFFF0000
00003FFFFC0000
000003FFE00000
000000F0000000
000000F0000000
000000FC000000
000000FE000000
0000001F000000
0000000F800000
00000007800000
00000007800000
00001007800000
00003807800000
00007C0F800000
00007F1F800000
00003FFF000000
00001FFE000000
000007FC000000
000000E0000000
ENDCHAR
STARTCHAR 00E8
ENCODING 232
SWIDTH 488 0
DWIDTH 38 0
BBX 36 69 2 0
BITMAP
00FC000000
007E000000
003F000000
003F000000
001F800000
000F800000
0007C00000
0007C00000
0003E00000
0001F00000
0000000000
0000000000
0000000000
0000000000
0000000000
07FFFFE000
07FFFFE000
07FFFFE000
07FFFFE000
07FFFFE000
07FFFFE000
07F8000000
07F8000000
07F8000000
07F8000000
07F8000000
07F8000000
07F8000000
07F8000000
07F8000000
07F8000000
07F8000000
07F8000000
07F8000000
07F8000000
07F8000000
07F8000000
07F8000000
FFFFFFFE00
FFFFFFFE00
FFFFFFFE00
FFFFFFFE00
FFFFFFFE00
FFFFFFFE00
FFFFFFFE00
07F8000000
07F8000000
07F8000000
07F8000000
07F8000000
07F8000000
07F8000000
07F8000000
07F8000000
07F8000000
07F8000000
07F8000000
07F8000000
07F8000000
07F8000000
07F8000000
07F8000000
07FFFFFFF0
07FFFFFFF0
07FFFFFFF0
07FFFFFFF0
07FFFFFFF0
07FFFFFFF0
07FFFFFFF0
ENDCHAR
STARTCHAR 00E9
ENCODING 233
SWIDTH 488 0
DWIDTH 38 0
BBX 36 69 2 0
BITMAP
00003F0000
00007E0000
00007E0000
0000FC0000
0000F80000
0001F00000
0003F00000
0003E00000
0007C00000
0007800000
0000000000
0000000000
0000000000
0000000000
0000000000
07FFFFE000
07FFFFE000
07FFFFE000
07FFFFE000
07FFFFE000
07FFFFE000
07F8000000
07F8000000
07F8000000
07F8000000
07F8000000
07F8000000
07F8000000
07F8000000
07F8000000
07F8000000
07F8000000
07F8000000
07F8000000
07F8000000
07F8000000
07F8000000
07F8000000
FFFFFFFE00
FFFFFFFE00
FFFFFFFE00
FFFFFFFE00
FFFFFFFE00
FFFFFFFE00
FFFFFFFE00
07F8000000
07F8000000
07F8000000
07F8000000
07F8000000
07F8000000
07F8000000
07F8000000
07F8000000
07F8000000
07F8000000
07F8000000
07F8000000
07F8000000
07F8000000
07F8000000
07F8000000
07FFFFFFF0
07FFFFFFF0
07FFFFFFF0
07FFFFFFF0
07FFFFFFF0
07FFFFFFF0
07FFFFFFF0
ENDCHAR
STARTCHAR 00EA
ENCODING 234
SWIDTH 488 0
DWIDTH 38 0
BBX 36 69 2 0
BITMAP
000FF80000
001FFC0000
003FFC0000
007FFE0000
007E7F0000
00FC3F8000
01F81F8000
03F00FC000
07F007E000
07E003F000
0000000000
0000000000
0000000000
0000000000
0000000000
07FFFFE000
07FFFFE000
07FFFFE000
07FFFFE000
07FFFFE000
07FFFFE000
07F8000000
07F8000000
07F8000000
07F8000000
07F8000000
07F8000000
07F8000000
07F8000000
07F8000000
07F8000000
07F8000000
07F8000000
07F8000000
07F8000000
07F8000000
07F8000000
07F8000000
FFFFFFFE00
FFFFFFFE00
FFFFFFFE00
FFFFFFFE00
FFFFFFFE00
FFFFFFFE00
FFFFFFFE00
07F8000000
07F8000000
07F8000000
07F8000000
07F8000000
07F8000000
07F8000000
07F8000000
07F8000000
07F8000000
07F8000000
07F8000000
07F8000000
07F8000000
07F8000000
07F8000000
07F8000000
07FFFFFFF0
07FFFFFFF0
07FFFFFFF0
07FFFFFFF0
07FFFFFFF0
07FFFFFFF0
07FFFFFFF0
ENDCHAR
STARTCHAR 00EB
ENCODING 235
SWIDTH 488 0
DWIDTH 38 0
BBX 36 69 2 0
BITMAP
07E003F000
0FF007FC00
1FF80FFC00
3FF80FFE00
3FFC1FFE00
3FFC1FFE00
3FFC0FFE00
1FF80FFC00
1FF80FFC00
0FF007F800
03C000E000
0000000000
0000000000
0000000000
0000000000
07FFFFE000
07FFFFE000
07FFFFE000
07FFFFE000
07FFFFE000
07FFFFE000
07F8000000
07F8000000
07F8000000
07F8000000
07F8000000
07F8000000
07F8000000
07F8000000
07F8000000
07F8000000
07F8000000
07F8000000
07F8000000
07F8000000
07F8000000
07F8000000
07F8000000
FFFFFFFE00
FFFFFFFE00
FFFFFFFE00
FFFFFFFE00
FFFFFFFE00
FFFFFFFE00
FFFFFFFE00
07F8000000
07F8000000
07F8000000
07F8000000
07F8000000
07F8000000
07F8000000
07F8000000
07F8000000
07F8000000
07F8000000
07F8000000
07F8000000
07F8000000
07F8000000
07F8000000
07F8000000
07FFFFFFF0
07FFFFFFF0
07FFFFFFF0
07FFFFFFF0
07FFFFFFF0
07FFFFFFF0
07FFFFFFF0
ENDCHAR
STARTCHAR 00EC
ENCODING 236
SWIDTH 192 0
DWIDTH 15 0
BBX 12 48 0 0
BITMAP
FC00
7E00
7E00
3F00
1F00
0F80
0F80
07C0
03E0
01E0
0000
0000
0000
0000
0000
0FF0
0FF0
0FF0
0FF0
0FF0
0FF0
0FF0
0FF0
0FF0
0FF0
0FF0
0FF0
0FF0
0FF0
0FF0
0FF0
0FF0
0FF0
0FF0
0FF0
0FF0
0FF0
0FF0
0FF0
0FF0
0FF0
0FF0
0FF0
0FF0
0FF0
0FF0
0FF0
0FF0
ENDCHAR
STARTCHAR 00ED
ENCODING 237
SWIDTH 192 0
DWIDTH 15 0
BBX 12 48 4 0
BITMAP
03F0
07E0
0FC0
0F80
1F80
1F00
3E00
7C00
7C00
F800
0000
0000
0000
0000
0000
FF00
FF00
FF00
FF00
FF00
FF00
FF00
FF00
FF00
FF00
FF00
FF00
FF00
FF00
FF00
FF00
FF00
FF00
FF00
FF00
FF00
FF00
FF00
FF00
FF00
FF00
FF00
FF00
FF00
FF00
FF00
FF00
FF00
ENDCHAR
STARTCHAR 00EE
ENCODING 238
SWIDTH 192 0
DWIDTH 15 0
BBX 23 48 -4 0
BITMAP
01FF00
01FF80
03FFC0
07EFE0
0FE7F0
1FC3F0
1F81F8
3F00FC
7E00FE
FC007E
000000
000000
000000
000000
000000
00FF00
00FF00
00FF00
00FF00
00FF00
00FF00
00FF00
00FF00
00FF00
00FF00
00FF00
00FF00
00FF00
00FF00
00FF00
00FF00
00FF00
00FF00
00FF00
00FF00
00FF00
00FF00
00FF00
00FF00
00FF00
00FF00
00FF00
00FF00
00FF00
00FF00
00FF00
00FF00
00FF00
ENDCHAR
STARTCHAR 00EF
ENCODING 239
SWIDTH 192 0
DWIDTH 15 0
BBX 29 48 -6 0
BITMAP
3F800FC0
7FC03FE0
FFE03FF0
FFE07FF0
FFE07FF8
FFE07FF8
FFE07FF0
FFE03FF0
7FC03FF0
3F801FE0
0E000700
00000000
00000000
00000000
00000000
003FC000
003FC000
003FC000
003FC000
003FC000
003FC000
003FC000
003FC000
003FC000
003FC000
003FC000
003FC000
003FC000
003FC000
003FC000
003FC000
003FC000
003FC000
003FC000
003FC000
003FC000
003FC000
003FC000
003FC000
003FC000
003FC000
003FC000
003FC000
003FC000
003FC000
003FC000
003FC000
003FC000
ENDCHAR
STARTCHAR 00F1
ENCODING 241
SWIDTH 514 0
DWIDTH 40 0
BBX 36 69 1 0
BITMAP
000F000000
007FE03000
007FFFF000
007FFFF000
007FFFF000
00607FF000
00000F8000
0000000000
0000000000
0000000000
0000000000
0000000000
0000000000
0800000000
1C00000000
1F00000FF0
3F80000FF0
7FC0000FF0
FFF0000FF0
7FF8000FF0
3FFC000FF0
1FFE000FF0
1FFF800FF0
1FFFC00FF0
1FFFE00FF0
1FFFF80FF0
1FFFFC0FF0
1FFFFE0FF0
1FE7FF0FF0
1FE3FFCFF0
1FE1FFEFF0
1FE07FFFF0
1FE03FFFF0
1FE01FFFF0
1FE00FFFF0
1FE003FFF0
1FE001FFF0
1FE000FFF0
1FE0003FF0
1FE0001FF0
1FE0000FF0
1FE0000FF0
1FE0000FF0
1FE0000FF0
1FE0000FF0
1FE0000FF0
1FE0000FF0
1FE0000FF0
1FE0000FF0
1FE0000FF0
1FE0000FF0
1FE0000FF0
1FE0000FF0
1FE0000FF0
1FE0000FF0
1FE0000FF0
1FE0000FF0
1FE0000FF0
1FE0000FF0
1FE0000FF0
1FE0000FF0
1FE0000FF0
1FE0000FF0
1FE0000FF0
1FE0000FF0
1FE0000FF0
1FE0000FF0
1FE0000FF0
1FE0000FF0
ENDCHAR
STARTCHAR 00F2
ENCODING 242
SWIDTH 810 0
DWIDTH 63 0
BBX 58 70 3 -1
BITMAP
000007E000000000
000003F000000000
000003F000000000
000001F800000000
000000F800000000
0000007C00000000
0000007C00000000
0000003E00000000
0000001F00000000
0000000F00000000
0000000000000000
0000000000000000
0000000000000000
0000003E00000000
00000FFFF8000000
00007FFFFF000000
0001FFFFFFC00000
0007FFFFFFF00000
000FFFFFFFFC0000
003FFFFFFFFE0000
007FFFC0FFFF0000
00FFF8000FFF8000
01FFE00001FFC000
03FF8000007FE000
07FE0000003FF000
07FC0000001FF800
0FF80000000FFC00
1FF000000007FC00
1FE000000003FE00
3FE000000001FE00
3FC000000001FF00
7F8000000000FF00
7F80000000007F00
7F00000000007F80
FF00000000007F80
FF00000000003F80
FF00000000003F80
FE00000000003FC0
FE00000000003FC0
FE00000000003FC0
FE00000000003FC0
FE00000000003FC0
FE00000000003FC0
FE00000000003FC0
FE00000000003FC0
FE00000000003FC0
FE00000000003FC0
FF00000000003F80
FF00000000007F80
7F00000000007F80
7F80000000007F80
7F8000000000FF00
3FC000000000FF00
3FC000000001FE00
3FE000000001FE00
1FF000000003FC00
0FF000000007FC00
0FFC0000000FF800
07FE0000001FF800
03FF0000007FF000
01FFC00000FFE000
01FFF00003FFC000
00FFFC001FFF8000
003FFFFFFFFF0000
001FFFFFFFFE0000
000FFFFFFFF80000
0003FFFFFFE00000
0000FFFFFF800000
00003FFFFE000000
000003FFE0000000
ENDCHAR
STARTCHAR 00F3
ENCODING 243
SWIDTH 810 0
DWIDTH 63 0
BBX 58 70 3 -1
BITMAP
00000003F8000000
00000003F0000000
00000007E0000000
00000007C0000000
0000000FC0000000
0000000F80000000
0000001F00000000
0000003E00000000
0000003E00000000
0000007C00000000
0000000000000000
0000000000000000
0000000000000000
0000003E00000000
00000FFFF8000000
00007FFFFF000000
0001FFFFFFC00000
0007FFFFFFF00000
000FFFFFFFFC0000
003FFFFFFFFE0000
007FFFC0FFFF0000
00FFF8000FFF8000
01FFE00001FFC000
03FF8000007FE000
07FE0000003FF000
07FC0000001FF800
0FF80000000FFC00
1FF000000007FC00
1FE000000003FE00
3FE000000001FE00
3FC000000001FF00
7F8000000000FF00
7F80000000007F00
7F00000000007F80
FF00000000007F80
FF00000000003F80
FF00000000003F80
FE00000000003FC0
FE00000000003FC0
FE00000000003FC0
FE00000000003FC0
FE00000000003FC0
FE00000000003FC0
FE00000000003FC0
FE00000000003FC0
FE00000000003FC0
FE00000000003FC0
FF00000000003F80
FF00000000007F80
7F00000000007F80
7F80000000007F80
7F8000000000FF00
3FC000000000FF00
3FC000000001FE00
3FE000000001FE00
1FF000000003FC00
0FF000000007FC00
0FFC0000000FF800
07FE0000001FF800
03FF0000007FF000
01FFC00000FFE000
01FFF00003FFC000
00FFFC001FFF8000
003FFFFFFFFF0000
001FFFFFFFFE0000
000FFFFFFFF80000
0003FFFFFFE00000
0000FFFFFF800000
00003FFFFE000000
000003FFE0000000
ENDCHAR
STARTCHAR 00F4
ENCODING 244
SWIDTH 810 0
DWIDTH 63 0
BBX 58 70 3 -1
BITMAP
000000FF80000000
000001FFC0000000
000001FFE0000000
000003F7F0000000
000007F3F0000000
00000FE1F8000000
00000FC0FC000000
00001F80FE000000
00003F007F000000
00007E003F000000
0000000000000000
0000000000000000
0000000000000000
0000003E00000000
00000FFFF8000000
00007FFFFF000000
0001FFFFFFC00000
0007FFFFFFF00000
000FFFFFFFFC0000
003FFFFFFFFE0000
007FFFC0FFFF0000
00FFF8000FFF8000
01FFE00001FFC000
03FF8000007FE000
07FE0000003FF000
07FC0000001FF800
0FF80000000FFC00
1FF000000007FC00
1FE000000003FE00
3FE000000001FE00
3FC000000001FF00
7F8000000000FF00
7F80000000007F00
7F00000000007F80
FF00000000007F80
FF00000000003F80
FF00000000003F80
FE00000000003FC0
FE00000000003FC0
FE00000000003FC0
FE00000000003FC0
FE00000000003FC0
FE00000000003FC0
FE00000000003FC0
FE00000000003FC0
FE00000000003FC0
FE00000000003FC0
FF00000000003F80
FF00000000007F80
7F00000000007F80
7F80000000007F80
7F8000000000FF00
3FC000000000FF00
3FC000000001FE00
3FE000000001FE00
1FF000000003FC00
0FF000000007FC00
0FFC0000000FF800
07FE0000001FF800
03FF0000007FF000
01FFC00000FFE000
01FFF00003FFC000
00FFFC001FFF8000
003FFFFFFFFF0000
001FFFFFFFFE0000
000FFFFFFFF80000
0003FFFFFFE00000
0000FFFFFF800000
00003FFFFE000000
000003FFE0000000
ENDCHAR
STARTCHAR 00F5
ENCODING 245
SWIDTH 810 0
DWIDTH 63 0
BBX 58 70 3 -1
BITMAP
0000078000000000
00003FF808000000
00003FFFF8000000
00003FFFF8000000
00003FFFF8000000
0000303FF8000000
00000007C0000000
0000000000000000
0000000000000000
0000000000000000
0000000000000000
0000000000000000
0000000000000000
0000003E00000000
00000FFFF8000000
00007FFFFF000000
0001FFFFFFC00000
0007FFFFFFF00000
000FFFFFFFFC0000
003FFFFFFFFE0000
007FFFC0FFFF0000
00FFF8000FFF8000
01FFE00001FFC000
03FF8000007FE000
07FE0000003FF000
07FC0000001FF800
0FF80000000FFC00
1FF000000007FC00
1FE000000003FE00
3FE000000001FE00
3FC000000001FF00
7F8000000000FF00
7F80000000007F00
7F00000000007F80
FF00000000007F80
FF00000000003F80
FF00000000003F80
FE00000000003FC0
FE00000000003FC0
FE00000000003FC0
FE00000000003FC0
FE00000000003FC0
FE00000000003FC0
FE00000000003FC0
FE00000000003FC0
FE00000000003FC0
FE00000000003FC0
FF00000000003F80
FF00000000007F80
7F00000000007F80
7F80000000007F80
7F8000000000FF00
3FC000000000FF00
3FC000000001FE00
3FE000000001FE00
1FF000000003FC00
0FF000000007FC00
0FFC0000000FF800
07FE0000001FF800
03FF0000007FF000
01FFC00000FFE000
01FFF00003FFC000
00FFFC001FFF8000
003FFFFFFFFF0000
001FFFFFFFFE0000
000FFFFFFFF80000
0003FFFFFFE00000
0000FFFFFF800000
00003FFFFE000000
000003FFE0000000
ENDCHAR
STARTCHAR 00F6
ENCODING 246
SWIDTH 810 0
DWIDTH 63 0
BBX 58 70 3 -1
BITMAP
00007F003F800000
0000FF807FC00000
0001FFC07FE00000
0001FFC0FFE00000
0001FFC0FFE00000
0001FFC0FFF00000
0001FFC0FFE00000
0001FFC0FFE00000
0000FF807FC00000
00007F003FC00000
00001C000E000000
0000000000000000
0000000000000000
0000003E00000000
00000FFFF8000000
00007FFFFF000000
0001FFFFFFC00000
0007FFFFFFF00000
000FFFFFFFFC0000
003FFFFFFFFE0000
007FFFC0FFFF0000
00FFF8000FFF8000
01FFE00001FFC000
03FF8000007FE000
07FE0000003FF000
07FC0000001FF800
0FF80000000FFC00
1FF000000007FC00
1FE000000003FE00
3FE000000001FE00
3FC000000001FF00
7F8000000000FF00
7F80000000007F00
7F00000000007F80
FF00000000007F80
FF00000000003F80
FF00000000003F80
FE00000000003FC0
FE00000000003FC0
FE00000000003FC0
FE00000000003FC0
FE00000000003FC0
FE00000000003FC0
FE00000000003FC0
FE00000000003FC0
FE00000000003FC0
FE00000000003FC0
FF00000000003F80
FF00000000007F80
7F00000000007F80
7F80000000007F80
7F8000000000FF00
3FC000000000FF00
3FC000000001FE00
3FE000000001FE00
1FF000000003FC00
0FF000000007FC00
0FFC0000000FF800
07FE0000001FF800
03FF0000007FF000
01FFC00000FFE000
01FFF00003FFC000
00FFFC001FFF8000
003FFFFFFFFF0000
001FFFFFFFFE0000
000FFFFFFFF80000
0003FFFFFFE00000
0000FFFFFF800000
00003FFFFE000000
000003FFE0000000
ENDCHAR
STARTCHAR 00F7
ENCODING 247
SWIDTH 552 0
DWIDTH 43 0
BBX 35 34 4 8
BITMAP
0001F00000
0003FC0000
0007FC0000
0007FE0000
0007FE0000
0007FE0000
0007FC0000
0003FC0000
0003F80000
0000600000
0000000000
0000000000
0000000000
0000000000
FFFFFFFFE0
FFFFFFFFE0
FFFFFFFFE0
FFFFFFFFE0
FFFFFFFFE0
FFFFFFFFE0
0000000000
0000000000
0000000000
0000000000
0000600000
0003F80000
0003FC0000
0007FC0000
0007FE0000
0007FE0000
0007FE0000
0007FC0000
0003FC0000
0001F80000
ENDCHAR
STARTCHAR 00F8
ENCODING 248
SWIDTH 784 0
DWIDTH 61 0
BBX 58 59 2 -3
BITMAP
0000000000003000
0000001F00003800
000007FFFC007C00
00003FFFFF00FE00
0001FFFFFFE1FC00
0007FFFFFFFBF800
000FFFFFFFFFF000
001FFFFFFFFFE000
007FFFC0FFFFE000
00FFF80007FFC000
01FFE00001FFE000
03FF8000007FF000
03FF000000FFF000
07FC000001FFF800
0FF8000003FFFC00
1FF0000007FBFC00
1FF000000FF3FE00
3FE000000FE1FE00
3FC000001FC0FF00
3FC000003F80FF00
7F8000007F007F80
7F800000FE007F80
7F000001FC003F80
FF000003FC003F80
FF000003F8003FC0
FF000007F0003FC0
FE00000FE0003FC0
FE00001FC0001FC0
FE00003F80001FC0
FE00007F00001FC0
FE0000FF00001FC0
FE0001FE00001FC0
FE0001FC00003FC0
FE0003F800003FC0
FF0007F000003FC0
FF000FE000003F80
7F001FC000003F80
7F803F8000007F80
7F807F8000007F80
7F807F000000FF00
3FC0FE000000FF00
3FE1FC000001FF00
1FE3F8000001FE00
1FF7F0000003FE00
0FFFE0000007FC00
0FFFC000000FF800
07FFC000001FF800
03FF8000007FF000
01FFC00000FFE000
00FFF00003FFC000
01FFFE001FFF8000
03FFFFFFFFFF0000
07FFFFFFFFFE0000
0FF7FFFFFFF80000
1FE3FFFFFFE00000
1FC0FFFFFF800000
1F801FFFFE000000
0F0001FFE0000000
0600000000000000
ENDCHAR
STARTCHAR 00F9
ENCODING 249
SWIDTH 501 0
DWIDTH 39 0
BBX 33 70 3 -1
BITMAP
007E000000
003F000000
003F000000
001F800000
000F800000
0007C00000
0007C00000
0003E00000
0001F00000
0000F00000
0000000000
0000000000
0000000000
0000000000
0000000000
FF00003F80
FF00003F80
FF00003F80
FF00003F80
FF00003F80
FF00003F80
FF00003F80
FF00003F80
FF00003F80
FF00003F80
FF00003F80
FF00003F80
FF00003F80
FF00003F80
FF00003F80
FF00003F80
FF00003F80
FF00003F80
FF00003F80
FF00003F80
FF00003F80
FF00003F80
FF00003F80
FF00003F80
FF00003F80
FF00003F80
FF00003F80
FF00003F80
FF00003F80
FF00003F80
FF00003F80
FF00003F80
FF00003F80
FF00003F80
FF00003F80
FF00003F80
FF00003F80
FF00003F80
FF00003F80
FF00003F80
7F00007F80
7F00007F80
7F80007F80
7F8000FF00
3FC000FF00
3FC001FF00
3FE003FE00
1FF807FE00
0FFFFFFC00
0FFFFFF800
07FFFFF000
03FFFFE000
00FFFFC000
007FFF0000
000FFC0000
ENDCHAR
STARTCHAR 00FA
ENCODING 250
SWIDTH 501 0
DWIDTH 39 0
BBX 33 70 3 -1
BITMAP
00001F8000
00003F0000
00007E0000
00007C0000
0000FC0000
0000F80000
0001F00000
0003E00000
0003E00000
0007C00000
0000000000
0000000000
0000000000
0000000000
0000000000
FF00003F80
FF00003F80
FF00003F80
FF00003F80
FF00003F80
FF00003F80
FF00003F80
FF00003F80
FF00003F80
FF00003F80
FF00003F80
FF00003F80
FF00003F80
FF00003F80
FF00003F80
FF00003F80
FF00003F80
FF00003F80
FF00003F80
FF00003F80
FF00003F80
FF00003F80
FF00003F80
FF00003F80
FF00003F80
FF00003F80
FF00003F80
FF00003F80
FF00003F80
FF00003F80
FF00003F80
FF00003F80
FF00003F80
FF00003F80
FF00003F80
FF00003F80
FF00003F80
FF00003F80
FF00003F80
FF00003F80
7F00007F80
7F00007F80
7F80007F80
7F8000FF00
3FC000FF00
3FC001FF00
3FE003FE00
1FF807FE00
0FFFFFFC00
0FFFFFF800
07FFFFF000
03FFFFE000
00FFFFC000
007FFF0000
000FFC0000
ENDCHAR
STARTCHAR 00FB
ENCODING 251
SWIDTH 501 0
DWIDTH 39 0
BBX 33 70 3 -1
BITMAP
000FF80000
001FFC0000
001FFE0000
003F7F0000
007F3F0000
00FE1F8000
00FC0FC000
01F80FE000
03F007F000
07E003F000
0000000000
0000000000
0000000000
0000000000
0000000000
FF00003F80
FF00003F80
FF00003F80
FF00003F80
FF00003F80
FF00003F80
FF00003F80
FF00003F80
FF00003F80
FF00003F80
FF00003F80
FF00003F80
FF00003F80
FF00003F80
FF00003F80
FF00003F80
FF00003F80
FF00003F80
FF00003F80
FF00003F80
FF00003F80
FF00003F80
FF00003F80
FF00003F80
FF00003F80
FF00003F80
FF00003F80
FF00003F80
FF00003F80
FF00003F80
FF00003F80
FF00003F80
FF00003F80
FF00003F80
FF00003F80
FF00003F80
FF00003F80
FF00003F80
FF00003F80
FF00003F80
7F00007F80
7F00007F80
7F80007F80
7F8000FF00
3FC000FF00
3FC001FF00
3FE003FE00
1FF807FE00
0FFFFFFC00
0FFFFFF800
07FFFFF000
03FFFFE000
00FFFFC000
007FFF0000
000FFC0000
ENDCHAR
STARTCHAR 00FC
ENCODING 252
SWIDTH 501 0
DWIDTH 39 0
BBX 33 70 3 -1
BITMAP
07F001F800
0FF807FC00
1FFC07FE00
1FFC0FFE00
1FFC0FFE00
1FFC0FFF00
1FFC0FFE00
1FFC0FFE00
0FF807FC00
07F003FC00
01C000E000
0000000000
0000000000
0000000000
0000000000
FF00003F80
FF00003F80
FF00003F80
FF00003F80
FF00003F80
FF00003F80
FF00003F80
FF00003F80
FF00003F80
FF00003F80
FF00003F80
FF00003F80
FF00003F80
FF00003F80
FF00003F80
FF00003F80
FF00003F80
FF00003F80
FF00003F80
FF00003F80
FF00003F80
FF00003F80
FF00003F80
FF00003F80
FF00003F80
FF00003F80
FF00003F80
FF00003F80
FF00003F80
FF00003F80
FF00003F80
FF00003F80
FF00003F80
FF00003F80
FF00003F80
FF00003F80
FF00003F80
FF00003F80
FF00003F80
FF00003F80
7F00007F80
7F00007F80
7F80007F80
7F8000FF00
3FC000FF00
3FC001FF00
3FE003FE00
1FF807FE00
0FFFFFFC00
0FFFFFF800
07FFFFF000
03FFFFE000
00FFFFC000
007FFF0000
000FFC0000
ENDCHAR
STARTCHAR 00FD
ENCODING 253
SWIDTH 488 0
DWIDTH 38 0
BBX 33 69 3 0
BITMAP
00003F0000
00003F0000
00007E0000
0000FC0000
0000F80000
0001F80000
0001F00000
0003E00000
0003C00000
0007C00000
0000000000
0000000000
0000000000
0000000000
0000000000
FE00007F80
FE00007F80
FE00007F80
FE00007F80
FE00007F80
FE00007F80
FE00007F80
FE00007F80
FE00007F80
FE00007F80
FE00007F80
FE00007F80
FE00007F80
FE00007F80
FE00007F80
FE00007F80
FE00007F80
FE00007F80
FE00007F80
FE00007F80
FE00007F80
FE00007F80
FE00007F80
FE00007F80
FE00007F80
FF00007F80
FF00007F80
FF00007F00
7F00007F00
7F8000FF00
7F8000FF00
3FC001FE00
3FE003FE00
3FF00FFC00
1FFFFFFC00
0FFFFFF800
07FFFFF000
03FFFFE000
01FFFFC000
007FFF0000
001FFC0000
0007F00000
0007F00000
0007F00000
0007F00000
0007F00000
0007F00000
0007F00000
0007F00000
0007F00000
0007F00000
0007F00000
0007F00000
0007F00000
ENDCHAR
STARTCHAR 00FF
ENCODING 255
SWIDTH 488 0
DWIDTH 38 0
BBX 33 69 3 0
BITMAP
07E003F800
0FF807FC00
1FF80FFC00
1FFC0FFE00
3FFC0FFE00
3FFC0FFE00
1FFC0FFE00
1FF80FFE00
1FF807FC00
0FF003F800
01C000E000
0000000000
0000000000
0000000000
0000000000
FE00007F80
FE00007F80
FE00007F80
FE00007F80
FE00007F80
FE00007F80
FE00007F80
FE00007F80
FE00007F80
FE00007F80
FE00007F80
FE00007F80
FE00007F80
FE00007F80
FE00007F80
FE00007F80
FE00007F80
FE00007F80
FE00007F80
FE00007F80
FE00007F80
FE00007F80
FE00007F80
FE00007F80
FE00007F80
FF00007F80
FF00007F80
FF00007F00
7F00007F00
7F8000FF00
7F8000FF00
3FC001FE00
3FE003FE00
3FF00FFC00
1FFFFFFC00
0FFFFFF800
07FFFFF000
03FFFFE000
01FFFFC000
007FFF0000
001FFC0000
0007F00000
0007F00000
0007F00000
0007F00000
0007F00000
0007F00000
0007F00000
0007F00000
0007F00000
0007F00000
0007F00000
0007F00000
0007F00000
ENDCHAR
STARTCHAR 0100
ENCODING 256
SWIDTH 552 0
DWIDTH 43 0
BBX 38 67 4 0
BITMAP
07FFFFE000
07FFFFE000
07FFFFE000
07FFFFE000
07FFFFE000
0000000000
0000000000
0000000000
0000000000
0000000000
0000000000
0003C00000
003FFC0000
00FFFF8000
03FFFFC000
07FFFFE000
0FFFFFF000
0FFFFFF800
1FFC1FFC00
3FF007FC00
3FC003FE00
7FC001FE00
7F8000FF00
7F0000FF00
FF00007F00
FF00007F00
FF00007F80
FE00007F80
FE00007F80
FE00007F80
FE00007F80
FE00007F80
FE00007F80
FE00007F80
FE00007F80
FE00007F80
FE00007F80
FE00007F80
FE00007F80
FE00007F80
FE00007F80
FE00007F80
FE00007F80
FE00007F80
FE00007F80
FE00007F80
FE00007F80
FE00007F80
FE00007F80
FE00007F80
FE00007F80
FE00007F80
FE00007F80
FE00007F80
FE00007F80
FE00007F80
FE00007F80
FE00007F80
FE00007F80
FE00007F80
FFFFFFFFFC
FFFFFFFFFC
FFFFFFFFFC
FFFFFFFFFC
FFFFFFFFFC
FFFFFFFFFC
FFFFFFFFFC
ENDCHAR
STARTCHAR 0101
ENCODING 257
SWIDTH 552 0
DWIDTH 43 0
BBX 38 67 4 0
BITMAP
07FFFFE000
07FFFFE000
07FFFFE000
07FFFFE000
07FFFFE000
0000000000
0000000000
0000000000
0000000000
0000000000
0000000000
0003C00000
003FFC0000
00FFFF8000
03FFFFC000
07FFFFE000
0FFFFFF000
0FFFFFF800
1FFC1FFC00
3FF007FC00
3FC003FE00
7FC001FE00
7F8000FF00
7F0000FF00
FF00007F00
FF00007F00
FF00007F80
FE00007F80
FE00007F80
FE00007F80
FE00007F80
FE00007F80
FE00007F80
FE00007F80
FE00007F80
FE00007F80
FE00007F80
FE00007F80
FE00007F80
FE00007F80
FE00007F80
FE00007F80
FE00007F80
FE00007F80
FE00007F80
FE00007F80
FE00007F80
FE00007F80
FE00007F80
FE00007F80
FE00007F80
FE00007F80
FE00007F80
FE00007F80
FE00007F80
FE00007F80
FE00007F80
FE00007F80
FE00007F80
FE00007F80
FFFFFFFFFC
FFFFFFFFFC
FFFFFFFFFC
FFFFFFFFFC
FFFFFFFFFC
FFFFFFFFFC
FFFFFFFFFC
ENDCHAR
STARTCHAR 0102
ENCODING 258
SWIDTH 552 0
DWIDTH 43 0
BBX 38 69 4 0
BITMAP
03E003E000
03E003E000
03E007E000
03F007C000
01F80FC000
00FF7F8000
00FFFF0000
007FFE0000
001FFC0000
0007E00000
0000000000
0000000000
0000000000
0003C00000
003FFC0000
00FFFF8000
03FFFFC000
07FFFFE000
0FFFFFF000
0FFFFFF800
1FFC1FFC00
3FF007FC00
3FC003FE00
7FC001FE00
7F8000FF00
7F0000FF00
FF00007F00
FF00007F00
FF00007F80
FE00007F80
FE00007F80
FE00007F80
FE00007F80
FE00007F80
FE00007F80
FE00007F80
FE00007F80
FE00007F80
FE00007F80
FE00007F80
FE00007F80
FE00007F80
FE00007F80
FE00007F80
FE00007F80
FE00007F80
FE00007F80
FE00007F80
FE00007F80
FE00007F80
FE00007F80
FE00007F80
FE00007F80
FE00007F80
FE00007F80
FE00007F80
FE00007F80
FE00007F80
FE00007F80
FE00007F80
FE00007F80
FE00007F80
FFFFFFFFFC
FFFFFFFFFC
FFFFFFFFFC
FFFFFFFFFC
FFFFFFFFFC
FFFFFFFFFC
FFFFFFFFFC
ENDCHAR
STARTCHAR 0103
ENCODING 259
SWIDTH 552 0
DWIDTH 43 0
BBX 38 69 4 0
BITMAP
03E003E000
03E003E000
03E007E000
03F007C000
01F80FC000
00FF7F8000
00FFFF0000
007FFE0000
001FFC0000
0007E00000
0000000000
0000000000
0000000000
0003C00000
003FFC0000
00FFFF8000
03FFFFC000
07FFFFE000
0FFFFFF000
0FFFFFF800
1FFC1FFC00
3FF007FC00
3FC003FE00
7FC001FE00
7F8000FF00
7F0000FF00
FF00007F00
FF00007F00
FF00007F80
FE00007F80
FE00007F80
FE00007F80
FE00007F80
FE00007F80
FE00007F80
FE00007F80
FE00007F80
FE00007F80
FE00007F80
FE00007F80
FE00007F80
FE00007F80
FE00007F80
FE00007F80
FE00007F80
FE00007F80
FE00007F80
FE00007F80
FE00007F80
FE00007F80
FE00007F80
FE00007F80
FE00007F80
FE00007F80
FE00007F80
FE00007F80
FE00007F80
FE00007F80
FE00007F80
FE00007F80
FE00007F80
FE00007F80
FFFFFFFFFC
FFFFFFFFFC
FFFFFFFFFC
FFFFFFFFFC
FFFFFFFFFC
FFFFFFFFFC
FFFFFFFFFC
ENDCHAR
STARTCHAR 0104
ENCODING 260
SWIDTH 552 0
DWIDTH 43 0
BBX 41 70 4 -14
BITMAP
0003C0000000
003FFC000000
00FFFF800000
03FFFFC00000
07FFFFE00000
0FFFFFF00000
0FFFFFF80000
1FFC1FFC0000
3FF007FC0000
3FC003FE0000
7FC001FE0000
7F8000FF0000
7F0000FF0000
FF00007F0000
FF00007F0000
FF00007F8000
FE00007F8000
FE00007F8000
FE00007F8000
FE00007F8000
FE00007F8000
FE00007F8000
FE00007F8000
FE00007F8000
FE00007F8000
FE00007F8000
FE00007F8000
FE00007F8000
FE00007F8000
FE00007F8000
FE00007F8000
FE00007F8000
FE00007F8000
FE00007F8000
FE00007F8000
FE00007F8000
FE00007F8000
FE00007F8000
FE00007F8000
FE00007F8000
FE00007F8000
FE00007F8000
FE00007F8000
FE00007F8000
FE00007F8000
FE00007F8000
FE00007F8000
FE00007F8000
FE00007F8000
FFFFFFFFFC00
FFFFFFFFFC00
FFFFFFFFFC00
FFFFFFFFFC00
FFFFFFFFFC00
FFFFFFFFFC00
FFFFFFFFFC00
00000003F000
00000007C000
0000000F8000
0000001F0000
0000001E0000
0000003C0000
0000003C0000
0000003C0000
0000003C0200
0000003E0700
0000001FBF80
0000001FFF80
0000000FFE00
00000003FC00
ENDCHAR
STARTCHAR 0105
ENCODING 261
SWIDTH 552 0
DWIDTH 43 0
BBX 41 70 4 -14
BITMAP
0003C0000000
003FFC000000
00FFFF800000
03FFFFC00000
07FFFFE00000
0FFFFFF00000
0FFFFFF80000
1FFC1FFC0000
3FF007FC0000
3FC003FE0000
7FC001FE0000
7F8000FF0000
7F0000FF0000
FF00007F0000
FF00007F0000
FF00007F8000
FE00007F8000
FE00007F8000
FE00007F8000
FE00007F8000
FE00007F8000
FE00007F8000
FE00007F8000
FE00007F8000
FE00007F8000
FE00007F8000
FE00007F8000
FE00007F8000
FE00007F8000
FE00007F8000
FE00007F8000
FE00007F8000
FE00007F8000
FE00007F8000
FE00007F8000
FE00007F8000
FE00007F8000
FE00007F8000
FE00007F8000
FE00007F8000
FE00007F8000
FE00007F8000
FE00007F8000
FE00007F8000
FE00007F8000
FE00007F8000
FE00007F8000
FE00007F8000
FE00007F8000
FFFFFFFFFC00
FFFFFFFFFC00
FFFFFFFFFC00
FFFFFFFFFC00
FFFFFFFFFC00
FFFFFFFFFC00
FFFFFFFFFC00
00000003F000
00000007C000
0000000F8000
0000001F0000
0000001E0000
0000003C0000
0000003C0000
0000003C0000
0000003C0200
0000003E0700
0000001FBF80
0000001FFF80
0000000FFE00
00000003FC00
ENDCHAR
STARTCHAR 0106
ENCODING 262
SWIDTH 681 0
DWIDTH 53 0
BBX 49 70 3 -1
BITMAP
00000003F00000
00000007E00000
00000007E00000
0000000FC00000
0000000F800000
0000001F000000
0000003F000000
0000003E000000
0000007C000000
00000078000000
00000000000000
00000000000000
00000000000000
0000003C000000
00000FFFF00000
00007FFFFE0000
0001FFFFFF8000
0007FFFFFFE000
001FFFFFFFF800
003FFFFFFFFC00
007FFFC1FFFE00
00FFF8001FFF00
01FFE00003FF80
03FF800001FF80
07FE0000007F00
0FFC0000003E00
0FF80000001C00
1FF00000000000
1FE00000000000
3FE00000000000
3FC00000000000
7F800000000000
7F800000000000
7F000000000000
FF000000000000
FF000000000000
FF000000000000
FE000000000000
FE000000000000
FE000000000000
FE000000000000
FE000000000000
FE000000000000
FE000000000000
FE000000000000
FE000000000000
FE000000000000
FF000000000000
FF000000000000
7F000000000000
7F800000000000
7F800000000000
3FC00000000000
3FC00000000000
3FE00000000000
1FF00000000000
1FF00000001800
0FF80000003C00
07FE0000007E00
03FF000000FF00
03FF800003FF80
01FFE00007FF00
00FFFC003FFE00
003FFFFFFFFC00
001FFFFFFFF800
000FFFFFFFF000
0003FFFFFFC000
0000FFFFFF0000
00003FFFFC0000
000003FFE00000
ENDCHAR
STARTCHAR 0107
ENCODING 263
SWIDTH 681 0
DWIDTH 53 0
BBX 49 70 3 -1
BITMAP
00000003F00000
00000007E00000
00000007E00000
0000000FC00000
0000000F800000
0000001F000000
0000003F000000
0000003E000000
0000007C000000
00000078000000
00000000000000
00000000000000
00000000000000
0000003C000000
00000FFFF00000
00007FFFFE0000
0001FFFFFF8000
0007FFFFFFE000
001FFFFFFFF800
003FFFFFFFFC00
007FFFC1FFFE00
00FFF8001FFF00
01FFE00003FF80
03FF800001FF80
07FE0000007F00
0FFC0000003E00
0FF80000001C00
1FF00000000000
1FE00000000000
3FE00000000000
3FC00000000000
7F800000000000
7F800000000000
7F000000000000
FF000000000000
FF000000000000
FF000000000000
FE000000000000
FE000000000000
FE000000000000
FE000000000000
FE000000000000
FE000000000000
FE000000000000
FE000000000000
FE000000000000
FE000000000000
FF000000000000
FF000000000000
7F000000000000
7F800000000000
7F800000000000
3FC00000000000
3FC00000000000
3FE00000000000
1FF00000000000
1FF00000001800
0FF80000003C00
07FE0000007E00
03FF000000FF00
03FF800003FF80
01FFE00007FF00
00FFFC003FFE00
003FFFFFFFFC00
001FFFFFFFF800
000FFFFFFFF000
0003FFFFFFC000
0000FFFFFF0000
00003FFFFC0000
000003FFE00000
ENDCHAR
STARTCHAR 010A
ENCODING 266
SWIDTH 681 0
DWIDTH 53 0
BBX 49 72 3 -1
BITMAP
0000003F000000
000000FF800000
000000FFC00000
000001FFC00000
000001FFC00000
000001FFC00000
000001FFC00000
000001FFC00000
000000FF800000
0000007F000000
0000003E000000
00000000000000
00000000000000
00000000000000
00000000000000
0000003C000000
00000FFFF00000
00007FFFFE0000
0001FFFFFF8000
0007FFFFFFE000
001FFFFFFFF800
003FFFFFFFFC00
007FFFC1FFFE00
00FFF8001FFF00
01FFE00003FF80
03FF800001FF80
07FE0000007F00
0FFC0000003E00
0FF80000001C00
1FF00000000000
1FE00000000000
3FE00000000000
3FC00000000000
7F800000000000
7F800000000000
7F000000000000
FF000000000000
FF000000000000
FF000000000000
FE000000000000
FE000000000000
FE000000000000
FE000000000000
FE000000000000
FE000000000000
FE000000000000
FE000000000000
FE000000000000
FE000000000000
FF000000000000
FF000000000000
7F000000000000
7F800000000000
7F800000000000
3FC00000000000
3FC00000000000
3FE00000000000
1FF00000000000
1FF00000001800
0FF80000003C00
07FE0000007E00
03FF000000FF00
03FF800003FF80
01FFE00007FF00
00FFFC003FFE00
003FFFFFFFFC00
001FFFFFFFF800
000FFFFFFFF000
0003FFFFFFC000
0000FFFFFF0000
00003FFFFC0000
000003FFE00000
ENDCHAR
STARTCHAR 010B
ENCODING 267
SWIDTH 681 0
DWIDTH 53 0
BBX 49 72 3 -1
BITMAP
0000003F000000
000000FF800000
000000FFC00000
000001FFC00000
000001FFC00000
000001FFC00000
000001FFC00000
000001FFC00000
000000FF800000
0000007F000000
0000003E000000
00000000000000
00000000000000
00000000000000
00000000000000
0000003C000000
00000FFFF00000
00007FFFFE0000
0001FFFFFF8000
0007FFFFFFE000
001FFFFFFFF800
003FFFFFFFFC00
007FFFC1FFFE00
00FFF8001FFF00
01FFE00003FF80
03FF800001FF80
07FE0000007F00
0FFC0000003E00
0FF80000001C00
1FF00000000000
1FE00000000000
3FE00000000000
3FC00000000000
7F800000000000
7F800000000000
7F000000000000
FF000000000000
FF000000000000
FF000000000000
FE000000000000
FE000000000000
FE000000000000
FE000000000000
FE000000000000
FE000000000000
FE000000000000
FE000000000000
FE000000000000
FE000000000000
FF000000000000
FF000000000000
7F000000000000
7F800000000000
7F800000000000
3FC00000000000
3FC00000000000
3FE00000000000
1FF00000000000
1FF00000001800
0FF80000003C00
07FE0000007E00
03FF000000FF00
03FF800003FF80
01FFE00007FF00
00FFFC003FFE00
003FFFFFFFFC00
001FFFFFFFF800
000FFFFFFFF000
0003FFFFFFC000
0000FFFFFF0000
00003FFFFC0000
000003FFE00000
ENDCHAR
STARTCHAR 010C
ENCODING 268
SWIDTH 681 0
DWIDTH 53 0
BBX 49 71 3 -1
BITMAP
00007E007F0000
00003F00FE0000
00003F80FC0000
00001FC1F80000
00000FE3F00000
000007E7F00000
000003FFE00000
000003FFC00000
000001FF800000
000000FF800000
00000000000000
00000000000000
00000000000000
00000000000000
0000003C000000
00000FFFF00000
00007FFFFE0000
0001FFFFFF8000
0007FFFFFFE000
001FFFFFFFF800
003FFFFFFFFC00
007FFFC1FFFE00
00FFF8001FFF00
01FFE00003FF80
03FF800001FF80
07FE0000007F00
0FFC0000003E00
0FF80000001C00
1FF00000000000
1FE00000000000
3FE00000000000
3FC00000000000
7F800000000000
7F800000000000
7F000000000000
FF000000000000
FF000000000000
FF000000000000
FE000000000000
FE000000000000
FE000000000000
FE000000000000
FE000000000000
FE000000000000
FE000000000000
FE000000000000
FE000000000000
FE000000000000
FF000000000000
FF000000000000
7F000000000000
7F800000000000
7F800000000000
3FC00000000000
3FC00000000000
3FE00000000000
1FF00000000000
1FF00000001800
0FF80000003C00
07FE0000007E00
03FF000000FF00
03FF800003FF80
01FFE00007FF00
00FFFC003FFE00
003FFFFFFFFC00
001FFFFFFFF800
000FFFFFFFF000
0003FFFFFFC000
0000FFFFFF0000
00003FFFFC0000
000003FFE00000
ENDCHAR
STARTCHAR 010D
ENCODING 269
SWIDTH 681 0
DWIDTH 53 0
BBX 49 71 3 -1
BITMAP
00007E007F0000
00003F00FE0000
00003F80FC0000
00001FC1F80000
00000FE3F00000
000007E7F00000
000003FFE00000
000003FFC00000
000001FF800000
000000FF800000
00000000000000
00000000000000
00000000000000
00000000000000
0000003C000000
00000FFFF00000
00007FFFFE0000
0001FFFFFF8000
0007FFFFFFE000
001FFFFFFFF800
003FFFFFFFFC00
007FFFC1FFFE00
00FFF8001FFF00
01FFE00003FF80
03FF800001FF80
07FE0000007F00
0FFC0000003E00
0FF80000001C00
1FF00000000000
1FE00000000000
3FE00000000000
3FC00000000000
7F800000000000
7F800000000000
7F000000000000
FF000000000000
FF000000000000
FF000000000000
FE000000000000
FE000000000000
FE000000000000
FE000000000000
FE000000000000
FE000000000000
FE000000000000
FE000000000000
FE000000000000
FE000000000000
FF000000000000
FF000000000000
7F000000000000
7F800000000000
7F800000000000
3FC00000000000
3FC00000000000
3FE00000000000
1FF00000000000
1FF00000001800
0FF80000003C00
07FE0000007E00
03FF000000FF00
03FF800003FF80
01FFE00007FF00
00FFFC003FFE00
003FFFFFFFFC00
001FFFFFFFF800
000FFFFFFFF000
0003FFFFFFC000
0000FFFFFF0000
00003FFFFC0000
000003FFE00000
ENDCHAR
STARTCHAR 010E
ENCODING 270
SWIDTH 642 0
DWIDTH 50 0
BBX 44 70 4 0
BITMAP
03F003F80000
01F807F00000
01FC07E00000
00FE0FC00000
007F1F800000
003F3F800000
001FFF000000
001FFE000000
000FFC000000
0007FC000000
000000000000
000000000000
000000000000
000000000000
000000000000
000000000000
FFFFFE000000
FFFFFFE00000
FFFFFFF80000
FFFFFFFE0000
FFFFFFFF8000
FFFFFFFFC000
FF01FFFFF000
FF0001FFF800
FF00003FFC00
FF00000FFC00
FF000007FE00
FF000003FF00
FF000001FF00
FF000000FF80
FF0000007F80
FF0000003FC0
FF0000003FC0
FF0000001FE0
FF0000001FE0
FF0000000FE0
FF0000000FE0
FF0000000FF0
FF0000000FF0
FF0000000FF0
FF0000000FF0
FF00000007F0
FF00000007F0
FF00000007F0
FF00000007F0
FF0000000FF0
FF0000000FF0
FF0000000FF0
FF0000000FE0
FF0000000FE0
FF0000001FE0
FF0000001FE0
FF0000001FE0
FF0000003FC0
FF0000007FC0
FF0000007F80
FF000000FF80
FF000001FF00
FF000003FF00
FF00000FFE00
FF00001FFC00
FF0000FFF800
FF0007FFF000
FFFFFFFFE000
FFFFFFFFC000
FFFFFFFF0000
FFFFFFFE0000
FFFFFFF00000
FFFFFFC00000
FFFFF8000000
ENDCHAR
STARTCHAR 010F
ENCODING 271
SWIDTH 642 0
DWIDTH 50 0
BBX 44 70 4 0
BITMAP
03F003F80000
01F807F00000
01FC07E00000
00FE0FC00000
007F1F800000
003F3F800000
001FFF000000
001FFE000000
000FFC000000
0007FC000000
000000000000
000000000000
000000000000
000000000000
000000000000
000000000000
FFFFFE000000
FFFFFFE00000
FFFFFFF80000
FFFFFFFE0000
FFFFFFFF8000
FFFFFFFFC000
FF01FFFFF000
FF0001FFF800
FF00003FFC00
FF00000FFC00
FF000007FE00
FF000003FF00
FF000001FF00
FF000000FF80
FF0000007F80
FF0000003FC0
FF0000003FC0
FF0000001FE0
FF0000001FE0
FF0000000FE0
FF0000000FE0
FF0000000FF0
FF0000000FF0
FF0000000FF0
FF0000000FF0
FF00000007F0
FF00000007F0
FF00000007F0
FF00000007F0
FF0000000FF0
FF0000000FF0
FF0000000FF0
FF0000000FE0
FF0000000FE0
FF0000001FE0
FF0000001FE0
FF0000001FE0
FF0000003FC0
FF0000007FC0
FF0000007F80
FF000000FF80
FF000001FF00
FF000003FF00
FF00000FFE00
FF00001FFC00
FF0000FFF800
FF0007FFF000
FFFFFFFFE000
FFFFFFFFC000
FFFFFFFF0000
FFFFFFFE0000
FFFFFFF00000
FFFFFFC00000
FFFFF8000000
ENDCHAR
STARTCHAR 0110
ENCODING 272
SWIDTH 681 0
DWIDTH 53 0
BBX 49 54 2 0
BITMAP
07FFFFF0000000
07FFFFFF000000
07FFFFFFC00000
07FFFFFFF00000
07FFFFFFFC0000
07FFFFFFFE0000
07F00FFFFF0000
07F0001FFF8000
07F00003FFC000
07F00000FFE000
07F000003FF000
07F000001FF800
07F000000FF800
07F0000007FC00
07F0000003FC00
07F0000001FE00
07F0000001FE00
07F0000000FE00
07F0000000FF00
07F0000000FF00
07F00000007F00
07F00000007F00
07F00000007F80
FFFFFFC0007F80
FFFFFFC0007F80
FFFFFFC0007F80
FFFFFFC0007F80
FFFFFFC0007F80
FFFFFFC0007F80
FFFFFFC0007F80
07F00000007F80
07F00000007F00
07F00000007F00
07F0000000FF00
07F0000000FF00
07F0000000FF00
07F0000001FE00
07F0000001FE00
07F0000003FE00
07F0000003FC00
07F0000007FC00
07F000000FF800
07F000001FF000
07F000007FF000
07F00001FFE000
07F00007FFC000
07F0007FFF8000
07FFFFFFFF0000
07FFFFFFFE0000
07FFFFFFF80000
07FFFFFFE00000
07FFFFFF800000
07FFFFFE000000
07FFFFC0000000
ENDCHAR
STARTCHAR 0111
ENCODING 273
SWIDTH 681 0
DWIDTH 53 0
BBX 49 54 2 0
BITMAP
07FFFFF0000000
07FFFFFF000000
07FFFFFFC00000
07FFFFFFF00000
07FFFFFFFC0000
07FFFFFFFE0000
07F00FFFFF0000
07F0001FFF8000
07F00003FFC000
07F00000FFE000
07F000003FF000
07F000001FF800
07F000000FF800
07F0000007FC00
07F0000003FC00
07F0000001FE00
07F0000001FE00
07F0000000FE00
07F0000000FF00
07F0000000FF00
07F00000007F00
07F00000007F00
07F00000007F80
FFFFFFC0007F80
FFFFFFC0007F80
FFFFFFC0007F80
FFFFFFC0007F80
FFFFFFC0007F80
FFFFFFC0007F80
FFFFFFC0007F80
07F00000007F80
07F00000007F00
07F00000007F00
07F0000000FF00
07F0000000FF00
07F0000000FF00
07F0000001FE00
07F0000001FE00
07F0000003FE00
07F0000003FC00
07F0000007FC00
07F000000FF800
07F000001FF000
07F000007FF000
07F00001FFE000
07F00007FFC000
07F0007FFF8000
07FFFFFFFF0000
07FFFFFFFE0000
07FFFFFFF80000
07FFFFFFE00000
07FFFFFF800000
07FFFFFE000000
07FFFFC0000000
ENDCHAR
STARTCHAR 0112
ENCODING 274
SWIDTH 488 0
DWIDTH 38 0
BBX 36 67 2 0
BITMAP
07FFFFE000
07FFFFE000
07FFFFE000
07FFFFE000
07FFFFE000
0000000000
0000000000
0000000000
0000000000
0000000000
0000000000
0000000000
0000000000
07FFFFE000
07FFFFE000
07FFFFE000
07FFFFE000
07FFFFE000
07FFFFE000
07F8000000
07F8000000
07F8000000
07F8000000
07F8000000
07F8000000
07F8000000
07F8000000
07F8000000
07F8000000
07F8000000
07F8000000
07F8000000
07F8000000
07F8000000
07F8000000
07F8000000
FFFFFFFE00
FFFFFFFE00
FFFFFFFE00
FFFFFFFE00
FFFFFFFE00
FFFFFFFE00
FFFFFFFE00
07F8000000
07F8000000
07F8000000
07F8000000
07F8000000
07F8000000
07F8000000
07F8000000
07F8000000
07F8000000
07F8000000
07F8000000
07F8000000
07F8000000
07F8000000
07F8000000
07F8000000
07FFFFFFF0
07FFFFFFF0
07FFFFFFF0
07FFFFFFF0
07FFFFFFF0
07FFFFFFF0
07FFFFFFF0
ENDCHAR
STARTCHAR 0113
ENCODING 275
SWIDTH 488 0
DWIDTH 38 0
BBX 36 67 2 0
BITMAP
07FFFFE000
07FFFFE000
07FFFFE000
07FFFFE000
07FFFFE000
0000000000
0000000000
0000000000
0000000000
0000000000
0000000000
0000000000
0000000000
07FFFFE000
07FFFFE000
07FFFFE000
07FFFFE000
07FFFFE000
07FFFFE000
07F8000000
07F8000000
07F8000000
07F8000000
07F8000000
07F8000000
07F8000000
07F8000000
07F8000000
07F8000000
07F8000000
07F8000000
07F8000000
07F8000000
07F8000000
07F8000000
07F8000000
FFFFFFFE00
FFFFFFFE00
FFFFFFFE00
FFFFFFFE00
FFFFFFFE00
FFFFFFFE00
FFFFFFFE00
07F8000000
07F8000000
07F8000000
07F8000000
07F8000000
07F8000000
07F8000000
07F8000000
07F8000000
07F8000000
07F8000000
07F8000000
07F8000000
07F8000000
07F8000000
07F8000000
07F8000000
07FFFFFFF0
07FFFFFFF0
07FFFFFFF0
07FFFFFFF0
07FFFFFFF0
07FFFFFFF0
07FFFFFFF0
ENDCHAR
STARTCHAR 0116
ENCODING 278
SWIDTH 488 0
DWIDTH 38 0
BBX 36 71 2 0
BITMAP
0007F00000
000FF80000
001FFC0000
001FFC0000
001FFC0000
001FFC0000
001FFC0000
001FFC0000
000FF80000
0007F00000
0003E00000
0000000000
0000000000
0000000000
0000000000
0000000000
0000000000
07FFFFE000
07FFFFE000
07FFFFE000
07FFFFE000
07FFFFE000
07FFFFE000
07F8000000
07F8000000
07F8000000
07F8000000
07F8000000
07F8000000
07F8000000
07F8000000
07F8000000
07F8000000
07F8000000
07F8000000
07F8000000
07F8000000
07F8000000
07F8000000
07F8000000
FFFFFFFE00
FFFFFFFE00
FFFFFFFE00
FFFFFFFE00
FFFFFFFE00
FFFFFFFE00
FFFFFFFE00
07F8000000
07F8000000
07F8000000
07F8000000
07F8000000
07F8000000
07F8000000
07F8000000
07F8000000
07F8000000
07F8000000
07F8000000
07F8000000
07F8000000
07F8000000
07F8000000
07F8000000
07FFFFFFF0
07FFFFFFF0
07FFFFFFF0
07FFFFFFF0
07FFFFFFF0
07FFFFFFF0
07FFFFFFF0
ENDCHAR
STARTCHAR 0117
ENCODING 279
SWIDTH 488 0
DWIDTH 38 0
BBX 36 71 2 0
BITMAP
0007F00000
000FF80000
001FFC0000
001FFC0000
001FFC0000
001FFC0000
001FFC0000
001FFC0000
000FF80000
0007F00000
0003E00000
0000000000
0000000000
0000000000
0000000000
0000000000
0000000000
07FFFFE000
07FFFFE000
07FFFFE000
07FFFFE000
07FFFFE000
07FFFFE000
07F8000000
07F8000000
07F8000000
07F8000000
07F8000000
07F8000000
07F8000000
07F8000000
07F8000000
07F8000000
07F8000000
07F8000000
07F8000000
07F8000000
07F8000000
07F8000000
07F8000000
FFFFFFFE00
FFFFFFFE00
FFFFFFFE00
FFFFFFFE00
FFFFFFFE00
FFFFFFFE00
FFFFFFFE00
07F8000000
07F8000000
07F8000000
07F8000000
07F8000000
07F8000000
07F8000000
07F8000000
07F8000000
07F8000000
07F8000000
07F8000000
07F8000000
07F8000000
07F8000000
07F8000000
07F8000000
07FFFFFFF0
07FFFFFFF0
07FFFFFFF0
07FFFFFFF0
07FFFFFFF0
07FFFFFFF0
07FFFFFFF0
ENDCHAR
STARTCHAR 0118
ENCODING 280
SWIDTH 488 0
DWIDTH 38 0
BBX 39 68 2 -14
BITMAP
07FFFFE000
07FFFFE000
07FFFFE000
07FFFFE000
07FFFFE000
07FFFFE000
07F8000000
07F8000000
07F8000000
07F8000000
07F8000000
07F8000000
07F8000000
07F8000000
07F8000000
07F8000000
07F8000000
07F8000000
07F8000000
07F8000000
07F8000000
07F8000000
07F8000000
FFFFFFFE00
FFFFFFFE00
FFFFFFFE00
FFFFFFFE00
FFFFFFFE00
FFFFFFFE00
FFFFFFFE00
07F8000000
07F8000000
07F8000000
07F8000000
07F8000000
07F8000000
07F8000000
07F8000000
07F8000000
07F8000000
07F8000000
07F8000000
07F8000000
07F8000000
07F8000000
07F8000000
07F8000000
07FFFFFFF0
07FFFFFFF0
07FFFFFFF0
07FFFFFFF0
07FFFFFFF0
07FFFFFFF0
07FFFFFFF0
0000000FC0
0000001F00
0000003E00
0000007C00
0000007800
000000F800
000000F000
000000F000
000000F808
000000F81C
0000007E7E
0000007FFE
0000003FFC
0000000FF0
ENDCHAR
STARTCHAR 0119
ENCODING 281
SWIDTH 488 0
DWIDTH 38 0
BBX 39 68 2 -14
BITMAP
07FFFFE000
07FFFFE000
07FFFFE000
07FFFFE000
07FFFFE000
07FFFFE000
07F8000000
07F8000000
07F8000000
07F8000000
07F8000000
07F8000000
07F8000000
07F8000000
07F8000000
07F8000000
07F8000000
07F8000000
07F8000000
07F8000000
07F8000000
07F8000000
07F8000000
FFFFFFFE00
FFFFFFFE00
FFFFFFFE00
FFFFFFFE00
FFFFFFFE00
FFFFFFFE00
FFFFFFFE00
07F8000000
07F8000000
07F8000000
07F8000000
07F8000000
07F8000000
07F8000000
07F8000000
07F8000000
07F8000000
07F8000000
07F8000000
07F8000000
07F8000000
07F8000000
07F8000000
07F8000000
07FFFFFFF0
07FFFFFFF0
07FFFFFFF0
07FFFFFFF0
07FFFFFFF0
07FFFFFFF0
07FFFFFFF0
0000000FC0
0000001F00
0000003E00
0000007C00
0000007800
000000F800
000000F000
000000F000
000000F808
000000F81C
0000007E7E
0000007FFE
0000003FFC
0000000FF0
ENDCHAR
STARTCHAR 011A
ENCODING 282
SWIDTH 488 0
DWIDTH 38 0
BBX 36 70 2 0
BITMAP
07E007F000
03F00FE000
03F80FC000
01FC1F8000
00FE3F0000
007E7F0000
003FFE0000
003FFC0000
001FF80000
000FF80000
0000000000
0000000000
0000000000
0000000000
0000000000
0000000000
07FFFFE000
07FFFFE000
07FFFFE000
07FFFFE000
07FFFFE000
07FFFFE000
07F8000000
07F8000000
07F8000000
07F8000000
07F8000000
07F8000000
07F8000000
07F8000000
07F8000000
07F8000000
07F8000000
07F8000000
07F8000000
07F8000000
07F8000000
07F8000000
07F8000000
FFFFFFFE00
FFFFFFFE00
FFFFFFFE00
FFFFFFFE00
FFFFFFFE00
FFFFFFFE00
FFFFFFFE00
07F8000000
07F8000000
07F8000000
07F8000000
07F8000000
07F8000000
07F8000000
07F8000000
07F8000000
07F8000000
07F8000000
07F8000000
07F8000000
07F8000000
07F8000000
07F8000000
07F8000000
07FFFFFFF0
07FFFFFFF0
07FFFFFFF0
07FFFFFFF0
07FFFFFFF0
07FFFFFFF0
07FFFFFFF0
ENDCHAR
STARTCHAR 011B
ENCODING 283
SWIDTH 488 0
DWIDTH 38 0
BBX 36 70 2 0
BITMAP
07E007F000
03F00FE000
03F80FC000
01FC1F8000
00FE3F0000
007E7F0000
003FFE0000
003FFC0000
001FF80000
000FF80000
0000000000
0000000000
0000000000
0000000000
0000000000
0000000000
07FFFFE000
07FFFFE000
07FFFFE000
07FFFFE000
07FFFFE000
07FFFFE000
07F8000000
07F8000000
07F8000000
07F8000000
07F8000000
07F8000000
07F8000000
07F8000000
07F8000000
07F8000000
07F8000000
07F8000000
07F8000000
07F8000000
07F8000000
07F8000000
07F8000000
FFFFFFFE00
FFFFFFFE00
FFFFFFFE00
FFFFFFFE00
FFFFFFFE00
FFFFFFFE00
FFFFFFFE00
07F8000000
07F8000000
07F8000000
07F8000000
07F8000000
07F8000000
07F8000000
07F8000000
07F8000000
07F8000000
07F8000000
07F8000000
07F8000000
07F8000000
07F8000000
07F8000000
07F8000000
07FFFFFFF0
07FFFFFFF0
07FFFFFFF0
07FFFFFFF0
07FFFFFFF0
07FFFFFFF0
07FFFFFFF0
ENDCHAR
STARTCHAR 011E
ENCODING 286
SWIDTH 822 0
DWIDTH 64 0
BBX 61 70 3 -1
BITMAP
00003C003E000000
00003E003E000000
00003E007C000000
00003F007C000000
00001F81FC000000
00001FFFF8000000
00000FFFF0000000
000007FFE0000000
000001FFC0000000
0000007E00000000
0000000000000000
0000000000000000
0000000000000000
0000003E00000000
00000FFFF8000000
00007FFFFF000000
0001FFFFFFC00000
0007FFFFFFE00000
000FFFFFFFF80000
003FFFFFFFFC0000
007FFFC0FFFE0000
00FFF8000FFF0000
01FFE00003FF8000
03FF800000FF8000
07FE0000007F0000
07FC0000003E0000
0FF80000001C0000
1FF0000000080000
1FE0000000000000
3FE0000000000000
3FC0000000000000
7F80000000000000
7F80000000000000
7F00000000000000
FF00000000000000
FF00000000000000
FF00000000000000
FE00000000000000
FE00001FFFFFFFF8
FE00001FFFFFFFF8
FE00001FFFFFFFF8
FE00001FFFFFFFF8
FE00001FFFFFFFF8
FE00001FFFFFFFF8
FE00001FFFFFFFF8
FE00000000007F00
FE0000000000FF00
FF0000000000FF00
FF0000000000FF00
7F0000000000FF00
7F8000000001FE00
7F8000000001FE00
3FC000000001FE00
3FC000000003FC00
3FE000000007FC00
1FF000000007F800
0FF00000000FF800
0FFC0000001FF000
07FE0000003FF000
03FF0000007FE000
01FFC00001FFC000
01FFF00007FF8000
00FFFC003FFF0000
003FFFFFFFFE0000
001FFFFFFFFC0000
000FFFFFFFF00000
0003FFFFFFE00000
0000FFFFFF800000
00003FFFFE000000
000003FFE0000000
ENDCHAR
STARTCHAR 011F
ENCODING 287
SWIDTH 822 0
DWIDTH 64 0
BBX 61 70 3 -1
BITMAP
00003C003E000000
00003E003E000000
00003E007C000000
00003F007C000000
00001F81FC000000
00001FFFF8000000
00000FFFF0000000
000007FFE0000000
000001FFC0000000
0000007E00000000
0000000000000000
0000000000000000
0000000000000000
0000003E00000000
00000FFFF8000000
00007FFFFF000000
0001FFFFFFC00000
0007FFFFFFE00000
000FFFFFFFF80000
003FFFFFFFFC0000
007FFFC0FFFE0000
00FFF8000FFF0000
01FFE00003FF8000
03FF800000FF8000
07FE0000007F0000
07FC0000003E0000
0FF80000001C0000
1FF0000000080000
1FE0000000000000
3FE0000000000000
3FC0000000000000
7F80000000000000
7F80000000000000
7F00000000000000
FF00000000000000
FF00000000000000
FF00000000000000
FE00000000000000
FE00001FFFFFFFF8
FE00001FFFFFFFF8
FE00001FFFFFFFF8
FE00001FFFFFFFF8
FE00001FFFFFFFF8
FE00001FFFFFFFF8
FE00001FFFFFFFF8
FE00000000007F00
FE0000000000FF00
FF0000000000FF00
FF0000000000FF00
7F0000000000FF00
7F8000000001FE00
7F8000000001FE00
3FC000000001FE00
3FC000000003FC00
3FE000000007FC00
1FF000000007F800
0FF00000000FF800
0FFC0000001FF000
07FE0000003FF000
03FF0000007FE000
01FFC00001FFC000
01FFF00007FF8000
00FFFC003FFF0000
003FFFFFFFFE0000
001FFFFFFFFC0000
000FFFFFFFF00000
0003FFFFFFE00000
0000FFFFFF800000
00003FFFFE000000
000003FFE0000000
ENDCHAR
STARTCHAR 0120
ENCODING 288
SWIDTH 822 0
DWIDTH 64 0
BBX 61 72 3 -1
BITMAP
0000003F00000000
000000FF80000000
000000FFC0000000
000001FFC0000000
000001FFC0000000
000001FFC0000000
000001FFC0000000
000001FFC0000000
000000FF80000000
0000007F00000000
0000003E00000000
0000000000000000
0000000000000000
0000000000000000
0000000000000000
0000003E00000000
00000FFFF8000000
00007FFFFF000000
0001FFFFFFC00000
0007FFFFFFE00000
000FFFFFFFF80000
003FFFFFFFFC0000
007FFFC0FFFE0000
00FFF8000FFF0000
01FFE00003FF8000
03FF800000FF8000
07FE0000007F0000
07FC0000003E0000
0FF80000001C0000
1FF0000000080000
1FE0000000000000
3FE0000000000000
3FC0000000000000
7F80000000000000
7F80000000000000
7F00000000000000
FF00000000000000
FF00000000000000
FF00000000000000
FE00000000000000
FE00001FFFFFFFF8
FE00001FFFFFFFF8
FE00001FFFFFFFF8
FE00001FFFFFFFF8
FE00001FFFFFFFF8
FE00001FFFFFFFF8
FE00001FFFFFFFF8
FE00000000007F00
FE0000000000FF00
FF0000000000FF00
FF0000000000FF00
7F0000000000FF00
7F8000000001FE00
7F8000000001FE00
3FC000000001FE00
3FC000000003FC00
3FE000000007FC00
1FF000000007F800
0FF00000000FF800
0FFC0000001FF000
07FE0000003FF000
03FF0000007FE000
01FFC00001FFC000
01FFF00007FF8000
00FFFC003FFF0000
003FFFFFFFFE0000
001FFFFFFFFC0000
000FFFFFFFF00000
0003FFFFFFE00000
0000FFFFFF800000
00003FFFFE000000
000003FFE0000000
ENDCHAR
STARTCHAR 0121
ENCODING 289
SWIDTH 822 0
DWIDTH 64 0
BBX 61 72 3 -1
BITMAP
0000003F00000000
000000FF80000000
000000FFC0000000
000001FFC0000000
000001FFC0000000
000001FFC0000000
000001FFC0000000
000001FFC0000000
000000FF80000000
0000007F00000000
0000003E00000000
0000000000000000
0000000000000000
0000000000000000
0000000000000000
0000003E00000000
00000FFFF8000000
00007FFFFF000000
0001FFFFFFC00000
0007FFFFFFE00000
000FFFFFFFF80000
003FFFFFFFFC0000
007FFFC0FFFE0000
00FFF8000FFF0000
01FFE00003FF8000
03FF800000FF8000
07FE0000007F0000
07FC0000003E0000
0FF80000001C0000
1FF0000000080000
1FE0000000000000
3FE0000000000000
3FC0000000000000
7F80000000000000
7F80000000000000
7F00000000000000
FF00000000000000
FF00000000000000
FF00000000000000
FE00000000000000
FE00001FFFFFFFF8
FE00001FFFFFFFF8
FE00001FFFFFFFF8
FE00001FFFFFFFF8
FE00001FFFFFFFF8
FE00001FFFFFFFF8
FE00001FFFFFFFF8
FE00000000007F00
FE0000000000FF00
FF0000000000FF00
FF0000000000FF00
7F0000000000FF00
7F8000000001FE00
7F8000000001FE00
3FC000000001FE00
3FC000000003FC00
3FE000000007FC00
1FF000000007F800
0FF00000000FF800
0FFC0000001FF000
07FE0000003FF000
03FF0000007FE000
01FFC00001FFC000
01FFF00007FF8000
00FFFC003FFF0000
003FFFFFFFFE0000
001FFFFFFFFC0000
000FFFFFFFF00000
0003FFFFFFE00000
0000FFFFFF800000
00003FFFFE000000
000003FFE0000000
ENDCHAR
STARTCHAR 0124
ENCODING 292
SWIDTH 552 0
DWIDTH 43 0
BBX 37 69 2 0
BITMAP
00007FC000
0000FFE000
0001FFE000
0003FBF000
0003F3F800
0007E1FC00
000FC0FE00
001FC07E00
001F803F00
003F001F80
0000000000
0000000000
0000000000
0000000000
0000000000
07F80003F8
07F80003F8
07F80003F8
07F80003F8
07F80003F8
07F80003F8
07F80003F8
07F80003F8
07F80003F8
07F80003F8
07F80003F8
07F80003F8
07F80003F8
07F80003F8
07F80003F8
07F80003F8
07F80003F8
07F80003F8
07F80003F8
07F80003F8
07F80003F8
07F80003F8
FFFFFFFFF8
FFFFFFFFF8
FFFFFFFFF8
FFFFFFFFF8
FFFFFFFFF8
FFFFFFFFF8
FFFFFFFFF8
07F80003F8
07F80003F8
07F80003F8
07F80003F8
07F80003F8
07F80003F8
07F80003F8
07F80003F8
07F80003F8
07F80003F8
07F80003F8
07F80003F8
07F80003F8
07F80003F8
07F80003F8
07F80003F8
07F80003F8
07F80003F8
07F80003F8
07F80003F8
07F80003F8
07F80003F8
07F80003F8
07F80003F8
07F80003F8
ENDCHAR
STARTCHAR 0125
ENCODING 293
SWIDTH 552 0
DWIDTH 43 0
BBX 37 69 2 0
BITMAP
00007FC000
0000FFE000
0001FFE000
0003FBF000
0003F3F800
0007E1FC00
000FC0FE00
001FC07E00
001F803F00
003F001F80
0000000000
0000000000
0000000000
0000000000
0000000000
07F80003F8
07F80003F8
07F80003F8
07F80003F8
07F80003F8
07F80003F8
07F80003F8
07F80003F8
07F80003F8
07F80003F8
07F80003F8
07F80003F8
07F80003F8
07F80003F8
07F80003F8
07F80003F8
07F80003F8
07F80003F8
07F80003F8
07F80003F8
07F80003F8
07F80003F8
FFFFFFFFF8
FFFFFFFFF8
FFFFFFFFF8
FFFFFFFFF8
FFFFFFFFF8
FFFFFFFFF8
FFFFFFFFF8
07F80003F8
07F80003F8
07F80003F8
07F80003F8
07F80003F8
07F80003F8
07F80003F8
07F80003F8
07F80003F8
07F80003F8
07F80003F8
07F80003F8
07F80003F8
07F80003F8
07F80003F8
07F80003F8
07F80003F8
07F80003F8
07F80003F8
07F80003F8
07F80003F8
07F80003F8
07F80003F8
07F80003F8
07F80003F8
ENDCHAR
STARTCHAR 0128
ENCODING 296
SWIDTH 192 0
DWIDTH 15 0
BBX 19 48 -3 0
BITMAP
1E0000
FFE020
FFFFE0
FFFFE0
FFFFE0
C0FFE0
001F80
000000
000000
000000
000000
000000
000000
000000
000000
01FE00
01FE00
01FE00
01FE00
01FE00
01FE00
01FE00
01FE00
01FE00
01FE00
01FE00
01FE00
01FE00
01FE00
01FE00
01FE00
01FE00
01FE00
01FE00
01FE00
01FE00
01FE00
01FE00
01FE00
01FE00
01FE00
01FE00
01FE00
01FE00
01FE00
01FE00
01FE00
01FE00
ENDCHAR
STARTCHAR 0129
ENCODING 297
SWIDTH 192 0
DWIDTH 15 0
BBX 19 48 -3 0
BITMAP
1E0000
FFE020
FFFFE0
FFFFE0
FFFFE0
C0FFE0
001F80
000000
000000
000000
000000
000000
000000
000000
000000
01FE00
01FE00
01FE00
01FE00
01FE00
01FE00
01FE00
01FE00
01FE00
01FE00
01FE00
01FE00
01FE00
01FE00
01FE00
01FE00
01FE00
01FE00
01FE00
01FE00
01FE00
01FE00
01FE00
01FE00
01FE00
01FE00
01FE00
01FE00
01FE00
01FE00
01FE00
01FE00
01FE00
ENDCHAR
STARTCHAR 012A
ENCODING 298
SWIDTH 192 0
DWIDTH 15 0
BBX 22 46 -3 0
BITMAP
FFFFFC
FFFFFC
FFFFFC
FFFFFC
FFFFFC
000000
000000
000000
000000
000000
000000
000000
000000
01FE00
01FE00
01FE00
01FE00
01FE00
01FE00
01FE00
01FE00
01FE00
01FE00
01FE00
01FE00
01FE00
01FE00
01FE00
01FE00
01FE00
01FE00
01FE00
01FE00
01FE00
01FE00
01FE00
01FE00
01FE00
01FE00
01FE00
01FE00
01FE00
01FE00
01FE00
01FE00
01FE00
ENDCHAR
STARTCHAR 012B
ENCODING 299
SWIDTH 192 0
DWIDTH 15 0
BBX 22 46 -3 0
BITMAP
FFFFFC
FFFFFC
FFFFFC
FFFFFC
FFFFFC
000000
000000
000000
000000
000000
000000
000000
000000
01FE00
01FE00
01FE00
01FE00
01FE00
01FE00
01FE00
01FE00
01FE00
01FE00
01FE00
01FE00
01FE00
01FE00
01FE00
01FE00
01FE00
01FE00
01FE00
01FE00
01FE00
01FE00
01FE00
01FE00
01FE00
01FE00
01FE00
01FE00
01FE00
01FE00
01FE00
01FE00
01FE00
ENDCHAR
STARTCHAR 012E
ENCODING 302
SWIDTH 180 0
DWIDTH 14 0
BBX 21 76 -3 -14
BITMAP
002000
002000
002000
007000
007000
007000
00F800
FFFFF8
7FFFE0
1FFFC0
0FFF80
07FE00
03FE00
03FE00
03FE00
07DE00
078F00
060300
0C0100
000080
000000
000000
000000
000000
000000
000000
000000
000000
000000
01FC00
01FC00
01FC00
01FC00
01FC00
01FC00
01FC00
01FC00
01FC00
01FC00
01FC00
01FC00
01FC00
01FC00
01FC00
01FC00
01FC00
01FC00
01FC00
01FC00
01FC00
01FC00
01FC00
01FC00
01FC00
01FC00
01FC00
01FC00
01FC00
01FC00
01FC00
01FC00
01FC00
03F000
07C000
0F0000
1F0000
1E0000
3C0000
3C0000
3C0000
3C0200
3E0700
1FBF80
1FFF80
0FFE00
03FC00
ENDCHAR
STARTCHAR 012F
ENCODING 303
SWIDTH 180 0
DWIDTH 14 0
BBX 21 76 -3 -14
BITMAP
002000
002000
002000
007000
007000
007000
00F800
FFFFF8
7FFFE0
1FFFC0
0FFF80
07FE00
03FE00
03FE00
03FE00
07DE00
078F00
060300
0C0100
000080
000000
000000
000000
000000
000000
000000
000000
000000
000000
01FC00
01FC00
01FC00
01FC00
01FC00
01FC00
01FC00
01FC00
01FC00
01FC00
01FC00
01FC00
01FC00
01FC00
01FC00
01FC00
01FC00
01FC00
01FC00
01FC00
01FC00
01FC00
01FC00
01FC00
01FC00
01FC00
01FC00
01FC00
01FC00
01FC00
01FC00
01FC00
01FC00
03F000
07C000
0F0000
1F0000
1E0000
3C0000
3C0000
3C0000
3C0200
3E0700
1FBF80
1FFF80
0FFE00
03FC00
ENDCHAR
STARTCHAR 0130
ENCODING 304
SWIDTH 192 0
DWIDTH 15 0
BBX 12 50 2 0
BITMAP
1F80
3FC0
7FE0
7FF0
FFF0
FFF0
7FF0
7FE0
7FE0
3FC0
0F80
0000
0000
0000
0000
0000
0000
3FC0
3FC0
3FC0
3FC0
3FC0
3FC0
3FC0
3FC0
3FC0
3FC0
3FC0
3FC0
3FC0
3FC0
3FC0
3FC0
3FC0
3FC0
3FC0
3FC0
3FC0
3FC0
3FC0
3FC0
3FC0
3FC0
3FC0
3FC0
3FC0
3FC0
3FC0
3FC0
3FC0
ENDCHAR
STARTCHAR 0139
ENCODING 313
SWIDTH 437 0
DWIDTH 34 0
BBX 28 69 4 0
BITMAP
03F00000
07E00000
0FC00000
0F800000
1F800000
1F000000
3E000000
7C000000
7C000000
F8000000
00000000
00000000
00000000
00000000
00000000
FF000000
FF000000
FF000000
FF000000
FF000000
FF000000
FF000000
FF000000
FF000000
FF000000
FF000000
FF000000
FF000000
FF000000
FF000000
FF000000
FF000000
FF000000
FF000000
FF000000
FF000000
FF000000
FF000000
FF000000
FF000000
FF000000
FF000000
FF000000
FF000000
FF000000
FF000000
FF000000
FF000000
FF000000
FF000000
FF000000
FF000000
FF000000
FF000000
FF000000
FF000000
FF000000
FF000000
FF000000
FF000000
FF000000
FF000000
FFFFFFF0
FFFFFFF0
FFFFFFF0
FFFFFFF0
FFFFFFF0
FFFFFFF0
FFFFFFF0
ENDCHAR
STARTCHAR 013A
ENCODING 314
SWIDTH 437 0
DWIDTH 34 0
BBX 28 69 4 0
BITMAP
03F00000
07E00000
0FC00000
0F800000
1F800000
1F000000
3E000000
7C000000
7C000000
F8000000
00000000
00000000
00000000
00000000
00000000
FF000000
FF000000
FF000000
FF000000
FF000000
FF000000
FF000000
FF000000
FF000000
FF000000
FF000000
FF000000
FF000000
FF000000
FF000000
FF000000
FF000000
FF000000
FF000000
FF000000
FF000000
FF000000
FF000000
FF000000
FF000000
FF000000
FF000000
FF000000
FF000000
FF000000
FF000000
FF000000
FF000000
FF000000
FF000000
FF000000
FF000000
FF000000
FF000000
FF000000
FF000000
FF000000
FF000000
FF000000
FF000000
FF000000
FF000000
FFFFFFF0
FFFFFFF0
FFFFFFF0
FFFFFFF0
FFFFFFF0
FFFFFFF0
FFFFFFF0
ENDCHAR
STARTCHAR 013D
ENCODING 317
SWIDTH 437 0
DWIDTH 34 0
BBX 36 70 -4 0
BITMAP
FE007E0000
7F00FC0000
3F01FC0000
1F83F80000
0FC3F00000
0FE7E00000
07FFC00000
03FFC00000
01FF800000
00FF000000
0000000000
0000000000
0000000000
0000000000
0000000000
0000000000
00FF000000
00FF000000
00FF000000
00FF000000
00FF000000
00FF000000
00FF000000
00FF000000
00FF000000
00FF000000
00FF000000
00FF000000
00FF000000
00FF000000
00FF000000
00FF000000
00FF000000
00FF000000
00FF000000
00FF000000
00FF000000
00FF000000
00FF000000
00FF000000
00FF000000
00FF000000
00FF000000
00FF000000
00FF000000
00FF000000
00FF000000
00FF000000
00FF000000
00FF000000
00FF000000
00FF000000
00FF000000
00FF000000
00FF000000
00FF000000
00FF000000
00FF000000
00FF000000
00FF000000
00FF000000
00FF000000
00FF000000
00FFFFFFF0
00FFFFFFF0
00FFFFFFF0
00FFFFFFF0
00FFFFFFF0
00FFFFFFF0
00FFFFFFF0
ENDCHAR
STARTCHAR 013E
ENCODING 318
SWIDTH 437 0
DWIDTH 34 0
BBX 36 70 -4 0
BITMAP
FE007E0000
7F00FC0000
3F01FC0000
1F83F80000
0FC3F00000
0FE7E00000
07FFC00000
03FFC00000
01FF800000
00FF000000
0000000000
0000000000
0000000000
0000000000
0000000000
0000000000
00FF000000
00FF000000
00FF000000
00FF000000
00FF000000
00FF000000
00FF000000
00FF000000
00FF000000
00FF000000
00FF000000
00FF000000
00FF000000
00FF000000
00FF000000
00FF000000
00FF000000
00FF000000
00FF000000
00FF000000
00FF000000
00FF000000
00FF000000
00FF000000
00FF000000
00FF000000
00FF000000
00FF000000
00FF000000
00FF000000
00FF000000
00FF000000
00FF000000
00FF000000
00FF000000
00FF000000
00FF000000
00FF000000
00FF000000
00FF000000
00FF000000
00FF000000
00FF000000
00FF000000
00FF000000
00FF000000
00FF000000
00FFFFFFF0
00FFFFFFF0
00FFFFFFF0
00FFFFFFF0
00FFFFFFF0
00FFFFFFF0
00FFFFFFF0
ENDCHAR
STARTCHAR 0141
ENCODING 321
SWIDTH 475 0
DWIDTH 37 0
BBX 35 54 1 0
BITMAP
01FC000000
01FC000000
01FC000000
01FC000000
01FC000000
01FC000000
01FC000000
01FC000000
01FC000000
01FC000000
01FC000000
01FC000000
01FC000000
01FC000000
01FC000000
01FC000000
01FC000000
01FC000000
01FC060000
01FC1F0000
01FC3F0000
01FCFF8000
01FFFF0000
01FFFC0000
01FFF00000
01FFC00000
03FF000000
0FFE000000
3FFC000000
7FFC000000
FFFC000000
FFFC000000
79FC000000
61FC000000
01FC000000
01FC000000
01FC000000
01FC000000
01FC000000
01FC000000
01FC000000
01FC000000
01FC000000
01FC000000
01FC000000
01FC000000
01FC000000
01FFFFFFE0
01FFFFFFE0
01FFFFFFE0
01FFFFFFE0
01FFFFFFE0
01FFFFFFE0
01FFFFFFE0
ENDCHAR
STARTCHAR 0142
ENCODING 322
SWIDTH 475 0
DWIDTH 37 0
BBX 35 54 1 0
BITMAP
01FC000000
01FC000000
01FC000000
01FC000000
01FC000000
01FC000000
01FC000000
01FC000000
01FC000000
01FC000000
01FC000000
01FC000000
01FC000000
01FC000000
01FC000000
01FC000000
01FC000000
01FC000000
01FC060000
01FC1F0000
01FC3F0000
01FCFF8000
01FFFF0000
01FFFC0000
01FFF00000
01FFC00000
03FF000000
0FFE000000
3FFC000000
7FFC000000
FFFC000000
FFFC000000
79FC000000
61FC000000
01FC000000
01FC000000
01FC000000
01FC000000
01FC000000
01FC000000
01FC000000
01FC000000
01FC000000
01FC000000
01FC000000
01FC000000
01FC000000
01FFFFFFE0
01FFFFFFE0
01FFFFFFE0
01FFFFFFE0
01FFFFFFE0
01FFFFFFE0
01FFFFFFE0
ENDCHAR
STARTCHAR 0143
ENCODING 323
SWIDTH 514 0
DWIDTH 40 0
BBX 36 69 1 0
BITMAP
000007E000
00000FC000
00000FC000
00001F8000
00001F0000
00003E0000
00003E0000
00007C0000
0000F80000
0000F00000
0000000000
0000000000
0000000000
0800000000
1C00000000
1F00000FF0
3F80000FF0
7FC0000FF0
FFF0000FF0
7FF8000FF0
3FFC000FF0
1FFE000FF0
1FFF800FF0
1FFFC00FF0
1FFFE00FF0
1FFFF80FF0
1FFFFC0FF0
1FFFFE0FF0
1FE7FF0FF0
1FE3FFCFF0
1FE1FFEFF0
1FE07FFFF0
1FE03FFFF0
1FE01FFFF0
1FE00FFFF0
1FE003FFF0
1FE001FFF0
1FE000FFF0
1FE0003FF0
1FE0001FF0
1FE0000FF0
1FE0000FF0
1FE0000FF0
1FE0000FF0
1FE0000FF0
1FE0000FF0
1FE0000FF0
1FE0000FF0
1FE0000FF0
1FE0000FF0
1FE0000FF0
1FE0000FF0
1FE0000FF0
1FE0000FF0
1FE0000FF0
1FE0000FF0
1FE0000FF0
1FE0000FF0
1FE0000FF0
1FE0000FF0
1FE0000FF0
1FE0000FF0
1FE0000FF0
1FE0000FF0
1FE0000FF0
1FE0000FF0
1FE0000FF0
1FE0000FF0
1FE0000FF0
ENDCHAR
STARTCHAR 0144
ENCODING 324
SWIDTH 514 0
DWIDTH 40 0
BBX 36 69 1 0
BITMAP
000007E000
00000FC000
00000FC000
00001F8000
00001F0000
00003E0000
00003E0000
00007C0000
0000F80000
0000F00000
0000000000
0000000000
0000000000
0800000000
1C00000000
1F00000FF0
3F80000FF0
7FC0000FF0
FFF0000FF0
7FF8000FF0
3FFC000FF0
1FFE000FF0
1FFF800FF0
1FFFC00FF0
1FFFE00FF0
1FFFF80FF0
1FFFFC0FF0
1FFFFE0FF0
1FE7FF0FF0
1FE3FFCFF0
1FE1FFEFF0
1FE07FFFF0
1FE03FFFF0
1FE01FFFF0
1FE00FFFF0
1FE003FFF0
1FE001FFF0
1FE000FFF0
1FE0003FF0
1FE0001FF0
1FE0000FF0
1FE0000FF0
1FE0000FF0
1FE0000FF0
1FE0000FF0
1FE0000FF0
1FE0000FF0
1FE0000FF0
1FE0000FF0
1FE0000FF0
1FE0000FF0
1FE0000FF0
1FE0000FF0
1FE0000FF0
1FE0000FF0
1FE0000FF0
1FE0000FF0
1FE0000FF0
1FE0000FF0
1FE0000FF0
1FE0000FF0
1FE0000FF0
1FE0000FF0
1FE0000FF0
1FE0000FF0
1FE0000FF0
1FE0000FF0
1FE0000FF0
1FE0000FF0
ENDCHAR
STARTCHAR 0147
ENCODING 327
SWIDTH 514 0
DWIDTH 40 0
BBX 36 70 1 0
BITMAP
00FC00FE00
007E00FC00
003F01F800
003F83F000
001FC7F000
000FEFE000
0007EFC000
0007FF8000
0003FF0000
0001FF0000
0000000000
0000000000
0000000000
0000000000
0800000000
1C00000000
1F00000FF0
3F80000FF0
7FC0000FF0
FFF0000FF0
7FF8000FF0
3FFC000FF0
1FFE000FF0
1FFF800FF0
1FFFC00FF0
1FFFE00FF0
1FFFF80FF0
1FFFFC0FF0
1FFFFE0FF0
1FE7FF0FF0
1FE3FFCFF0
1FE1FFEFF0
1FE07FFFF0
1FE03FFFF0
1FE01FFFF0
1FE00FFFF0
1FE003FFF0
1FE001FFF0
1FE000FFF0
1FE0003FF0
1FE0001FF0
1FE0000FF0
1FE0000FF0
1FE0000FF0
1FE0000FF0
1FE0000FF0
1FE0000FF0
1FE0000FF0
1FE0000FF0
1FE0000FF0
1FE0000FF0
1FE0000FF0
1FE0000FF0
1FE0000FF0
1FE0000FF0
1FE0000FF0
1FE0000FF0
1FE0000FF0
1FE0000FF0
1FE0000FF0
1FE0000FF0
1FE0000FF0
1FE0000FF0
1FE0000FF0
1FE0000FF0
1FE0000FF0
1FE0000FF0
1FE0000FF0
1FE0000FF0
1FE0000FF0
ENDCHAR
STARTCHAR 0148
ENCODING 328
SWIDTH 514 0
DWIDTH 40 0
BBX 36 70 1 0
BITMAP
00FC00FE00
007E00FC00
003F01F800
003F83F000
001FC7F000
000FEFE000
0007EFC000
0007FF8000
0003FF0000
0001FF0000
0000000000
0000000000
0000000000
0000000000
0800000000
1C00000000
1F00000FF0
3F80000FF0
7FC0000FF0
FFF0000FF0
7FF8000FF0
3FFC000FF0
1FFE000FF0
1FFF800FF0
1FFFC00FF0
1FFFE00FF0
1FFFF80FF0
1FFFFC0FF0
1FFFFE0FF0
1FE7FF0FF0
1FE3FFCFF0
1FE1FFEFF0
1FE07FFFF0
1FE03FFFF0
1FE01FFFF0
1FE00FFFF0
1FE003FFF0
1FE001FFF0
1FE000FFF0
1FE0003FF0
1FE0001FF0
1FE0000FF0
1FE0000FF0
1FE0000FF0
1FE0000FF0
1FE0000FF0
1FE0000FF0
1FE0000FF0
1FE0000FF0
1FE0000FF0
1FE0000FF0
1FE0000FF0
1FE0000FF0
1FE0000FF0
1FE0000FF0
1FE0000FF0
1FE0000FF0
1FE0000FF0
1FE0000FF0
1FE0000FF0
1FE0000FF0
1FE0000FF0
1FE0000FF0
1FE0000FF0
1FE0000FF0
1FE0000FF0
1FE0000FF0
1FE0000FF0
1FE0000FF0
1FE0000FF0
ENDCHAR
STARTCHAR 014C
ENCODING 332
SWIDTH 810 0
DWIDTH 63 0
BBX 58 68 3 -1
BITMAP
00003FFFFF000000
00003FFFFF000000
00003FFFFF000000
00003FFFFF000000
00003FFFFF000000
0000000000000000
0000000000000000
0000000000000000
0000000000000000
0000000000000000
0000000000000000
0000003E00000000
00000FFFF8000000
00007FFFFF000000
0001FFFFFFC00000
0007FFFFFFF00000
000FFFFFFFFC0000
003FFFFFFFFE0000
007FFFC0FFFF0000
00FFF8000FFF8000
01FFE00001FFC000
03FF8000007FE000
07FE0000003FF000
07FC0000001FF800
0FF80000000FFC00
1FF000000007FC00
1FE000000003FE00
3FE000000001FE00
3FC000000001FF00
7F8000000000FF00
7F80000000007F00
7F00000000007F80
FF00000000007F80
FF00000000003F80
FF00000000003F80
FE00000000003FC0
FE00000000003FC0
FE00000000003FC0
FE00000000003FC0
FE00000000003FC0
FE00000000003FC0
FE00000000003FC0
FE00000000003FC0
FE00000000003FC0
FE00000000003FC0
FF00000000003F80
FF00000000007F80
7F00000000007F80
7F80000000007F80
7F8000000000FF00
3FC000000000FF00
3FC000000001FE00
3FE000000001FE00
1FF000000003FC00
0FF000000007FC00
0FFC0000000FF800
07FE0000001FF800
03FF0000007FF000
01FFC00000FFE000
01FFF00003FFC000
00FFFC001FFF8000
003FFFFFFFFF0000
001FFFFFFFFE0000
000FFFFFFFF80000
0003FFFFFFE00000
0000FFFFFF800000
00003FFFFE000000
000003FFE0000000
ENDCHAR
STARTCHAR 014D
ENCODING 333
SWIDTH 810 0
DWIDTH 63 0
BBX 58 68 3 -1
BITMAP
00003FFFFF000000
00003FFFFF000000
00003FFFFF000000
00003FFFFF000000
00003FFFFF000000
0000000000000000
0000000000000000
0000000000000000
0000000000000000
0000000000000000
0000000000000000
0000003E00000000
00000FFFF8000000
00007FFFFF000000
0001FFFFFFC00000
0007FFFFFFF00000
000FFFFFFFFC0000
003FFFFFFFFE0000
007FFFC0FFFF0000
00FFF8000FFF8000
01FFE00001FFC000
03FF8000007FE000
07FE0000003FF000
07FC0000001FF800
0FF80000000FFC00
1FF000000007FC00
1FE000000003FE00
3FE000000001FE00
3FC000000001FF00
7F8000000000FF00
7F80000000007F00
7F00000000007F80
FF00000000007F80
FF00000000003F80
FF00000000003F80
FE00000000003FC0
FE00000000003FC0
FE00000000003FC0
FE00000000003FC0
FE00000000003FC0
FE00000000003FC0
FE00000000003FC0
FE00000000003FC0
FE00000000003FC0
FE00000000003FC0
FF00000000003F80
FF00000000007F80
7F00000000007F80
7F80000000007F80
7F8000000000FF00
3FC000000000FF00
3FC000000001FE00
3FE000000001FE00
1FF000000003FC00
0FF000000007FC00
0FFC0000000FF800
07FE0000001FF800
03FF0000007FF000
01FFC00000FFE000
01FFF00003FFC000
00FFFC001FFF8000
003FFFFFFFFF0000
001FFFFFFFFE0000
000FFFFFFFF80000
0003FFFFFFE00000
0000FFFFFF800000
00003FFFFE000000
000003FFE0000000
ENDCHAR
STARTCHAR 0150
ENCODING 336
SWIDTH 810 0
DWIDTH 63 0
BBX 58 70 3 -1
BITMAP
000000FC07F00000
000000FC07E00000
000001F80FC00000
000001F00F800000
000003E01F800000
000007E01F000000
000007C03E000000
00000F807C000000
00000F007C000000
00001F00F8000000
0000000000000000
0000000000000000
0000000000000000
0000003E00000000
00000FFFF8000000
00007FFFFF000000
0001FFFFFFC00000
0007FFFFFFF00000
000FFFFFFFFC0000
003FFFFFFFFE0000
007FFFC0FFFF0000
00FFF8000FFF8000
01FFE00001FFC000
03FF8000007FE000
07FE0000003FF000
07FC0000001FF800
0FF80000000FFC00
1FF000000007FC00
1FE000000003FE00
3FE000000001FE00
3FC000000001FF00
7F8000000000FF00
7F80000000007F00
7F00000000007F80
FF00000000007F80
FF00000000003F80
FF00000000003F80
FE00000000003FC0
FE00000000003FC0
FE00000000003FC0
FE00000000003FC0
FE00000000003FC0
FE00000000003FC0
FE00000000003FC0
FE00000000003FC0
FE00000000003FC0
FE00000000003FC0
FF00000000003F80
FF00000000007F80
7F00000000007F80
7F80000000007F80
7F8000000000FF00
3FC000000000FF00
3FC000000001FE00
3FE000000001FE00
1FF000000003FC00
0FF000000007FC00
0FFC0000000FF800
07FE0000001FF800
03FF0000007FF000
01FFC00000FFE000
01FFF00003FFC000
00FFFC001FFF8000
003FFFFFFFFF0000
001FFFFFFFFE0000
000FFFFFFFF80000
0003FFFFFFE00000
0000FFFFFF800000
00003FFFFE000000
000003FFE0000000
ENDCHAR
STARTCHAR 0151
ENCODING 337
SWIDTH 810 0
DWIDTH 63 0
BBX 58 70 3 -1
BITMAP
000000FC07F00000
000000FC07E00000
000001F80FC00000
000001F00F800000
000003E01F800000
000007E01F000000
000007C03E000000
00000F807C000000
00000F007C000000
00001F00F8000000
0000000000000000
0000000000000000
0000000000000000
0000003E00000000
00000FFFF8000000
00007FFFFF000000
0001FFFFFFC00000
0007FFFFFFF00000
000FFFFFFFFC0000
003FFFFFFFFE0000
007FFFC0FFFF0000
00FFF8000FFF8000
01FFE00001FFC000
03FF8000007FE000
07FE0000003FF000
07FC0000001FF800
0FF80000000FFC00
1FF000000007FC00
1FE000000003FE00
3FE000000001FE00
3FC000000001FF00
7F8000000000FF00
7F80000000007F00
7F00000000007F80
FF00000000007F80
FF00000000003F80
FF00000000003F80
FE00000000003FC0
FE00000000003FC0
FE00000000003FC0
FE00000000003FC0
FE00000000003FC0
FE00000000003FC0
FE00000000003FC0
FE00000000003FC0
FE00000000003FC0
FE00000000003FC0
FF00000000003F80
FF00000000007F80
7F00000000007F80
7F80000000007F80
7F8000000000FF00
3FC000000000FF00
3FC000000001FE00
3FE000000001FE00
1FF000000003FC00
0FF000000007FC00
0FFC0000000FF800
07FE0000001FF800
03FF0000007FF000
01FFC00000FFE000
01FFF00003FFC000
00FFFC001FFF8000
003FFFFFFFFF0000
001FFFFFFFFE0000
000FFFFFFFF80000
0003FFFFFFE00000
0000FFFFFF800000
00003FFFFE000000
000003FFE0000000
ENDCHAR
STARTCHAR 0154
ENCODING 340
SWIDTH 578 0
DWIDTH 45 0
BBX 41 69 2 0
BITMAP
000003F00000
000007E00000
000007E00000
00000FC00000
00000F800000
00001F000000
00001F000000
00003E000000
00007C000000
000078000000
000000000000
000000000000
000000000000
000000000000
000000000000
07FFFFF80000
07FFFFFF0000
07FFFFFFC000
07FFFFFFE000
07FFFFFFF000
07FFFFFFF800
07F801FFFC00
07F8000FFE00
07F80003FE00
07F80001FF00
07F80000FF00
07F800007F80
07F800007F80
07F800007F80
07F800003F80
07F800003F80
07F800003F80
07F800003F80
07F800007F80
07F800007F80
07F800007F00
07F80000FF00
07F80001FF00
07F80003FE00
07F8000FFE00
07F800FFFC00
FFFFFFFFF800
FFFFFFFFF000
FFFFFFFFE000
FFFFFFFF8000
FFFFFFFF8000
FFFFFFFFC000
07F807FFE000
07F8007FE000
07F8001FF000
07F8000FF000
07F80007F800
07F80007F800
07F80003FC00
07F80003FC00
07F80001FC00
07F80001FC00
07F80001FC00
07F80001FE00
07F80001FE00
07F80001FE00
07F80001FE00
07F80001FE00
07F80001FE00
07F80001FE00
07F80001FE00
07F80001FE00
07F80001FE00
07F80001FE00
ENDCHAR
STARTCHAR 0155
ENCODING 341
SWIDTH 578 0
DWIDTH 45 0
BBX 41 69 2 0
BITMAP
000003F00000
000007E00000
000007E00000
00000FC00000
00000F800000
00001F000000
00001F000000
00003E000000
00007C000000
000078000000
000000000000
000000000000
000000000000
000000000000
000000000000
07FFFFF80000
07FFFFFF0000
07FFFFFFC000
07FFFFFFE000
07FFFFFFF000
07FFFFFFF800
07F801FFFC00
07F8000FFE00
07F80003FE00
07F80001FF00
07F80000FF00
07F800007F80
07F800007F80
07F800007F80
07F800003F80
07F800003F80
07F800003F80
07F800003F80
07F800007F80
07F800007F80
07F800007F00
07F80000FF00
07F80001FF00
07F80003FE00
07F8000FFE00
07F800FFFC00
FFFFFFFFF800
FFFFFFFFF000
FFFFFFFFE000
FFFFFFFF8000
FFFFFFFF8000
FFFFFFFFC000
07F807FFE000
07F8007FE000
07F8001FF000
07F8000FF000
07F80007F800
07F80007F800
07F80003FC00
07F80003FC00
07F80001FC00
07F80001FC00
07F80001FC00
07F80001FE00
07F80001FE00
07F80001FE00
07F80001FE00
07F80001FE00
07F80001FE00
07F80001FE00
07F80001FE00
07F80001FE00
07F80001FE00
07F80001FE00
ENDCHAR
STARTCHAR 0158
ENCODING 344
SWIDTH 578 0
DWIDTH 45 0
BBX 41 70 2 0
BITMAP
007E007F0000
003F007E0000
001F80FC0000
001FC1F80000
000FE3F80000
0007F7F00000
0003F7E00000
0001FFC00000
0001FFC00000
0000FF800000
000000000000
000000000000
000000000000
000000000000
000000000000
000000000000
07FFFFF80000
07FFFFFF0000
07FFFFFFC000
07FFFFFFE000
07FFFFFFF000
07FFFFFFF800
07F801FFFC00
07F8000FFE00
07F80003FE00
07F80001FF00
07F80000FF00
07F800007F80
07F800007F80
07F800007F80
07F800003F80
07F800003F80
07F800003F80
07F800003F80
07F800007F80
07F800007F80
07F800007F00
07F80000FF00
07F80001FF00
07F80003FE00
07F8000FFE00
07F800FFFC00
FFFFFFFFF800
FFFFFFFFF000
FFFFFFFFE000
FFFFFFFF8000
FFFFFFFF8000
FFFFFFFFC000
07F807FFE000
07F8007FE000
07F8001FF000
07F8000FF000
07F80007F800
07F80007F800
07F80003FC00
07F80003FC00
07F80001FC00
07F80001FC00
07F80001FC00
07F80001FE00
07F80001FE00
07F80001FE00
07F80001FE00
07F80001FE00
07F80001FE00
07F80001FE00
07F80001FE00
07F80001FE00
07F80001FE00
07F80001FE00
ENDCHAR
STARTCHAR 0159
ENCODING 345
SWIDTH 578 0
DWIDTH 45 0
BBX 41 70 2 0
BITMAP
007E007F0000
003F007E0000
001F80FC0000
001FC1F80000
000FE3F80000
0007F7F00000
0003F7E00000
0001FFC00000
0001FFC00000
0000FF800000
000000000000
000000000000
000000000000
000000000000
000000000000
000000000000
07FFFFF80000
07FFFFFF0000
07FFFFFFC000
07FFFFFFE000
07FFFFFFF000
07FFFFFFF800
07F801FFFC00
07F8000FFE00
07F80003FE00
07F80001FF00
07F80000FF00
07F800007F80
07F800007F80
07F800007F80
07F800003F80
07F800003F80
07F800003F80
07F800003F80
07F800007F80
07F800007F80
07F800007F00
07F80000FF00
07F80001FF00
07F80003FE00
07F8000FFE00
07F800FFFC00
FFFFFFFFF800
FFFFFFFFF000
FFFFFFFFE000
FFFFFFFF8000
FFFFFFFF8000
FFFFFFFFC000
07F807FFE000
07F8007FE000
07F8001FF000
07F8000FF000
07F80007F800
07F80007F800
07F80003FC00
07F80003FC00
07F80001FC00
07F80001FC00
07F80001FC00
07F80001FE00
07F80001FE00
07F80001FE00
07F80001FE00
07F80001FE00
07F80001FE00
07F80001FE00
07F80001FE00
07F80001FE00
07F80001FE00
07F80001FE00
ENDCHAR
STARTCHAR 015A
ENCODING 346
SWIDTH 488 0
DWIDTH 38 0
BBX 34 70 2 -1
BITMAP
00001F8000
00003F0000
00003E0000
00007E0000
0000FC0000
0000F80000
0001F00000
0001F00000
0003E00000
0003C00000
0000000000
0000000000
0000000000
0003E00000
001FFF0000
007FFFC000
01FFFFE000
03FFFFF000
07FFFFF800
07FFFFFC00
0FFF1FFE00
0FF803FE00
1FF001FF00
1FE000FF00
1FE0007F00
1FC0007F80
1FC0007F80
1FC0003E00
1FC0002000
1FE0000000
1FE0000000
1FF0000000
0FF8000000
0FFC000000
07FE000000
03FF800000
01FFE00000
00FFF00000
007FFC0000
003FFF0000
000FFF8000
0007FFE000
0001FFF000
00007FF800
00003FFC00
00000FFE00
000007FF00
000001FF00
000000FF80
0000007F80
0000007FC0
0000003FC0
0000003FC0
0000001FC0
0E00001FC0
FF00001FC0
FF00001FC0
7F80003FC0
7F80003FC0
7FC0007FC0
3FE0007F80
3FF001FF80
1FFC03FF00
0FFFFFFF00
0FFFFFFE00
07FFFFFC00
01FFFFF800
00FFFFF000
003FFFC000
000FFE0000
ENDCHAR
STARTCHAR 015B
ENCODING 347
SWIDTH 488 0
DWIDTH 38 0
BBX 34 70 2 -1
BITMAP
00001F8000
00003F0000
00003E0000
00007E0000
0000FC0000
0000F80000
0001F00000
0001F00000
0003E00000
0003C00000
0000000000
0000000000
0000000000
0003E00000
001FFF0000
007FFFC000
01FFFFE000
03FFFFF000
07FFFFF800
07FFFFFC00
0FFF1FFE00
0FF803FE00
1FF001FF00
1FE000FF00
1FE0007F00
1FC0007F80
1FC0007F80
1FC0003E00
1FC0002000
1FE0000000
1FE0000000
1FF0000000
0FF8000000
0FFC000000
07FE000000
03FF800000
01FFE00000
00FFF00000
007FFC0000
003FFF0000
000FFF8000
0007FFE000
0001FFF000
00007FF800
00003FFC00
00000FFE00
000007FF00
000001FF00
000000FF80
0000007F80
0000007FC0
0000003FC0
0000003FC0
0000001FC0
0E00001FC0
FF00001FC0
FF00001FC0
7F80003FC0
7F80003FC0
7FC0007FC0
3FE0007F80
3FF001FF80
1FFC03FF00
0FFFFFFF00
0FFFFFFE00
07FFFFFC00
01FFFFF800
00FFFFF000
003FFFC000
000FFE0000
ENDCHAR
STARTCHAR 015E
ENCODING 350
SWIDTH 488 0
DWIDTH 38 0
BBX 34 73 2 -17
BITMAP
0003E00000
001FFF0000
007FFFC000
01FFFFE000
03FFFFF000
07FFFFF800
07FFFFFC00
0FFF1FFE00
0FF803FE00
1FF001FF00
1FE000FF00
1FE0007F00
1FC0007F80
1FC0007F80
1FC0003E00
1FC0002000
1FE0000000
1FE0000000
1FF0000000
0FF8000000
0FFC000000
07FE000000
03FF800000
01FFE00000
00FFF00000
007FFC0000
003FFF0000
000FFF8000
0007FFE000
0001FFF000
00007FF800
00003FFC00
00000FFE00
000007FF00
000001FF00
000000FF80
0000007F80
0000007FC0
0000003FC0
0000003FC0
0000001FC0
0E00001FC0
FF00001FC0
FF00001FC0
7F80003FC0
7F80003FC0
7FC0007FC0
3FE0007F80
3FF001FF80
1FFC03FF00
0FFFFFFF00
0FFFFFFE00
07FFFFFC00
01FFFFF800
00FFFFF000
003FFFC000
0007FE0000
0001F00000
0001E00000
0001F80000
0001FC0000
00003E0000
00001F0000
00000F0000
00000F0000
00200F0000
00700F0000
00F81F0000
00FE3F0000
007FFE0000
003FFC0000
000FF80000
0001C00000
ENDCHAR
STARTCHAR 015F
ENCODING 351
SWIDTH 488 0
DWIDTH 38 0
BBX 34 73 2 -17
BITMAP
0003E00000
001FFF0000
007FFFC000
01FFFFE000
03FFFFF000
07FFFFF800
07FFFFFC00
0FFF1FFE00
0FF803FE00
1FF001FF00
1FE000FF00
1FE0007F00
1FC0007F80
1FC0007F80
1FC0003E00
1FC0002000
1FE0000000
1FE0000000
1FF0000000
0FF8000000
0FFC000000
07FE000000
03FF800000
01FFE00000
00FFF00000
007FFC0000
003FFF0000
000FFF8000
0007FFE000
0001FFF000
00007FF800
00003FFC00
00000FFE00
000007FF00
000001FF00
000000FF80
0000007F80
0000007FC0
0000003FC0
0000003FC0
0000001FC0
0E00001FC0
FF00001FC0
FF00001FC0
7F80003FC0
7F80003FC0
7FC0007FC0
3FE0007F80
3FF001FF80
1FFC03FF00
0FFFFFFF00
0FFFFFFE00
07FFFFFC00
01FFFFF800
00FFFFF000
003FFFC000
0007FE0000
0001F00000
0001E00000
0001F80000
0001FC0000
00003E0000
00001F0000
00000F0000
00000F0000
00200F0000
00700F0000
00F81F0000
00FE3F0000
007FFE0000
003FFC0000
000FF80000
0001C00000
ENDCHAR
STARTCHAR 0160
ENCODING 352
SWIDTH 488 0
DWIDTH 38 0
BBX 34 71 2 -1
BITMAP
03F003F000
01F807F000
01FC0FE000
00FE0FC000
007E1F8000
003F3F0000
003FFF0000
001FFE0000
000FFC0000
0007F80000
0000000000
0000000000
0000000000
0000000000
0003E00000
001FFF0000
007FFFC000
01FFFFE000
03FFFFF000
07FFFFF800
07FFFFFC00
0FFF1FFE00
0FF803FE00
1FF001FF00
1FE000FF00
1FE0007F00
1FC0007F80
1FC0007F80
1FC0003E00
1FC0002000
1FE0000000
1FE0000000
1FF0000000
0FF8000000
0FFC000000
07FE000000
03FF800000
01FFE00000
00FFF00000
007FFC0000
003FFF0000
000FFF8000
0007FFE000
0001FFF000
00007FF800
00003FFC00
00000FFE00
000007FF00
000001FF00
000000FF80
0000007F80
0000007FC0
0000003FC0
0000003FC0
0000001FC0
0E00001FC0
FF00001FC0
FF00001FC0
7F80003FC0
7F80003FC0
7FC0007FC0
3FE0007F80
3FF001FF80
1FFC03FF00
0FFFFFFF00
0FFFFFFE00
07FFFFFC00
01FFFFF800
00FFFFF000
003FFFC000
000FFE0000
ENDCHAR
STARTCHAR 0161
ENCODING 353
SWIDTH 488 0
DWIDTH 38 0
BBX 34 71 2 -1
BITMAP
03F003F000
01F807F000
01FC0FE000
00FE0FC000
007E1F8000
003F3F0000
003FFF0000
001FFE0000
000FFC0000
0007F80000
0000000000
0000000000
0000000000
0000000000
0003E00000
001FFF0000
007FFFC000
01FFFFE000
03FFFFF000
07FFFFF800
07FFFFFC00
0FFF1FFE00
0FF803FE00
1FF001FF00
1FE000FF00
1FE0007F00
1FC0007F80
1FC0007F80
1FC0003E00
1FC0002000
1FE0000000
1FE0000000
1FF0000000
0FF8000000
0FFC000000
07FE000000
03FF800000
01FFE00000
00FFF00000
007FFC0000
003FFF0000
000FFF8000
0007FFE000
0001FFF000
00007FF800
00003FFC00
00000FFE00
000007FF00
000001FF00
000000FF80
0000007F80
0000007FC0
0000003FC0
0000003FC0
0000001FC0
0E00001FC0
FF00001FC0
FF00001FC0
7F80003FC0
7F80003FC0
7FC0007FC0
3FE0007F80
3FF001FF80
1FFC03FF00
0FFFFFFF00
0FFFFFFE00
07FFFFFC00
01FFFFF800
00FFFFF000
003FFFC000
000FFE0000
ENDCHAR
STARTCHAR 0162
ENCODING 354
SWIDTH 501 0
DWIDTH 39 0
BBX 35 71 2 -17
BITMAP
FFFFFFFFE0
FFFFFFFFE0
FFFFFFFFE0
FFFFFFFFE0
FFFFFFFFE0
FFFFFFFFE0
0003F80000
0003F80000
0003F80000
0003F80000
0003F80000
0003F80000
0003F80000
0003F80000
0003F80000
0003F80000
0003F80000
0003F80000
0003F80000
0003F80000
0003F80000
0003F80000
0003F80000
0003F80000
0003F80000
0003F80000
0003F80000
0003F80000
0003F80000
0003F80000
0003F80000
0003F80000
0003F80000
0003F80000
0003F80000
0003F80000
0003F80000
0003F80000
0003F80000
0003F80000
0003F80000
0003F80000
0003F80000
0003F80000
0003F80000
0003F80000
0003F80000
0003F80000
0003F80000
0003F80000
0003F80000
0003F80000
0003F80000
0003F80000
0001F00000
0001E00000
0003E00000
0003F00000
0003FC0000
00007E0000
00001E0000
00000F0000
00000F0000
00600F0000
00E00F0000
01F01F0000
00FE7E0000
007FFE0000
003FFC0000
001FF80000
0003C00000
ENDCHAR
STARTCHAR 0163
ENCODING 355
SWIDTH 501 0
DWIDTH 39 0
BBX 35 71 2 -17
BITMAP
FFFFFFFFE0
FFFFFFFFE0
FFFFFFFFE0
FFFFFFFFE0
FFFFFFFFE0
FFFFFFFFE0
0003F80000
0003F80000
0003F80000
0003F80000
0003F80000
0003F80000
0003F80000
0003F80000
0003F80000
0003F80000
0003F80000
0003F80000
0003F80000
0003F80000
0003F80000
0003F80000
0003F80000
0003F80000
0003F80000
0003F80000
0003F80000
0003F80000
0003F80000
0003F80000
0003F80000
0003F80000
0003F80000
0003F80000
0003F80000
0003F80000
0003F80000
0003F80000
0003F80000
0003F80000
0003F80000
0003F80000
0003F80000
0003F80000
0003F80000
0003F80000
0003F80000
0003F80000
0003F80000
0003F80000
0003F80000
0003F80000
0003F80000
0003F80000
0001F00000
0001E00000
0003E00000
0003F00000
0003FC0000
00007E0000
00001E0000
00000F0000
00000F0000
00600F0000
00E00F0000
01F01F0000
00FE7E0000
007FFE0000
003FFC0000
001FF80000
0003C00000
ENDCHAR
STARTCHAR 0164
ENCODING 356
SWIDTH 501 0
DWIDTH 39 0
BBX 35 70 2 0
BITMAP
03F801F800
01F803F000
00FC07E000
007E0FC000
007F1FC000
003F9F8000
001FFF0000
000FFE0000
000FFE0000
0007FC0000
0000000000
0000000000
0000000000
0000000000
0000000000
0000000000
FFFFFFFFE0
FFFFFFFFE0
FFFFFFFFE0
FFFFFFFFE0
FFFFFFFFE0
FFFFFFFFE0
0003F80000
0003F80000
0003F80000
0003F80000
0003F80000
0003F80000
0003F80000
0003F80000
0003F80000
0003F80000
0003F80000
0003F80000
0003F80000
0003F80000
0003F80000
0003F80000
0003F80000
0003F80000
0003F80000
0003F80000
0003F80000
0003F80000
0003F80000
0003F80000
0003F80000
0003F80000
0003F80000
0003F80000
0003F80000
0003F80000
0003F80000
0003F80000
0003F80000
0003F80000
0003F80000
0003F80000
0003F80000
0003F80000
0003F80000
0003F80000
0003F80000
0003F80000
0003F80000
0003F80000
0003F80000
0003F80000
0003F80000
0003F80000
ENDCHAR
STARTCHAR 0165
ENCODING 357
SWIDTH 501 0
DWIDTH 39 0
BBX 35 70 2 0
BITMAP
03F801F800
01F803F000
00FC07E000
007E0FC000
007F1FC000
003F9F8000
001FFF0000
000FFE0000
000FFE0000
0007FC0000
0000000000
0000000000
0000000000
0000000000
0000000000
0000000000
FFFFFFFFE0
FFFFFFFFE0
FFFFFFFFE0
FFFFFFFFE0
FFFFFFFFE0
FFFFFFFFE0
0003F80000
0003F80000
0003F80000
0003F80000
0003F80000
0003F80000
0003F80000
0003F80000
0003F80000
0003F80000
0003F80000
0003F80000
0003F80000
0003F80000
0003F80000
0003F80000
0003F80000
0003F80000
0003F80000
0003F80000
0003F80000
0003F80000
0003F80000
0003F80000
0003F80000
0003F80000
0003F80000
0003F80000
0003F80000
0003F80000
0003F80000
0003F80000
0003F80000
0003F80000
0003F80000
0003F80000
0003F80000
0003F80000
0003F80000
0003F80000
0003F80000
0003F80000
0003F80000
0003F80000
0003F80000
0003F80000
0003F80000
0003F80000
ENDCHAR
STARTCHAR 0168
ENCODING 360
SWIDTH 501 0
DWIDTH 39 0
BBX 33 70 3 -1
BITMAP
007C000000
03FF808000
03FFFF8000
03FFFF8000
03FFFF8000
0303FF8000
00003E0000
0000000000
0000000000
0000000000
0000000000
0000000000
0000000000
0000000000
0000000000
FF00003F80
FF00003F80
FF00003F80
FF00003F80
FF00003F80
FF00003F80
FF00003F80
FF00003F80
FF00003F80
FF00003F80
FF00003F80
FF00003F80
FF00003F80
FF00003F80
FF00003F80
FF00003F80
FF00003F80
FF00003F80
FF00003F80
FF00003F80
FF00003F80
FF00003F80
FF00003F80
FF00003F80
FF00003F80
FF00003F80
FF00003F80
FF00003F80
FF00003F80
FF00003F80
FF00003F80
FF00003F80
FF00003F80
FF00003F80
FF00003F80
FF00003F80
FF00003F80
FF00003F80
FF00003F80
FF00003F80
7F00007F80
7F00007F80
7F80007F80
7F8000FF00
3FC000FF00
3FC001FF00
3FE003FE00
1FF807FE00
0FFFFFFC00
0FFFFFF800
07FFFFF000
03FFFFE000
00FFFFC000
007FFF0000
000FFC0000
ENDCHAR
STARTCHAR 0169
ENCODING 361
SWIDTH 501 0
DWIDTH 39 0
BBX 33 70 3 -1
BITMAP
007C000000
03FF808000
03FFFF8000
03FFFF8000
03FFFF8000
0303FF8000
00003E0000
0000000000
0000000000
0000000000
0000000000
0000000000
0000000000
0000000000
0000000000
FF00003F80
FF00003F80
FF00003F80
FF00003F80
FF00003F80
FF00003F80
FF00003F80
FF00003F80
FF00003F80
FF00003F80
FF00003F80
FF00003F80
FF00003F80
FF00003F80
FF00003F80
FF00003F80
FF00003F80
FF00003F80
FF00003F80
FF00003F80
FF00003F80
FF00003F80
FF00003F80
FF00003F80
FF00003F80
FF00003F80
FF00003F80
FF00003F80
FF00003F80
FF00003F80
FF00003F80
FF00003F80
FF00003F80
FF00003F80
FF00003F80
FF00003F80
FF00003F80
FF00003F80
FF00003F80
FF00003F80
7F00007F80
7F00007F80
7F80007F80
7F8000FF00
3FC000FF00
3FC001FF00
3FE003FE00
1FF807FE00
0FFFFFFC00
0FFFFFF800
07FFFFF000
03FFFFE000
00FFFFC000
007FFF0000
000FFC0000
ENDCHAR
STARTCHAR 016A
ENCODING 362
SWIDTH 501 0
DWIDTH 39 0
BBX 33 68 3 -1
BITMAP
03FFFFF000
03FFFFF000
03FFFFF000
03FFFFF000
03FFFFF000
0000000000
0000000000
0000000000
0000000000
0000000000
0000000000
0000000000
0000000000
FF00003F80
FF00003F80
FF00003F80
FF00003F80
FF00003F80
FF00003F80
FF00003F80
FF00003F80
FF00003F80
FF00003F80
FF00003F80
FF00003F80
FF00003F80
FF00003F80
FF00003F80
FF00003F80
FF00003F80
FF00003F80
FF00003F80
FF00003F80
FF00003F80
FF00003F80
FF00003F80
FF00003F80
FF00003F80
FF00003F80
FF00003F80
FF00003F80
FF00003F80
FF00003F80
FF00003F80
FF00003F80
FF00003F80
FF00003F80
FF00003F80
FF00003F80
FF00003F80
FF00003F80
FF00003F80
FF00003F80
7F00007F80
7F00007F80
7F80007F80
7F8000FF00
3FC000FF00
3FC001FF00
3FE003FE00
1FF807FE00
0FFFFFFC00
0FFFFFF800
07FFFFF000
03FFFFE000
00FFFFC000
007FFF0000
000FFC0000
ENDCHAR
STARTCHAR 016B
ENCODING 363
SWIDTH 501 0
DWIDTH 39 0
BBX 33 68 3 -1
BITMAP
03FFFFF000
03FFFFF000
03FFFFF000
03FFFFF000
03FFFFF000
0000000000
0000000000
0000000000
0000000000
0000000000
0000000000
0000000000
0000000000
FF00003F80
FF00003F80
FF00003F80
FF00003F80
FF00003F80
FF00003F80
FF00003F80
FF00003F80
FF00003F80
FF00003F80
FF00003F80
FF00003F80
FF00003F80
FF00003F80
FF00003F80
FF00003F80
FF00003F80
FF00003F80
FF00003F80
FF00003F80
FF00003F80
FF00003F80
FF00003F80
FF00003F80
FF00003F80
FF00003F80
FF00003F80
FF00003F80
FF00003F80
FF00003F80
FF00003F80
FF00003F80
FF00003F80
FF00003F80
FF00003F80
FF00003F80
FF00003F80
FF00003F80
FF00003F80
FF00003F80
7F00007F80
7F00007F80
7F80007F80
7F8000FF00
3FC000FF00
3FC001FF00
3FE003FE00
1FF807FE00
0FFFFFFC00
0FFFFFF800
07FFFFF000
03FFFFE000
00FFFFC000
007FFF0000
000FFC0000
ENDCHAR
STARTCHAR 016E
ENCODING 366
SWIDTH 501 0
DWIDTH 39 0
BBX 33 76 3 -1
BITMAP
0000C00000
0007F80000
001FFC0000
003FFE0000
003E3F0000
007C0F0000
00780F0000
0078078000
0078078000
0078070000
00780F0000
003C1F0000
003FFE0000
001FFE0000
000FF80000
0003E00000
0000000000
0000000000
0000000000
0000000000
0000000000
FF00003F80
FF00003F80
FF00003F80
FF00003F80
FF00003F80
FF00003F80
FF00003F80
FF00003F80
FF00003F80
FF00003F80
FF00003F80
FF00003F80
FF00003F80
FF00003F80
FF00003F80
FF00003F80
FF00003F80
FF00003F80
FF00003F80
FF00003F80
FF00003F80
FF00003F80
FF00003F80
FF00003F80
FF00003F80
FF00003F80
FF00003F80
FF00003F80
FF00003F80
FF00003F80
FF00003F80
FF00003F80
FF00003F80
FF00003F80
FF00003F80
FF00003F80
FF00003F80
FF00003F80
FF00003F80
FF00003F80
7F00007F80
7F00007F80
7F80007F80
7F8000FF00
3FC000FF00
3FC001FF00
3FE003FE00
1FF807FE00
0FFFFFFC00
0FFFFFF800
07FFFFF000
03FFFFE000
00FFFFC000
007FFF0000
000FFC0000
ENDCHAR
STARTCHAR 016F
ENCODING 367
SWIDTH 501 0
DWIDTH 39 0
BBX 33 76 3 -1
BITMAP
0000C00000
0007F80000
001FFC0000
003FFE0000
003E3F0000
007C0F0000
00780F0000
0078078000
0078078000
0078070000
00780F0000
003C1F0000
003FFE0000
001FFE0000
000FF80000
0003E00000
0000000000
0000000000
0000000000
0000000000
0000000000
FF00003F80
FF00003F80
FF00003F80
FF00003F80
FF00003F80
FF00003F80
FF00003F80
FF00003F80
FF00003F80
FF00003F80
FF00003F80
FF00003F80
FF00003F80
FF00003F80
FF00003F80
FF00003F80
FF00003F80
FF00003F80
FF00003F80
FF00003F80
FF00003F80
FF00003F80
FF00003F80
FF00003F80
FF00003F80
FF00003F80
FF00003F80
FF00003F80
FF00003F80
FF00003F80
FF00003F80
FF00003F80
FF00003F80
FF00003F80
FF00003F80
FF00003F80
FF00003F80
FF00003F80
FF00003F80
FF00003F80
7F00007F80
7F00007F80
7F80007F80
7F8000FF00
3FC000FF00
3FC001FF00
3FE003FE00
1FF807FE00
0FFFFFFC00
0FFFFFF800
07FFFFF000
03FFFFE000
00FFFFC000
007FFF0000
000FFC0000
ENDCHAR
STARTCHAR 0170
ENCODING 368
SWIDTH 501 0
DWIDTH 39 0
BBX 33 70 3 -1
BITMAP
000FC07F00
000FC07E00
001F80FC00
001F00F800
003E01F800
007E01F000
007C03E000
00F807C000
00F007C000
01F00F8000
0000000000
0000000000
0000000000
0000000000
0000000000
FF00003F80
FF00003F80
FF00003F80
FF00003F80
FF00003F80
FF00003F80
FF00003F80
FF00003F80
FF00003F80
FF00003F80
FF00003F80
FF00003F80
FF00003F80
FF00003F80
FF00003F80
FF00003F80
FF00003F80
FF00003F80
FF00003F80
FF00003F80
FF00003F80
FF00003F80
FF00003F80
FF00003F80
FF00003F80
FF00003F80
FF00003F80
FF00003F80
FF00003F80
FF00003F80
FF00003F80
FF00003F80
FF00003F80
FF00003F80
FF00003F80
FF00003F80
FF00003F80
FF00003F80
FF00003F80
FF00003F80
7F00007F80
7F00007F80
7F80007F80
7F8000FF00
3FC000FF00
3FC001FF00
3FE003FE00
1FF807FE00
0FFFFFFC00
0FFFFFF800
07FFFFF000
03FFFFE000
00FFFFC000
007FFF0000
000FFC0000
ENDCHAR
STARTCHAR 0171
ENCODING 369
SWIDTH 501 0
DWIDTH 39 0
BBX 33 70 3 -1
BITMAP
000FC07F00
000FC07E00
001F80FC00
001F00F800
003E01F800
007E01F000
007C03E000
00F807C000
00F007C000
01F00F8000
0000000000
0000000000
0000000000
0000000000
0000000000
FF00003F80
FF00003F80
FF00003F80
FF00003F80
FF00003F80
FF00003F80
FF00003F80
FF00003F80
FF00003F80
FF00003F80
FF00003F80
FF00003F80
FF00003F80
FF00003F80
FF00003F80
FF00003F80
FF00003F80
FF00003F80
FF00003F80
FF00003F80
FF00003F80
FF00003F80
FF00003F80
FF00003F80
FF00003F80
FF00003F80
FF00003F80
FF00003F80
FF00003F80
FF00003F80
FF00003F80
FF00003F80
FF00003F80
FF00003F80
FF00003F80
FF00003F80
FF00003F80
FF00003F80
FF00003F80
FF00003F80
7F00007F80
7F00007F80
7F80007F80
7F8000FF00
3FC000FF00
3FC001FF00
3FE003FE00
1FF807FE00
0FFFFFFC00
0FFFFFF800
07FFFFF000
03FFFFE000
00FFFFC000
007FFF0000
000FFC0000
ENDCHAR
STARTCHAR 0172
ENCODING 370
SWIDTH 501 0
DWIDTH 39 0
BBX 33 69 3 -15
BITMAP
FF00003F80
FF00003F80
FF00003F80
FF00003F80
FF00003F80
FF00003F80
FF00003F80
FF00003F80
FF00003F80
FF00003F80
FF00003F80
FF00003F80
FF00003F80
FF00003F80
FF00003F80
FF00003F80
FF00003F80
FF00003F80
FF00003F80
FF00003F80
FF00003F80
FF00003F80
FF00003F80
FF00003F80
FF00003F80
FF00003F80
FF00003F80
FF00003F80
FF00003F80
FF00003F80
FF00003F80
FF00003F80
FF00003F80
FF00003F80
FF00003F80
FF00003F80
FF00003F80
FF00003F80
FF00003F80
FF00003F80
7F00007F80
7F00007F80
7F80007F80
7F8000FF00
3FC000FF00
3FC001FF00
3FE003FE00
1FF807FE00
0FFFFFFC00
0FFFFFF800
07FFFFF000
03FFFFE000
00FFFFC000
007FFF0000
000FFC0000
0007C00000
000F800000
001F000000
001E000000
003C000000
003C000000
003C000000
003C020000
003E070000
001F1F8000
001FFF8000
000FFF0000
0007FC0000
0000E00000
ENDCHAR
STARTCHAR 0173
ENCODING 371
SWIDTH 501 0
DWIDTH 39 0
BBX 33 69 3 -15
BITMAP
FF00003F80
FF00003F80
FF00003F80
FF00003F80
FF00003F80
FF00003F80
FF00003F80
FF00003F80
FF00003F80
FF00003F80
FF00003F80
FF00003F80
FF00003F80
FF00003F80
FF00003F80
FF00003F80
FF00003F80
FF00003F80
FF00003F80
FF00003F80
FF00003F80
FF00003F80
FF00003F80
FF00003F80
FF00003F80
FF00003F80
FF00003F80
FF00003F80
FF00003F80
FF00003F80
FF00003F80
FF00003F80
FF00003F80
FF00003F80
FF00003F80
FF00003F80
FF00003F80
FF00003F80
FF00003F80
FF00003F80
7F00007F80
7F00007F80
7F80007F80
7F8000FF00
3FC000FF00
3FC001FF00
3FE003FE00
1FF807FE00
0FFFFFFC00
0FFFFFF800
07FFFFF000
03FFFFE000
00FFFFC000
007FFF0000
000FFC0000
0007C00000
000F800000
001F000000
001E000000
003C000000
003C000000
003C000000
003C020000
003E070000
001F1F8000
001FFF8000
000FFF0000
0007FC0000
0000E00000
ENDCHAR
STARTCHAR 0176
ENCODING 374
SWIDTH 488 0
DWIDTH 38 0
BBX 33 69 3 0
BITMAP
000FF80000
001FFC0000
003FFE0000
003F7E0000
007E3F0000
00FC3F8000
01FC1FC000
03F80FC000
03F007E000
07E003F000
0000000000
0000000000
0000000000
0000000000
0000000000
FE00007F80
FE00007F80
FE00007F80
FE00007F80
FE00007F80
FE00007F80
FE00007F80
FE00007F80
FE00007F80
FE00007F80
FE00007F80
FE00007F80
FE00007F80
FE00007F80
FE00007F80
FE00007F80
FE00007F80
FE00007F80
FE00007F80
FE00007F80
FE00007F80
FE00007F80
FE00007F80
FE00007F80
FE00007F80
FF00007F80
FF00007F80
FF00007F00
7F00007F00
7F8000FF00
7F8000FF00
3FC001FE00
3FE003FE00
3FF00FFC00
1FFFFFFC00
0FFFFFF800
07FFFFF000
03FFFFE000
01FFFFC000
007FFF0000
001FFC0000
0007F00000
0007F00000
0007F00000
0007F00000
0007F00000
0007F00000
0007F00000
0007F00000
0007F00000
0007F00000
0007F00000
0007F00000
0007F00000
ENDCHAR
STARTCHAR 0177
ENCODING 375
SWIDTH 488 0
DWIDTH 38 0
BBX 33 69 3 0
BITMAP
000FF80000
001FFC0000
003FFE0000
003F7E0000
007E3F0000
00FC3F8000
01FC1FC000
03F80FC000
03F007E000
07E003F000
0000000000
0000000000
0000000000
0000000000
0000000000
FE00007F80
FE00007F80
FE00007F80
FE00007F80
FE00007F80
FE00007F80
FE00007F80
FE00007F80
FE00007F80
FE00007F80
FE00007F80
FE00007F80
FE00007F80
FE00007F80
FE00007F80
FE00007F80
FE00007F80
FE00007F80
FE00007F80
FE00007F80
FE00007F80
FE00007F80
FE00007F80
FE00007F80
FE00007F80
FF00007F80
FF00007F80
FF00007F00
7F00007F00
7F8000FF00
7F8000FF00
3FC001FE00
3FE003FE00
3FF00FFC00
1FFFFFFC00
0FFFFFF800
07FFFFF000
03FFFFE000
01FFFFC000
007FFF0000
001FFC0000
0007F00000
0007F00000
0007F00000
0007F00000
0007F00000
0007F00000
0007F00000
0007F00000
0007F00000
0007F00000
0007F00000
0007F00000
0007F00000
ENDCHAR
STARTCHAR 0178
ENCODING 376
SWIDTH 488 0
DWIDTH 38 0
BBX 33 69 3 0
BITMAP
07E003F800
0FF807FC00
1FF80FFC00
1FFC0FFE00
3FFC0FFE00
3FFC0FFE00
1FFC0FFE00
1FF80FFE00
1FF807FC00
0FF003F800
01C000E000
0000000000
0000000000
0000000000
0000000000
FE00007F80
FE00007F80
FE00007F80
FE00007F80
FE00007F80
FE00007F80
FE00007F80
FE00007F80
FE00007F80
FE00007F80
FE00007F80
FE00007F80
FE00007F80
FE00007F80
FE00007F80
FE00007F80
FE00007F80
FE00007F80
FE00007F80
FE00007F80
FE00007F80
FE00007F80
FE00007F80
FE00007F80
FE00007F80
FF00007F80
FF00007F80
FF00007F00
7F00007F00
7F8000FF00
7F8000FF00
3FC001FE00
3FE003FE00
3FF00FFC00
1FFFFFFC00
0FFFFFF800
07FFFFF000
03FFFFE000
01FFFFC000
007FFF0000
001FFC0000
0007F00000
0007F00000
0007F00000
0007F00000
0007F00000
0007F00000
0007F00000
0007F00000
0007F00000
0007F00000
0007F00000
0007F00000
0007F00000
ENDCHAR
STARTCHAR 0179
ENCODING 377
SWIDTH 501 0
DWIDTH 39 0
BBX 36 69 2 0
BITMAP
00000FC000
00001F8000
00001F0000
00003F0000
00007E0000
00007C0000
0000F80000
0000F80000
0001F00000
0003E00000
0000000000
0000000000
0000000000
0000000000
0000000000
FFFFFFFFF0
FFFFFFFFF0
FFFFFFFFF0
FFFFFFFFE0
FFFFFFFFE0
FFFFFFFFC0
0000003FC0
0000007F80
000000FF00
000000FF00
000001FE00
000001FE00
000003FC00
000007F800
000007F800
00000FF000
00000FF000
00001FE000
00003FC000
00003FC000
00007F8000
00007F8000
0000FF0000
0001FE0000
0001FE0000
0003FC0000
0003FC0000
0007F80000
000FF80000
000FF00000
001FE00000
001FE00000
003FC00000
007FC00000
007F800000
00FF000000
00FF000000
01FE000000
03FE000000
03FC000000
07F8000000
07F8000000
0FF0000000
1FF0000000
1FE0000000
3FC0000000
3FC0000000
7FFFFFFFC0
FFFFFFFFC0
FFFFFFFFC0
FFFFFFFFC0
FFFFFFFFC0
FFFFFFFFC0
FFFFFFFFC0
ENDCHAR
STARTCHAR 017A
ENCODING 378
SWIDTH 501 0
DWIDTH 39 0
BBX 36 69 2 0
BITMAP
00000FC000
00001F8000
00001F0000
00003F0000
00007E0000
00007C0000
0000F80000
0000F80000
0001F00000
0003E00000
0000000000
0000000000
0000000000
0000000000
0000000000
FFFFFFFFF0
FFFFFFFFF0
FFFFFFFFF0
FFFFFFFFE0
FFFFFFFFE0
FFFFFFFFC0
0000003FC0
0000007F80
000000FF00
000000FF00
000001FE00
000001FE00
000003FC00
000007F800
000007F800
00000FF000
00000FF000
00001FE000
00003FC000
00003FC000
00007F8000
00007F8000
0000FF0000
0001FE0000
0001FE0000
0003FC0000
0003FC0000
0007F80000
000FF80000
000FF00000
001FE00000
001FE00000
003FC00000
007FC00000
007F800000
00FF000000
00FF000000
01FE000000
03FE000000
03FC000000
07F8000000
07F8000000
0FF0000000
1FF0000000
1FE0000000
3FC0000000
3FC0000000
7FFFFFFFC0
FFFFFFFFC0
FFFFFFFFC0
FFFFFFFFC0
FFFFFFFFC0
FFFFFFFFC0
FFFFFFFFC0
ENDCHAR
STARTCHAR 017B
ENCODING 379
SWIDTH 501 0
DWIDTH 39 0
BBX 36 71 2 0
BITMAP
0001F80000
0003FE0000
0007FE0000
0007FF0000
0007FF0000
0007FF0000
0007FF0000
0007FF0000
0003FE0000
0003FC0000
0000F80000
0000000000
0000000000
0000000000
0000000000
0000000000
0000000000
FFFFFFFFF0
FFFFFFFFF0
FFFFFFFFF0
FFFFFFFFE0
FFFFFFFFE0
FFFFFFFFC0
0000003FC0
0000007F80
000000FF00
000000FF00
000001FE00
000001FE00
000003FC00
000007F800
000007F800
00000FF000
00000FF000
00001FE000
00003FC000
00003FC000
00007F8000
00007F8000
0000FF0000
0001FE0000
0001FE0000
0003FC0000
0003FC0000
0007F80000
000FF80000
000FF00000
001FE00000
001FE00000
003FC00000
007FC00000
007F800000
00FF000000
00FF000000
01FE000000
03FE000000
03FC000000
07F8000000
07F8000000
0FF0000000
1FF0000000
1FE0000000
3FC0000000
3FC0000000
7FFFFFFFC0
FFFFFFFFC0
FFFFFFFFC0
FFFFFFFFC0
FFFFFFFFC0
FFFFFFFFC0
FFFFFFFFC0
ENDCHAR
STARTCHAR 017C
ENCODING 380
SWIDTH 501 0
DWIDTH 39 0
BBX 36 71 2 0
BITMAP
0001F80000
0003FE0000
0007FE0000
0007FF0000
0007FF0000
0007FF0000
0007FF0000
0007FF0000
0003FE0000
0003FC0000
0000F80000
0000000000
0000000000
0000000000
0000000000
0000000000
0000000000
FFFFFFFFF0
FFFFFFFFF0
FFFFFFFFF0
FFFFFFFFE0
FFFFFFFFE0
FFFFFFFFC0
0000003FC0
0000007F80
000000FF00
000000FF00
000001FE00
000001FE00
000003FC00
000007F800
000007F800
00000FF000
00000FF000
00001FE000
00003FC000
00003FC000
00007F8000
00007F8000
0000FF0000
0001FE0000
0001FE0000
0003FC0000
0003FC0000
0007F80000
000FF80000
000FF00000
001FE00000
001FE00000
003FC00000
007FC00000
007F800000
00FF000000
00FF000000
01FE000000
03FE000000
03FC000000
07F8000000
07F8000000
0FF0000000
1FF0000000
1FE0000000
3FC0000000
3FC0000000
7FFFFFFFC0
FFFFFFFFC0
FFFFFFFFC0
FFFFFFFFC0
FFFFFFFFC0
FFFFFFFFC0
FFFFFFFFC0
ENDCHAR
STARTCHAR 017D
ENCODING 381
SWIDTH 501 0
DWIDTH 39 0
BBX 36 70 2 0
BITMAP
01F801F800
01FC03F000
00FE07F000
007E07E000
003F0FC000
001F9F8000
001FFF8000
000FFF0000
0007FE0000
0003FC0000
0000000000
0000000000
0000000000
0000000000
0000000000
0000000000
FFFFFFFFF0
FFFFFFFFF0
FFFFFFFFF0
FFFFFFFFE0
FFFFFFFFE0
FFFFFFFFC0
0000003FC0
0000007F80
000000FF00
000000FF00
000001FE00
000001FE00
000003FC00
000007F800
000007F800
00000FF000
00000FF000
00001FE000
00003FC000
00003FC000
00007F8000
00007F8000
0000FF0000
0001FE0000
0001FE0000
0003FC0000
0003FC0000
0007F80000
000FF80000
000FF00000
001FE00000
001FE00000
003FC00000
007FC00000
007F800000
00FF000000
00FF000000
01FE000000
03FE000000
03FC000000
07F8000000
07F8000000
0FF0000000
1FF0000000
1FE0000000
3FC0000000
3FC0000000
7FFFFFFFC0
FFFFFFFFC0
FFFFFFFFC0
FFFFFFFFC0
FFFFFFFFC0
FFFFFFFFC0
FFFFFFFFC0
ENDCHAR
STARTCHAR 017E
ENCODING 382
SWIDTH 501 0
DWIDTH 39 0
BBX 36 70 2 0
BITMAP
01F801F800
01FC03F000
00FE07F000
007E07E000
003F0FC000
001F9F8000
001FFF8000
000FFF0000
0007FE0000
0003FC0000
0000000000
0000000000
0000000000
0000000000
0000000000
0000000000
FFFFFFFFF0
FFFFFFFFF0
FFFFFFFFF0
FFFFFFFFE0
FFFFFFFFE0
FFFFFFFFC0
0000003FC0
0000007F80
000000FF00
000000FF00
000001FE00
000001FE00
000003FC00
000007F800
000007F800
00000FF000
00000FF000
00001FE000
00003FC000
00003FC000
00007F8000
00007F8000
0000FF0000
0001FE0000
0001FE0000
0003FC0000
0003FC0000
0007F80000
000FF80000
000FF00000
001FE00000
001FE00000
003FC00000
007FC00000
007F800000
00FF000000
00FF000000
01FE000000
03FE000000
03FC000000
07F8000000
07F8000000
0FF0000000
1FF0000000
1FE0000000
3FC0000000
3FC0000000
7FFFFFFFC0
FFFFFFFFC0
FFFFFFFFC0
FFFFFFFFC0
FFFFFFFFC0
FFFFFFFFC0
FFFFFFFFC0
ENDCHAR
STARTCHAR 01A0
ENCODING 416
SWIDTH 810 0
DWIDTH 63 0
BBX 58 62 3 -1
BITMAP
000000000003F000
000000000003F000
000000000003F000
000000000003E000
000000000007E000
0000003E0007E000
00000FFFF80FC000
00007FFFFFFF8000
0001FFFFFFFF0000
0007FFFFFFFC0000
000FFFFFFFFC0000
003FFFFFFFFE0000
007FFFC0FFFF0000
00FFF8000FFF8000
01FFE00001FFC000
03FF8000007FE000
07FE0000003FF000
07FC0000001FF800
0FF80000000FFC00
1FF000000007FC00
1FE000000003FE00
3FE000000001FE00
3FC000000001FF00
7F8000000000FF00
7F80000000007F00
7F00000000007F80
FF00000000007F80
FF00000000003F80
FF00000000003F80
FE00000000003FC0
FE00000000003FC0
FE00000000003FC0
FE00000000003FC0
FE00000000003FC0
FE00000000003FC0
FE00000000003FC0
FE00000000003FC0
FE00000000003FC0
FE00000000003FC0
FF00000000003F80
FF00000000007F80
7F00000000007F80
7F80000000007F80
7F8000000000FF00
3FC000000000FF00
3FC000000001FE00
3FE000000001FE00
1FF000000003FC00
0FF000000007FC00
0FFC0000000FF800
07FE0000001FF800
03FF0000007FF000
01FFC00000FFE000
01FFF00003FFC000
00FFFC001FFF8000
003FFFFFFFFF0000
001FFFFFFFFE0000
000FFFFFFFF80000
0003FFFFFFE00000
0000FFFFFF800000
00003FFFFE000000
000003FFE0000000
ENDCHAR
STARTCHAR 01A1
ENCODING 417
SWIDTH 810 0
DWIDTH 63 0
BBX 58 62 3 -1
BITMAP
000000000003F000
000000000003F000
000000000003F000
000000000003E000
000000000007E000
0000003E0007E000
00000FFFF80FC000
00007FFFFFFF8000
0001FFFFFFFF0000
0007FFFFFFFC0000
000FFFFFFFFC0000
003FFFFFFFFE0000
007FFFC0FFFF0000
00FFF8000FFF8000
01FFE00001FFC000
03FF8000007FE000
07FE0000003FF000
07FC0000001FF800
0FF80000000FFC00
1FF000000007FC00
1FE000000003FE00
3FE000000001FE00
3FC000000001FF00
7F8000000000FF00
7F80000000007F00
7F00000000007F80
FF00000000007F80
FF00000000003F80
FF00000000003F80
FE00000000003FC0
FE00000000003FC0
FE00000000003FC0
FE00000000003FC0
FE00000000003FC0
FE00000000003FC0
FE00000000003FC0
FE00000000003FC0
FE00000000003FC0
FE00000000003FC0
FF00000000003F80
FF00000000007F80
7F00000000007F80
7F80000000007F80
7F8000000000FF00
3FC000000000FF00
3FC000000001FE00
3FE000000001FE00
1FF000000003FC00
0FF000000007FC00
0FFC0000000FF800
07FE0000001FF800
03FF0000007FF000
01FFC00000FFE000
01FFF00003FFC000
00FFFC001FFF8000
003FFFFFFFFF0000
001FFFFFFFFE0000
000FFFFFFFF80000
0003FFFFFFE00000
0000FFFFFF800000
00003FFFFE000000
000003FFE0000000
ENDCHAR
STARTCHAR 01AF
ENCODING 431
SWIDTH 501 0
DWIDTH 39 0
BBX 39 62 3 -1
BITMAP
000000003E
000000003E
000000003E
000000003E
000000007C
000000007C
00000001F8
FF00003FF8
FF00003FE0
FF00003F80
FF00003F80
FF00003F80
FF00003F80
FF00003F80
FF00003F80
FF00003F80
FF00003F80
FF00003F80
FF00003F80
FF00003F80
FF00003F80
FF00003F80
FF00003F80
FF00003F80
FF00003F80
FF00003F80
FF00003F80
FF00003F80
FF00003F80
FF00003F80
FF00003F80
FF00003F80
FF00003F80
FF00003F80
FF00003F80
FF00003F80
FF00003F80
FF00003F80
FF00003F80
FF00003F80
FF00003F80
FF00003F80
FF00003F80
FF00003F80
FF00003F80
FF00003F80
FF00003F80
7F00007F80
7F00007F80
7F80007F80
7F8000FF00
3FC000FF00
3FC001FF00
3FE003FE00
1FF807FE00
0FFFFFFC00
0FFFFFF800
07FFFFF000
03FFFFE000
00FFFFC000
007FFF0000
000FFC0000
ENDCHAR
STARTCHAR 01B0
ENCODING 432
SWIDTH 501 0
DWIDTH 39 0
BBX 39 62 3 -1
BITMAP
000000003E
000000003E
000000003E
000000003E
000000007C
000000007C
00000001F8
FF00003FF8
FF00003FE0
FF00003F80
FF00003F80
FF00003F80
FF00003F80
FF00003F80
FF00003F80
FF00003F80
FF00003F80
FF00003F80
FF00003F80
FF00003F80
FF00003F80
FF00003F80
FF00003F80
FF00003F80
FF00003F80
FF00003F80
FF00003F80
FF00003F80
FF00003F80
FF00003F80
FF00003F80
FF00003F80
FF00003F80
FF00003F80
FF00003F80
FF00003F80
FF00003F80
FF00003F80
FF00003F80
FF00003F80
FF00003F80
FF00003F80
FF00003F80
FF00003F80
FF00003F80
FF00003F80
FF00003F80
7F00007F80
7F00007F80
7F80007F80
7F8000FF00
3FC000FF00
3FC001FF00
3FE003FE00
1FF807FE00
0FFFFFFC00
0FFFFFF800
07FFFFF000
03FFFFE000
00FFFFC000
007FFF0000
000FFC0000
ENDCHAR
STARTCHAR 01CD
ENCODING 461
SWIDTH 552 0
DWIDTH 43 0
BBX 38 70 4 0
BITMAP
07E007F000
03F007E000
01F80FC000
01FC1F8000
00FE3F8000
007F7F0000
003F7E0000
003FFC0000
001FF80000
000FF80000
0000000000
0000000000
0000000000
0000000000
0003C00000
003FFC0000
00FFFF8000
03FFFFC000
07FFFFE000
0FFFFFF000
0FFFFFF800
1FFC1FFC00
3FF007FC00
3FC003FE00
7FC001FE00
7F8000FF00
7F0000FF00
FF00007F00
FF00007F00
FF00007F80
FE00007F80
FE00007F80
FE00007F80
FE00007F80
FE00007F80
FE00007F80
FE00007F80
FE00007F80
FE00007F80
FE00007F80
FE00007F80
FE00007F80
FE00007F80
FE00007F80
FE00007F80
FE00007F80
FE00007F80
FE00007F80
FE00007F80
FE00007F80
FE00007F80
FE00007F80
FE00007F80
FE00007F80
FE00007F80
FE00007F80
FE00007F80
FE00007F80
FE00007F80
FE00007F80
FE00007F80
FE00007F80
FE00007F80
FFFFFFFFFC
FFFFFFFFFC
FFFFFFFFFC
FFFFFFFFFC
FFFFFFFFFC
FFFFFFFFFC
FFFFFFFFFC
ENDCHAR
STARTCHAR 01CE
ENCODING 462
SWIDTH 552 0
DWIDTH 43 0
BBX 38 70 4 0
BITMAP
07E007F000
03F007E000
01F80FC000
01FC1F8000
00FE3F8000
007F7F0000
003F7E0000
003FFC0000
001FF80000
000FF80000
0000000000
0000000000
0000000000
0000000000
0003C00000
003FFC0000
00FFFF8000
03FFFFC000
07FFFFE000
0FFFFFF000
0FFFFFF800
1FFC1FFC00
3FF007FC00
3FC003FE00
7FC001FE00
7F8000FF00
7F0000FF00
FF00007F00
FF00007F00
FF00007F80
FE00007F80
FE00007F80
FE00007F80
FE00007F80
FE00007F80
FE00007F80
FE00007F80
FE00007F80
FE00007F80
FE00007F80
FE00007F80
FE00007F80
FE00007F80
FE00007F80
FE00007F80
FE00007F80
FE00007F80
FE00007F80
FE00007F80
FE00007F80
FE00007F80
FE00007F80
FE00007F80
FE00007F80
FE00007F80
FE00007F80
FE00007F80
FE00007F80
FE00007F80
FE00007F80
FE00007F80
FE00007F80
FE00007F80
FFFFFFFFFC
FFFFFFFFFC
FFFFFFFFFC
FFFFFFFFFC
FFFFFFFFFC
FFFFFFFFFC
FFFFFFFFFC
ENDCHAR
STARTCHAR 01CF
ENCODING 463
SWIDTH 192 0
DWIDTH 15 0
BBX 23 49 -4 0
BITMAP
FE007E
7F00FC
3F01FC
1F83F8
0FC3F0
0FE7E0
07FFC0
03FFC0
01FF80
00FF00
000000
000000
000000
000000
000000
000000
00FF00
00FF00
00FF00
00FF00
00FF00
00FF00
00FF00
00FF00
00FF00
00FF00
00FF00
00FF00
00FF00
00FF00
00FF00
00FF00
00FF00
00FF00
00FF00
00FF00
00FF00
00FF00
00FF00
00FF00
00FF00
00FF00
00FF00
00FF00
00FF00
00FF00
00FF00
00FF00
00FF00
ENDCHAR
STARTCHAR 01D0
ENCODING 464
SWIDTH 192 0
DWIDTH 15 0
BBX 23 49 -4 0
BITMAP
FE007E
7F00FC
3F01FC
1F83F8
0FC3F0
0FE7E0
07FFC0
03FFC0
01FF80
00FF00
000000
000000
000000
000000
000000
000000
00FF00
00FF00
00FF00
00FF00
00FF00
00FF00
00FF00
00FF00
00FF00
00FF00
00FF00
00FF00
00FF00
00FF00
00FF00
00FF00
00FF00
00FF00
00FF00
00FF00
00FF00
00FF00
00FF00
00FF00
00FF00
00FF00
00FF00
00FF00
00FF00
00FF00
00FF00
00FF00
00FF00
ENDCHAR
ENDFONT
